<svg fill="none" xmlns="http://www.w3.org/2000/svg" viewBox="0 0 124 42"><path d="M25.43 20.31a5.18 5.18 0 012.45-4.34 5.29 5.29 0 00-4.16-2.26c-1.75-.18-3.45 1.05-4.34 1.05-.91 0-2.29-1.03-3.77-1a5.54 5.54 0 00-4.66 2.86c-2.02 3.5-.51 8.64 1.42 11.47.97 1.39 2.1 2.94 3.57 2.88 1.45-.06 2-.92 3.74-.92 1.73 0 2.23.92 3.74.89 1.56-.03 2.53-1.4 3.47-2.8a11.48 11.48 0 001.58-3.23 4.99 4.99 0 01-2.21-1.84 5 5 0 01-.84-2.76zm-2.85-8.46a5.1 5.1 0 001.16-3.65 5.17 5.17 0 00-3.35 1.74 4.85 4.85 0 00-1.19 3.51 4.27 4.27 0 003.38-1.6zM43.7 27.46h-4.93l-1.19 3.51H35.5L40.18 18h2.17l4.68 12.98H44.9l-1.19-3.5zm-4.42-1.62h3.91l-1.93-5.7h-.05l-1.93 5.7zm17.84.4c0 2.94-1.57 4.83-3.94 4.83a3.2 3.2 0 01-2.98-1.65h-.04v4.69h-1.94V21.5h1.88v1.57h.03a3.35 3.35 0 013.01-1.67c2.4 0 3.98 1.9 3.98 4.83zm-2 0c0-1.91-.98-3.18-2.5-3.18-1.47 0-2.47 1.3-2.47 3.18 0 1.9 1 3.19 2.48 3.19 1.5 0 2.5-1.25 2.5-3.19zm12.39 0c0 2.94-1.57 4.83-3.94 4.83a3.2 3.2 0 01-2.97-1.65h-.05v4.69h-1.94V21.5h1.88v1.57h.04a3.35 3.35 0 013-1.67c2.4 0 3.98 1.9 3.98 4.83zm-2 0c0-1.91-.98-3.18-2.49-3.18-1.48 0-2.48 1.3-2.48 3.18 0 1.9 1 3.19 2.48 3.19 1.5 0 2.5-1.25 2.5-3.19zm8.87 1.12c.14 1.28 1.4 2.13 3.1 2.13 1.63 0 2.8-.85 2.8-2 0-1.02-.7-1.62-2.38-2.03l-1.68-.4c-2.38-.58-3.48-1.7-3.48-3.5 0-2.25 1.94-3.79 4.71-3.79 2.74 0 4.61 1.54 4.68 3.78h-1.96c-.12-1.3-1.19-2.08-2.75-2.08s-2.63.8-2.63 1.95c0 .91.69 1.45 2.35 1.87l1.43.35c2.66.63 3.76 1.7 3.76 3.6 0 2.43-1.93 3.95-5 3.95-2.87 0-4.8-1.49-4.93-3.84h1.98zm12.14-8.1v2.25h1.8v1.53h-1.8v5.23c0 .8.36 1.18 1.14 1.18.22 0 .43-.02.64-.04v1.53a5.3 5.3 0 01-1.07.09c-1.92 0-2.66-.72-2.66-2.56v-5.43H83.2v-1.53h1.37v-2.24h1.95zm2.83 6.98c0-2.98 1.75-4.85 4.48-4.85 2.74 0 4.48 1.87 4.48 4.85 0 2.99-1.73 4.85-4.48 4.85-2.74 0-4.48-1.86-4.48-4.85zm6.99 0c0-2.04-.94-3.25-2.5-3.25-1.58 0-2.51 1.22-2.51 3.25 0 2.05.93 3.25 2.5 3.25 1.57 0 2.5-1.2 2.5-3.25zm3.57-4.73h1.85v1.6h.04a2.26 2.26 0 012.28-1.7c.22 0 .44.02.66.07v1.82a2.7 2.7 0 00-.87-.12 1.95 1.95 0 00-1.94 1.35 1.98 1.98 0 00-.08.83v5.61h-1.94v-9.46zm13.77 6.68c-.26 1.72-1.93 2.9-4.07 2.9-2.75 0-4.45-1.84-4.45-4.8 0-2.97 1.71-4.9 4.37-4.9 2.61 0 4.25 1.8 4.25 4.67v.67h-6.67v.11a2.47 2.47 0 001.53 2.5c.32.14.67.2 1.01.18a2.13 2.13 0 002.19-1.33h1.84zm-6.56-2.82h4.73a2.27 2.27 0 00-2.32-2.4 2.38 2.38 0 00-2.22 1.48 2.4 2.4 0 00-.19.92zM39.05 9.2a2.75 2.75 0 012.2.86 2.76 2.76 0 01.73 2.24c0 2-1.08 3.14-2.93 3.14H36.8V9.21h2.25zm-1.28 5.36h1.17a1.95 1.95 0 001.99-1.38c.08-.28.1-.57.06-.86a1.97 1.97 0 00-1.2-2.1 1.96 1.96 0 00-.85-.13h-1.17v4.47zm5.3-1.47a2.24 2.24 0 011.31-2.26 2.22 2.22 0 013.01 1.34c.1.3.14.6.1.92a2.24 2.24 0 01-1.3 2.25 2.22 2.22 0 01-3.02-1.34 2.24 2.24 0 01-.1-.91zm3.48 0c0-1.02-.46-1.62-1.26-1.62-.81 0-1.26.6-1.26 1.62 0 1.03.45 1.62 1.26 1.62.8 0 1.26-.6 1.26-1.62zm6.84 2.35h-.96L51.46 12h-.08l-.97 3.46h-.95l-1.3-4.7h.95l.84 3.59h.07l.96-3.6h.9l.96 3.6h.07l.84-3.6h.93l-1.3 4.71zm2.38-4.7h.89v.74h.07a1.4 1.4 0 011.4-.84 1.52 1.52 0 011.57 1.08c.07.22.09.45.05.67v3.05h-.92v-2.81c0-.76-.33-1.14-1.02-1.14a1.07 1.07 0 00-1.07.74c-.05.15-.06.3-.05.46v2.75h-.92v-4.7zm5.46-1.84h.93v6.54h-.93V8.91zm2.22 4.19a2.23 2.23 0 011.31-2.26 2.22 2.22 0 013.02 1.34c.1.3.13.6.1.92a2.24 2.24 0 01-1.31 2.25 2.22 2.22 0 01-2.55-.54 2.23 2.23 0 01-.57-1.71zm3.47 0c0-1.02-.45-1.62-1.26-1.62-.8 0-1.26.6-1.26 1.62s.46 1.62 1.26 1.62 1.26-.6 1.26-1.62zm1.93 1.02c0-.85.63-1.34 1.75-1.4l1.27-.08v-.4c0-.5-.32-.78-.96-.78-.52 0-.87.19-.98.52h-.9c.1-.8.86-1.33 1.92-1.33 1.18 0 1.85.59 1.85 1.58v3.22h-.9v-.66h-.07a1.58 1.58 0 01-1.41.74 1.41 1.41 0 01-1.44-.83 1.43 1.43 0 01-.13-.58zm3.02-.4v-.4l-1.14.08c-.65.04-.94.26-.94.68 0 .42.36.67.87.67a1.1 1.1 0 001.1-.6c.06-.14.1-.28.11-.43zm2.14-.62c0-1.5.77-2.43 1.95-2.43a1.54 1.54 0 011.44.82h.07V8.91h.93v6.54h-.89v-.74h-.07a1.63 1.63 0 01-1.48.82c-1.2 0-1.95-.94-1.95-2.43zm.96 0c0 1 .47 1.6 1.26 1.6.78 0 1.26-.61 1.26-1.6 0-.98-.49-1.6-1.26-1.6-.78 0-1.26.6-1.26 1.6zm7.27 0a2.24 2.24 0 011.31-2.26 2.22 2.22 0 013.01 1.34c.1.3.13.6.1.92a2.24 2.24 0 01-1.3 2.25 2.22 2.22 0 01-3.02-1.34 2.24 2.24 0 01-.1-.91zm3.47 0c0-1.02-.46-1.62-1.26-1.62s-1.26.6-1.26 1.62c0 1.03.46 1.62 1.26 1.62s1.26-.6 1.26-1.62zm2.2-2.36h.89v.75h.07a1.4 1.4 0 011.4-.84 1.52 1.52 0 011.57 1.08c.07.22.1.45.06.67v3.05h-.93v-2.81c0-.76-.33-1.14-1.01-1.14a1.07 1.07 0 00-1.08.74c-.05.15-.06.3-.05.46v2.75h-.92v-4.7zm9.23-1.17v1.2h1.01v.78h-1.01v2.42c0 .5.2.71.66.71.12 0 .24 0 .35-.02v.77c-.16.03-.33.05-.5.05-1.03 0-1.44-.36-1.44-1.27v-2.66h-.75v-.78h.75v-1.2h.93zm2.28-.66h.92v2.6h.07a1.45 1.45 0 011.43-.85 1.54 1.54 0 011.56 1.08c.07.22.1.45.06.67v3.04h-.93v-2.8c0-.76-.34-1.14-1-1.14a1.1 1.1 0 00-1.12.72 1.11 1.11 0 00-.06.47v2.75h-.93V8.91zm9.45 5.27a1.91 1.91 0 01-2.04 1.36 2.13 2.13 0 01-2.1-1.51 2.12 2.12 0 01-.07-.92 2.17 2.17 0 011.27-2.27c.28-.13.59-.19.9-.19 1.3 0 2.1.9 2.1 2.38v.32h-3.32v.05a1.25 1.25 0 00.74 1.25c.16.07.34.1.5.1a1.12 1.12 0 001.13-.57h.89zm-3.26-1.52h2.37a1.13 1.13 0 00-1.16-1.22 1.2 1.2 0 00-1.21 1.22z" fill="#fff"/></svg>