<svg width="34" height="34" viewBox="0 0 34 34" fill="none" xmlns="http://www.w3.org/2000/svg">
<path d="M23.9834 0.333008H10.0167C3.95004 0.333008 0.333374 3.94967 0.333374 10.0163V23.983C0.333374 25.7997 0.650041 27.383 1.26671 28.7163C2.70004 31.883 5.76671 33.6663 10.0167 33.6663H23.9834C30.05 33.6663 33.6667 30.0497 33.6667 23.983V20.1663V10.0163C33.6667 3.94967 30.05 0.333008 23.9834 0.333008ZM30.95 17.833C29.65 16.7163 27.55 16.7163 26.25 17.833L19.3167 23.783C18.0167 24.8997 15.9167 24.8997 14.6167 23.783L14.05 23.3163C12.8667 22.283 10.9834 22.183 9.65004 23.083L3.41671 27.2663C3.05004 26.333 2.83337 25.2497 2.83337 23.983V10.0163C2.83337 5.31634 5.31671 2.83301 10.0167 2.83301H23.9834C28.6834 2.83301 31.1667 5.31634 31.1667 10.0163V18.0163L30.95 17.833Z" fill="white"/>
</svg>
