<svg width="80" height="80" viewBox="0 0 80 80" fill="none" xmlns="http://www.w3.org/2000/svg">
<path d="M76.6629 50.7332C75.2962 50.7332 74.1629 51.8665 74.1629 53.2332C74.1629 63.0998 67.2962 71.3665 58.0629 73.5331L58.9629 72.0332C59.6629 70.8332 59.2962 69.2998 58.0962 68.5998C56.9295 67.8998 55.3629 68.2665 54.6629 69.4665L51.1629 75.2998C50.6962 76.0665 50.6962 77.0332 51.1295 77.7998C51.5629 78.5998 52.3962 79.0665 53.2962 79.0665C67.5295 79.0665 79.1295 67.4665 79.1295 53.2332C79.1629 51.8665 78.0295 50.7332 76.6629 50.7332Z" fill="#FCE34D"/>
<path d="M26.6663 0.733154C12.433 0.733154 0.833008 12.3332 0.833008 26.5665C0.833008 27.9332 1.96634 29.0665 3.33301 29.0665C4.69967 29.0665 5.83301 27.9332 5.83301 26.5665C5.83301 16.6998 12.6997 8.43315 21.933 6.26649L21.033 7.76649C20.333 8.96649 20.6997 10.4998 21.8997 11.1998C23.0663 11.8998 24.633 11.5332 25.333 10.3332L28.833 4.49982C29.2663 3.73315 29.2997 2.79982 28.833 1.99982C28.3997 1.23315 27.5663 0.733154 26.6663 0.733154Z" fill="#FCE34D"/>
<path d="M71.6626 28.8999C71.6626 39.1666 64.1959 47.6333 54.4292 49.1999C54.4292 49.1666 54.4292 49.1666 54.4292 49.1333C53.4626 36.6999 43.3959 26.5666 30.7959 25.5666C32.3626 15.7999 40.8292 8.33325 51.0959 8.33325C62.4626 8.33325 71.6626 17.5333 71.6626 28.8999Z" fill="#FCE34D"/>
<path d="M32.7027 47.3333C32.7027 46.8333 32.136 46.0667 31.436 46.0667H24.5693V48.5666H31.436C32.136 48.6 32.7027 48.0333 32.7027 47.3333Z" fill="#FCE34D"/>
<path d="M32.7693 53.5999H31.436H24.5693V56.0999H32.8027C33.8693 56.0999 34.6027 55.4332 34.6027 54.8332C34.6027 54.2332 33.836 53.5999 32.7693 53.5999Z" fill="#FCE34D"/>
<path d="M49.433 49.5C48.6663 39.4 40.5997 31.3333 30.4997 30.5667C29.9663 30.5333 29.4663 30.5 28.8997 30.5C17.533 30.5 8.33301 39.7 8.33301 51.1C8.33301 62.4667 17.533 71.6667 28.8997 71.6667C40.2663 71.6667 49.4997 62.4667 49.4997 51.1C49.4997 50.5333 49.4663 50.0333 49.433 49.5ZM32.7663 61.1H30.5663V62.3667C30.5663 63.7333 29.433 64.8667 28.0663 64.8667C26.6997 64.8667 25.5663 63.7333 25.5663 62.3667V61.1H22.0663C20.6997 61.1 19.5663 59.9667 19.5663 58.6V51.1V43.6C19.5663 42.2333 20.6997 41.1 22.0663 41.1H25.5663V39.8333C25.5663 38.4667 26.6997 37.3333 28.0663 37.3333C29.433 37.3333 30.5663 38.4667 30.5663 39.8333V41.1H31.433C34.7663 41.1 37.6997 44.0333 37.6997 47.3667C37.6997 48.3333 37.4663 49.2333 37.0663 50.0667C38.5997 51.2 39.5663 52.9333 39.5663 54.8667C39.5663 58.3 36.533 61.1 32.7663 61.1Z" fill="#FCE34D"/>
</svg>
