<svg width="186" height="36" viewBox="0 0 186 36" fill="none" xmlns="http://www.w3.org/2000/svg">
    <g clip-path="url(#clip0)">
        <path fill-rule="evenodd" clip-rule="evenodd" d="M0.127197 15.4213V22.822L4.98942 20.3683V12.9668L0.127197 15.4213Z" fill="#21365D"/>
        <path fill-rule="evenodd" clip-rule="evenodd" d="M36.4028 12.9648L41.2651 15.4209V22.8208L36.4028 20.3672V12.9648Z" fill="#3B5483"/>
        <path fill-rule="evenodd" clip-rule="evenodd" d="M20.6953 20.893L4.98911 12.9672L0.126892 15.4209L20.6953 25.8004L41.2646 15.4209L36.4031 12.9648L20.6953 20.893Z" fill="#5482D8"/>
        <mask id="mask0" mask-type="alpha" maskUnits="userSpaceOnUse" x="0" y="0" width="42" height="13">
            <path d="M20.6984 0.12793L0.130768 10.513L4.9922 12.9674L20.6984 5.03925L36.4023 12.9666L41.2637 10.513L20.6984 0.12793Z" fill="white"/>
        </mask>
        <g mask="url(#mask0)">
            <path d="M20.6984 0.12793L0.130768 10.513L4.9922 12.9674L20.6984 5.03925L36.4023 12.9666L41.2637 10.513L20.6984 0.12793Z" fill="url(#paint0_linear)"/>
        </g>
        <path fill-rule="evenodd" clip-rule="evenodd" d="M182.81 17.3392C182.068 17.3344 181.337 17.4909 180.663 17.7983C180.014 18.0882 179.437 18.5195 178.973 19.0605V18.6244C179.053 18.07 178.669 17.5568 178.117 17.4774C178.023 17.4639 177.927 17.4639 177.833 17.4774C177.263 17.4154 176.753 17.8269 176.69 18.3972C176.682 18.4727 176.682 18.5489 176.69 18.6244V28.8807C176.666 29.1961 176.774 29.5083 176.987 29.741C177.22 29.9451 177.524 30.0484 177.833 30.0277C178.146 30.0516 178.456 29.9435 178.688 29.7291C178.891 29.4948 178.994 29.1889 178.973 28.8799V22.1806C178.949 21.3751 179.326 20.6094 179.978 20.1384C180.754 19.6014 181.684 19.3353 182.627 19.3814C183.125 19.3925 183.621 19.4465 184.111 19.5403C184.223 19.5657 184.338 19.5816 184.452 19.5863C184.899 19.6078 185.29 19.2924 185.366 18.8524C185.387 18.7785 185.396 18.7014 185.395 18.6244C185.363 18.2106 185.095 17.8531 184.708 17.707C184.115 17.4337 183.466 17.3074 182.814 17.34L182.81 17.3392ZM167.034 18.9413C168.002 18.9016 168.944 19.2559 169.648 19.9215C170.342 20.6309 170.772 21.5555 170.87 22.5436H162.735C162.886 21.5324 163.384 20.6062 164.141 19.9215C164.951 19.244 165.985 18.8945 167.038 18.9413H167.034ZM173.122 23.4293C173.145 22.2426 172.894 21.0677 172.389 19.9954C171.928 19.0295 171.198 18.2201 170.286 17.6656C169.3 17.0906 168.175 16.8014 167.034 16.8316C165.84 16.8125 164.663 17.1144 163.625 17.7054C162.631 18.2773 161.817 19.1193 161.278 20.1336C160.704 21.2163 160.415 22.4276 160.434 23.6533C160.414 24.8813 160.723 26.0919 161.326 27.1602C161.913 28.1817 162.772 29.0189 163.808 29.5758C165.643 30.5504 167.799 30.7148 169.76 30.0293C170.506 29.7918 171.205 29.4264 171.827 28.9498C172.071 28.7854 172.217 28.509 172.218 28.2143C172.207 27.8831 172.045 27.5749 171.777 27.3803C171.573 27.2079 171.311 27.1205 171.044 27.1348C170.752 27.1292 170.468 27.2246 170.238 27.4041C169.84 27.6948 169.399 27.9188 168.93 28.0673C167.341 28.6154 165.582 28.3207 164.258 27.2826C163.409 26.5899 162.854 25.5994 162.706 24.5111H171.996C172.296 24.5215 172.586 24.4111 172.802 24.2045C173.013 24.0036 173.128 23.7232 173.12 23.4309L173.122 23.4293ZM150.725 28.2365C149.939 28.2485 149.166 28.0451 148.487 27.6479C147.83 27.2587 147.293 26.694 146.935 26.0172C146.552 25.288 146.358 24.4738 146.373 23.6501C146.359 22.8208 146.552 22.0019 146.935 21.2671C147.29 20.5848 147.828 20.0161 148.487 19.6229C149.876 18.8389 151.573 18.8389 152.962 19.6229C153.62 20.0145 154.154 20.584 154.502 21.2671C154.877 22.0043 155.066 22.8224 155.051 23.6501C155.066 24.4722 154.878 25.2856 154.502 26.0172C154.151 26.6955 153.617 27.2603 152.962 27.6479C152.283 28.0451 151.51 28.2485 150.725 28.2365ZM150.725 16.8324C149.504 16.8125 148.298 17.1136 147.229 17.7062C146.22 18.2685 145.388 19.1058 144.833 20.1209C144.249 21.2052 143.955 22.4221 143.978 23.6533C143.955 24.8694 144.227 26.0728 144.769 27.1602C145.27 28.1595 146.041 28.9959 146.993 29.5758C147.97 30.1636 149.092 30.4662 150.232 30.4487C151.221 30.4638 152.195 30.2009 153.043 29.6894C153.884 29.1738 154.575 28.4462 155.048 27.5804V28.7822C155.073 29.7037 154.871 30.6171 154.461 31.4432C154.11 32.1438 153.567 32.73 152.898 33.1351C152.238 33.522 151.485 33.7214 150.722 33.7118C149.939 33.7253 149.165 33.5704 148.449 33.2583C147.794 32.966 147.222 32.5156 146.786 31.946C146.556 31.6188 146.181 31.4266 145.783 31.4313C145.539 31.4369 145.301 31.5131 145.099 31.6521C144.788 31.8396 144.595 32.1724 144.586 32.5354C144.594 32.7888 144.689 33.0303 144.854 33.2225C145.531 34.0828 146.403 34.7683 147.396 35.221C148.425 35.6905 149.543 35.9296 150.673 35.9201C151.904 35.9399 153.116 35.6214 154.181 35.0002C155.201 34.4029 156.034 33.5323 156.589 32.4862C157.164 31.4003 157.459 30.185 157.445 28.9546V23.6501C157.466 22.4165 157.165 21.1996 156.573 20.1185C156.012 19.1066 155.183 18.2701 154.178 17.703C153.121 17.112 151.928 16.8102 150.719 16.8292L150.725 16.8324ZM134.851 16.8078C134.065 16.8022 133.286 16.9484 132.554 17.2367C131.858 17.5084 131.226 17.9222 130.696 18.4504V18.1804C130.681 17.4758 130.101 16.9166 129.399 16.9317C129.086 16.938 128.788 17.0596 128.558 17.2732C128.319 17.5123 128.191 17.8412 128.204 18.1804V29.119C128.213 29.8204 128.787 30.3828 129.486 30.3757C129.811 30.3717 130.122 30.2422 130.356 30.0142C130.585 29.7744 130.708 29.4519 130.698 29.119V22.2028C130.691 21.6357 130.857 21.0789 131.172 20.6086C131.506 20.1217 131.961 19.7325 132.493 19.4807C133.076 19.1979 133.716 19.0557 134.363 19.0629C136.35 18.8961 138.095 20.3767 138.261 22.3689C138.282 22.6071 138.278 22.8478 138.251 23.0861V29.1222C138.233 29.8141 138.777 30.3876 139.466 30.405C140.154 30.4225 140.727 29.8768 140.744 29.1866V29.1222V23.0861C140.777 21.9081 140.517 20.7405 139.986 19.6888C139.512 18.7817 138.78 18.035 137.884 17.5449C136.951 17.0453 135.909 16.7927 134.852 16.8094L134.851 16.8078ZM117.803 28.2365C117.024 28.2469 116.258 28.0387 115.591 27.6352C114.932 27.2373 114.392 26.6709 114.027 25.9926C113.637 25.2745 113.439 24.4675 113.451 23.6501C113.441 22.8304 113.639 22.0209 114.026 21.2989C114.389 20.6158 114.93 20.0439 115.59 19.6435C117.599 18.4179 120.217 19.0581 121.439 21.0733C121.484 21.1472 121.527 21.2226 121.567 21.2989C121.947 22.0241 122.141 22.8335 122.129 23.6533C122.141 24.469 121.948 25.2753 121.567 25.9957C120.83 27.3922 119.377 28.258 117.803 28.2397V28.2365ZM117.803 16.8324C116.599 16.8189 115.414 17.1279 114.369 17.7276C113.35 18.3075 112.509 19.1558 111.936 20.1805C111.343 21.2401 111.04 22.4364 111.056 23.6509C111.039 24.8575 111.321 26.0498 111.875 27.1213C112.389 28.1253 113.167 28.9689 114.124 29.5615C116.726 31.1605 120.105 30.583 122.032 28.2111V29.1182C122.016 29.8093 122.559 30.3828 123.248 30.4003C123.937 30.4178 124.509 29.8721 124.526 29.181C124.527 29.1595 124.527 29.1389 124.526 29.1182V23.6501C124.542 22.4348 124.236 21.2369 123.637 20.1797C122.449 18.0795 120.213 16.7959 117.806 16.8316L117.803 16.8324ZM101.929 16.8078C101.143 16.8022 100.364 16.9484 99.6324 17.2367C98.9364 17.5084 98.3046 17.9222 97.7749 18.4504V12.4414C97.7599 11.7368 97.1787 11.1776 96.4764 11.1927C96.1645 11.199 95.8652 11.3206 95.6371 11.5342C95.3972 11.7733 95.2682 12.1022 95.2832 12.4414V29.1214C95.2911 29.8236 95.8644 30.386 96.5643 30.3788C96.8897 30.3749 97.2009 30.2454 97.4344 30.0166C97.6633 29.7775 97.7868 29.4542 97.7765 29.1214V22.2028C97.7702 21.6357 97.9356 21.0789 98.2515 20.6086C98.5841 20.1217 99.0394 19.7325 99.5714 19.4807C100.154 19.1979 100.795 19.0557 101.442 19.0629C103.428 18.8961 105.173 20.3767 105.339 22.3689C105.36 22.6071 105.356 22.8478 105.329 23.0861V29.1222C105.312 29.8141 105.856 30.3876 106.544 30.405C107.233 30.4225 107.805 29.8768 107.822 29.1866V29.1222V23.0861C107.856 21.9081 107.595 20.7405 107.065 19.6888C106.59 18.7817 105.86 18.035 104.963 17.5449C104.031 17.0453 102.987 16.7927 101.931 16.8094L101.929 16.8078ZM86.7551 16.8324C85.5564 16.8141 84.3759 17.116 83.3323 17.7062C82.3323 18.2757 81.5145 19.1177 80.9729 20.1344C80.3997 21.2171 80.1099 22.4284 80.1289 23.6541C80.1146 24.867 80.4147 26.0633 81.0006 27.1245C81.5628 28.146 82.3965 28.9904 83.4091 29.5647C84.4677 30.162 85.6657 30.467 86.8802 30.4471C88.5049 30.4988 90.0845 29.9094 91.2801 28.8045C91.4653 28.6329 91.5714 28.3938 91.5738 28.142C91.5611 27.7925 91.3909 27.4668 91.1098 27.2595C90.9285 27.1173 90.706 27.0395 90.4764 27.0379C90.1455 27.0522 89.828 27.1721 89.5714 27.3818C88.805 27.9824 87.8502 28.2874 86.8794 28.2405C86.0861 28.2548 85.3038 28.0515 84.6174 27.6519C83.9618 27.2643 83.4282 26.6995 83.0782 26.0212C82.7021 25.2896 82.5137 24.4762 82.5279 23.6541C82.4693 22.4276 82.8898 21.2258 83.7013 20.306C84.4891 19.4608 85.6039 19.0001 86.7575 19.043C87.322 19.0327 87.8834 19.1367 88.4076 19.3496C88.9151 19.5736 89.3695 19.9041 89.7401 20.3179C89.9752 20.6007 90.3228 20.7627 90.6902 20.7603C90.8905 20.7635 91.0869 20.7039 91.2524 20.5888C91.577 20.4013 91.7805 20.0574 91.79 19.6816C91.7923 19.4465 91.7052 19.2186 91.5445 19.0462C90.3664 17.6172 88.6031 16.8046 86.7543 16.8388L86.7551 16.8324ZM77.4907 28.4574L73.6047 23.7963L77.2959 18.9644C77.5184 18.6871 77.6388 18.3408 77.6372 17.9842C77.6443 17.7077 77.5438 17.4393 77.3569 17.2359C77.1566 17.0262 76.8755 16.9142 76.5865 16.9293C76.235 16.911 75.8969 17.0667 75.6823 17.3463L72.0885 22.1536L68.079 17.3471C67.8518 17.0699 67.5082 16.915 67.1503 16.9301C66.8565 16.9126 66.5691 17.0199 66.3585 17.2248C66.1724 17.4154 66.0711 17.6728 66.0766 17.9397C66.0838 18.2844 66.2136 18.6149 66.444 18.8714L70.4781 23.6541L66.6847 28.4081C66.467 28.6591 66.3458 28.9816 66.3435 29.3152C66.3181 29.8609 66.7378 30.3232 67.2817 30.3487C67.3197 30.3502 67.3569 30.3502 67.3941 30.3471C67.7306 30.3502 68.0521 30.2081 68.2754 29.9555L71.9666 25.2959L75.8533 29.957C76.0632 30.2255 76.3925 30.3725 76.7322 30.3487C77.0252 30.3606 77.3102 30.2549 77.524 30.0555C77.7259 29.8649 77.8367 29.5972 77.8304 29.32C77.8328 28.9999 77.71 28.6917 77.4883 28.4605L77.4907 28.4574ZM58.2976 18.9413C59.2643 18.9008 60.2065 19.2551 60.9104 19.9215C61.604 20.6301 62.0355 21.5555 62.1321 22.5436H53.9951C54.1463 21.5324 54.6428 20.6062 55.4005 19.9215C56.2097 19.244 57.2437 18.8945 58.2976 18.9413ZM64.3846 23.4293C64.4076 22.2426 64.1566 21.0677 63.6507 19.9954C63.1907 19.0295 62.4607 18.2209 61.5493 17.6656C60.5636 17.0906 59.4377 16.8014 58.2984 16.8316C57.1036 16.8125 55.927 17.1144 54.8882 17.7054C53.8922 18.2757 53.0775 19.1161 52.5367 20.1304C51.9635 21.2131 51.6737 22.4245 51.6927 23.6501C51.6729 24.8781 51.9809 26.0887 52.5858 27.1571C53.1725 28.1793 54.0331 29.0166 55.0703 29.5734C56.9049 30.548 59.0616 30.7125 61.0228 30.0269C61.7687 29.7894 62.467 29.4241 63.0885 28.9475C63.3324 28.783 63.4789 28.5066 63.4797 28.2119C63.4686 27.8807 63.3063 27.5725 63.0386 27.3779C62.8344 27.2055 62.5723 27.1181 62.3063 27.1324C62.0141 27.1269 61.7291 27.2222 61.4995 27.4017C61.102 27.6924 60.6602 27.9164 60.1915 28.0642C58.6016 28.6138 56.8439 28.3184 55.5193 27.2802C54.6697 26.5875 54.1147 25.597 53.9666 24.5088H63.2603C63.5588 24.5191 63.8494 24.4087 64.0671 24.2022C64.277 24.0012 64.3918 23.7208 64.3839 23.4293H64.3846Z" fill="#27354E"/>
        <path fill-rule="evenodd" clip-rule="evenodd" d="M68.2713 12.092H70.1035C70.2753 12.0944 70.436 12.003 70.5223 11.8537L72.0195 9.61925L73.5524 11.8537C73.6387 12.003 73.7986 12.0944 73.9712 12.092H75.8636C75.9989 12.084 76.1074 11.9752 76.1153 11.8394C76.1145 11.7894 76.1027 11.7401 76.0797 11.6956L73.4455 7.77801L75.877 4.07724C75.9 4.03276 75.9119 3.98271 75.9126 3.93267C75.9047 3.79684 75.7963 3.68802 75.6609 3.68008H73.9142C73.7369 3.68564 73.5769 3.78652 73.4954 3.94459L72.0932 6.03605L70.7385 3.94538C70.653 3.78493 70.4883 3.68405 70.3077 3.68087H68.4748C68.3386 3.68881 68.2309 3.79764 68.223 3.93347C68.223 3.98351 68.2357 4.03276 68.2587 4.07803L70.668 7.80263L68.0552 11.6948C68.0322 11.7393 68.0196 11.7886 68.0196 11.8386C68.0267 11.9744 68.1359 12.0833 68.2713 12.0912V12.092ZM63.7076 10.4096C63.3339 10.4287 62.9697 10.292 62.7013 10.0315C62.4273 9.70901 62.2856 9.29517 62.3054 8.87179C62.2983 8.63906 62.2943 8.30703 62.2943 7.87491C62.2943 7.45154 62.2983 7.12666 62.3062 6.90186C62.2864 6.47849 62.4281 6.06464 62.7021 5.74215C62.9705 5.48161 63.3355 5.34419 63.7084 5.36405C64.0774 5.34578 64.4376 5.4832 64.7029 5.74215C64.976 6.06464 65.1177 6.47928 65.0987 6.90186C65.1146 7.34986 65.1225 7.67474 65.1225 7.87491C65.1225 8.07508 65.1146 8.40711 65.0987 8.87179C65.1177 9.29437 64.976 9.70901 64.7029 10.0315C64.4376 10.2905 64.0774 10.4271 63.7084 10.4096H63.7076ZM63.7076 12.2119C64.6704 12.2667 65.6205 11.9728 66.3846 11.3827C67.0671 10.7599 67.4463 9.86947 67.4218 8.94408C67.4376 8.49528 67.4455 8.15134 67.4455 7.91145C67.4455 7.67871 67.4376 7.33001 67.4218 6.86612C67.4455 5.93596 67.0623 5.04235 66.3735 4.42118C64.7757 3.27497 62.6292 3.27497 61.0322 4.42118C60.3426 5.04235 59.9594 5.93596 59.9839 6.86612C59.976 7.09806 59.9721 7.44677 59.9721 7.91145C59.9721 8.37534 59.976 8.72008 59.9839 8.94408C59.9586 9.87106 60.3394 10.7623 61.0259 11.3835C61.7923 11.9728 62.744 12.2667 63.7084 12.2127L63.7076 12.2119ZM54.0069 10.4684V8.58345H55.6118C55.8786 8.56915 56.1391 8.66686 56.3307 8.85352C56.6791 9.23242 56.6823 9.81625 56.3371 10.1991C56.1439 10.3874 55.881 10.4859 55.6126 10.4692H54.0061L54.0069 10.4684ZM54.0069 7.0083V5.30289H55.5041C55.7559 5.28462 56.0037 5.36881 56.193 5.53721C56.3505 5.69846 56.4353 5.91849 56.4265 6.14408C56.436 6.37602 56.3505 6.6024 56.189 6.76921C56.0029 6.9384 55.7567 7.02419 55.5065 7.00751H54.0061L54.0069 7.0083ZM52.0544 12.092H55.862C56.6775 12.146 57.4867 11.9077 58.1439 11.4192C58.6854 10.9474 58.9792 10.2507 58.9404 9.53267C58.9451 9.13233 58.828 8.74073 58.6055 8.4095C58.4044 8.09653 58.117 7.84791 57.7789 7.6946C58.0489 7.54606 58.2809 7.33557 58.4558 7.08059C58.6625 6.78986 58.7702 6.44036 58.7615 6.08371C58.801 5.40694 58.5263 4.75083 58.0188 4.30521C57.3592 3.83894 56.5596 3.61812 55.7551 3.68008H52.0544C51.9729 3.6769 51.8945 3.71026 51.8391 3.76984C51.7828 3.8302 51.7528 3.90964 51.7551 3.99225V11.7901C51.7591 11.9538 51.8905 12.0864 52.0544 12.0904V12.092Z" fill="#3D6CC2"/>
        <mask id="mask1" mask-type="alpha" maskUnits="userSpaceOnUse" x="0" y="20" width="42" height="14">
            <path d="M20.6956 28.2944L4.98942 20.3686L0.127197 22.8223L20.6956 33.2025L41.2649 22.8223L36.4027 20.3662L20.6956 28.2944Z" fill="white"/>
        </mask>
        <g mask="url(#mask1)">
            <path d="M20.6956 28.2944L4.98942 20.3686L0.127197 22.8223L20.6956 33.2025L41.2649 22.8223L36.4027 20.3662L20.6956 28.2944Z" fill="url(#paint1_linear)"/>
        </g>
        <path fill-rule="evenodd" clip-rule="evenodd" d="M25.5992 16.5652L25.0093 16.8631C24.9167 16.9036 24.8161 16.9227 24.7148 16.9179H24.714C24.6126 16.9227 24.5113 16.9036 24.4187 16.8631L16.7504 13.0003C16.5889 12.9097 16.6301 12.7691 16.7504 12.7024L17.3403 12.4053C17.5303 12.3307 17.7401 12.3307 17.9302 12.4053L25.5992 16.2674C25.7338 16.3357 25.7354 16.4834 25.5992 16.5652ZM22.06 18.3477L21.4701 18.6456C21.3767 18.6861 21.2761 18.7051 21.1748 18.7004C21.0735 18.7051 20.9721 18.6861 20.8795 18.6456L17.9302 17.1602C17.771 17.0935 17.7963 16.9219 17.9302 16.8631L18.52 16.5652C18.7092 16.4914 18.9199 16.4914 19.1099 16.5652L22.06 18.0506C22.2065 18.1221 22.1978 18.2738 22.06 18.3477ZM29.1384 14.7828L28.5493 15.0798C28.4559 15.1211 28.3553 15.1402 28.254 15.1354C28.1526 15.1402 28.0521 15.1211 27.9586 15.0798L22.6499 12.4061C22.524 12.3362 22.5002 12.1972 22.6499 12.1091L23.2397 11.8112C23.429 11.7373 23.6396 11.7373 23.8296 11.8112L29.1384 14.4849C29.2856 14.5588 29.2809 14.7017 29.1384 14.7828ZM22.6499 8.54253L23.2397 8.24545C23.429 8.17079 23.6396 8.17079 23.8296 8.24545L32.6783 12.7016C32.828 12.7747 32.824 12.9137 32.6783 12.9995L32.0885 13.2966C31.9966 13.3379 31.8953 13.3569 31.7939 13.353C31.6926 13.3577 31.592 13.3387 31.4994 13.2974L22.6499 8.83961C22.5129 8.74985 22.5073 8.60926 22.6499 8.54253Z" fill="#B0B3BD"/>
    </g>
    <defs>
        <linearGradient id="paint0_linear" x1="0.130768" y1="9.7286" x2="41.2637" y2="9.7286" gradientUnits="userSpaceOnUse">
            <stop stop-color="#5483D9" stop-opacity="0.4"/>
            <stop offset="0.399546" stop-color="#5686DD"/>
            <stop offset="1" stop-color="#5888E0"/>
        </linearGradient>
        <linearGradient id="paint1_linear" x1="0.127197" y1="22.5636" x2="41.2649" y2="22.5636" gradientUnits="userSpaceOnUse">
            <stop stop-color="#5888E0"/>
            <stop offset="1" stop-color="#1F345B"/>
        </linearGradient>
        <clipPath id="clip0">
            <rect width="185.4" height="36" fill="white"/>
        </clipPath>
    </defs>
</svg>
