<svg width="77" height="78" viewBox="0 0 77 78" fill="none" xmlns="http://www.w3.org/2000/svg">
<g id="bitcoin-btc-logo 2" clip-path="url(#clip0_15_18)" filter="url(#filter0_f_15_18)">
<g id="Layer_x0020_1">
<g id="_1421344023328">
<path id="Vector" d="M61.2816 23.7133C69.5114 36.1624 65.9844 53.124 53.4027 61.5976C40.8257 70.0672 23.9544 66.8427 15.7266 54.3932C7.49455 41.9442 11.0211 24.9821 23.5991 16.5113C36.1794 8.03796 53.0515 11.2639 61.2816 23.7137L61.2815 23.7134L61.2816 23.7133Z" fill="#F7931A"/>
<path id="Vector_2" d="M43.8073 27.437C41.5174 24.6146 38.2139 25.3764 34.6973 27.3281L31.9281 23.139L29.3516 24.8748L32.048 28.9534C31.3705 29.4096 30.687 29.8892 30.0079 30.3661L27.2942 26.26L24.7189 27.9944L27.4865 32.1829C26.9363 32.5699 26.3951 32.9493 25.8612 33.3093L25.8522 33.2964L22.2975 35.6886L24.0985 38.4116C24.0985 38.4116 25.9776 37.0943 25.9688 37.1501C27.0125 36.4475 27.7488 36.8184 28.1898 37.2691L31.3447 42.0413C31.4168 41.9932 31.5127 41.9329 31.6289 41.8757C31.543 41.9337 31.4511 41.9949 31.357 42.0596L35.7758 48.7457C35.945 49.1014 36.0946 49.7499 35.3661 50.2422C35.4183 50.2487 33.4929 51.5032 33.4929 51.5032L34.9939 54.8934L38.3471 52.6349C38.9717 52.2154 39.5926 51.8124 40.1979 51.4099L42.9998 55.646L45.574 53.9128L42.8026 49.7208C43.519 49.2593 44.2064 48.8043 44.8739 48.3539L47.6312 52.5274L50.2078 50.7915L47.4126 46.5617C51.5821 43.3982 53.9002 40.2763 51.6152 35.9969C49.7763 32.5506 47.2794 32.142 44.4342 33.2137C45.4305 31.4546 45.4878 29.4991 43.8083 27.4365L43.8072 27.4368L43.8073 27.437ZM46.191 38.9244C48.2854 42.0897 42.569 45.4193 40.8238 46.597L37.1136 40.9829C38.8607 39.807 44.0081 35.6217 46.1911 38.9243L46.191 38.9244ZM39.7569 31.8115C41.6604 34.6925 36.8694 37.4335 35.4149 38.4133L32.0496 33.322C33.5041 32.3422 37.7707 28.8073 39.7571 31.8113L39.7569 31.8115Z" fill="white"/>
</g>
</g>
</g>
<defs>
<filter id="filter0_f_15_18" x="-3.97729" y="-3.51083" width="84.9546" height="85.0216" filterUnits="userSpaceOnUse" color-interpolation-filters="sRGB">
<feFlood flood-opacity="0" result="BackgroundImageFix"/>
<feBlend mode="normal" in="SourceGraphic" in2="BackgroundImageFix" result="shape"/>
<feGaussianBlur stdDeviation="2" result="effect1_foregroundBlur_15_18"/>
</filter>
<clipPath id="clip0_15_18">
<rect width="55" height="54" fill="white" transform="translate(0.0227051 41.1787) rotate(-47.7152)"/>
</clipPath>
</defs>
</svg>
