<svg width="106" height="106" viewBox="0 0 106 106" fill="none" xmlns="http://www.w3.org/2000/svg">
<g id="bitcoin-btc-logo 3" clip-path="url(#clip0_15_23)">
<g id="Layer_x0020_1">
<g id="_1421344023328">
<path id="Vector" d="M84.0726 31.8731C95.3673 48.9584 90.5268 72.2368 73.2594 83.866C55.9986 95.4898 32.8442 91.0645 21.5522 73.9786C10.2544 56.8935 15.0942 33.6145 32.3565 21.989C49.6219 10.3601 72.7775 14.7874 84.0725 31.8737L84.0724 31.8732L84.0726 31.8731Z" fill="#F7931A"/>
<path id="Vector_2" d="M60.0906 36.9836C56.9478 33.1101 52.4141 34.1555 47.5879 36.8341L43.7874 31.0849L40.2513 33.4672L43.952 39.0647C43.0222 39.6908 42.0841 40.349 41.1521 41.0036L37.4278 35.3683L33.8935 37.7486L37.6917 43.497C36.9365 44.028 36.1939 44.5488 35.4611 45.0428L35.4487 45.0252L30.5702 48.3082L33.042 52.0453C33.042 52.0453 35.6209 50.2374 35.6088 50.3139C37.0412 49.3497 38.0516 49.8587 38.6569 50.4773L42.9867 57.0268C43.0857 56.9607 43.2173 56.8779 43.3768 56.7995C43.2589 56.879 43.1328 56.9631 43.0036 57.0518L49.068 66.2279C49.3002 66.7161 49.5056 67.6061 48.5058 68.2817C48.5774 68.2907 45.9349 70.0124 45.9349 70.0124L47.9949 74.6652L52.597 71.5655C53.4542 70.9899 54.3063 70.4367 55.137 69.8843L58.9824 75.698L62.5152 73.3194L58.7117 67.5662C59.6949 66.9328 60.6383 66.3084 61.5545 65.6903L65.3385 71.418L68.8747 69.0357L65.0385 63.2306C70.7608 58.8889 73.9422 54.6044 70.8063 48.7313C68.2825 44.0016 64.8557 43.4408 60.9509 44.9116C62.3183 42.4974 62.3969 39.8137 60.092 36.9829L60.0905 36.9833L60.0906 36.9836ZM63.362 52.749C66.2364 57.0932 58.3912 61.6627 55.996 63.2791L50.904 55.5742C53.3018 53.9604 60.3662 48.2164 63.3621 52.7489L63.362 52.749ZM54.5318 42.9872C57.1441 46.9411 50.5689 50.7029 48.5727 52.0476L43.9541 45.0602C45.9504 43.7156 51.8059 38.8641 54.5321 42.9869L54.5318 42.9872Z" fill="white"/>
</g>
</g>
</g>
<defs>
<clipPath id="clip0_15_23">
<rect width="75.4828" height="74.1104" fill="white" transform="translate(0 55.8429) rotate(-47.7152)"/>
</clipPath>
</defs>
</svg>
