<svg width="123" height="122" viewBox="0 0 123 122" fill="none" xmlns="http://www.w3.org/2000/svg">
<g id="bitcoin-btc-logo 1" clip-path="url(#clip0_15_13)">
<g id="Layer_x0020_1">
<g id="_1421344023328">
<path id="Vector" d="M121.07 75.8409C112.856 108.52 79.4867 128.408 46.536 120.258C13.5992 112.111 -6.45153 79.0109 1.76585 46.3347C9.97601 13.6522 43.3457 -6.23701 76.2862 1.90998C109.234 10.057 129.284 43.1611 121.069 75.8415L121.07 75.8409H121.07Z" fill="#F7931A"/>
<path id="Vector_2" d="M88.6164 52.2943C89.8405 44.1766 83.6095 39.813 75.0891 36.902L77.8532 25.9058L71.1046 24.2379L68.4138 34.9446C66.6397 34.5057 64.8177 34.0921 63.0068 33.6821L65.7171 22.9048L58.9727 21.2368L56.2071 32.2295C54.739 31.8979 53.2969 31.5703 51.8979 31.225L51.9057 31.1904L42.5993 28.8853L40.8041 36.0346C40.8041 36.0346 45.811 37.173 45.7054 37.2431C48.4382 37.9196 48.9324 39.714 48.8504 41.1362L45.7018 53.6635C45.89 53.7109 46.1341 53.7795 46.4034 53.8868C46.1783 53.8314 45.9387 53.7708 45.6901 53.7118L41.2769 71.2607C40.9429 72.0843 40.0952 73.3201 38.1846 72.8508C38.2522 72.948 33.2796 71.6367 33.2796 71.6367L29.929 79.2989L38.7112 81.4704C40.345 81.8768 41.9461 82.302 43.5227 82.7018L40.7301 93.8242L47.4709 95.4921L50.2365 84.4878C52.078 84.9837 53.8651 85.441 55.6146 85.8722L52.8584 96.8246L59.6073 98.4925L62.3996 87.391C73.9074 89.5512 82.5604 88.6803 86.2025 78.3561C89.1373 70.0439 86.0564 65.2495 80.0022 62.123C84.4118 61.1143 87.7332 58.2376 88.6188 52.2952L88.6167 52.2937L88.6164 52.2943ZM73.1974 73.74C71.1118 82.0521 57.0019 77.5588 52.4273 76.4321L56.1332 61.6969C60.7075 62.8296 75.3771 65.0712 73.1977 73.74H73.1974ZM75.2845 52.1739C73.382 59.7347 61.6382 55.8934 57.8286 54.9516L61.1885 41.5876C64.998 42.5295 77.2664 44.2875 75.2851 52.1739H75.2845Z" fill="white"/>
</g>
</g>
</g>
<defs>
<clipPath id="clip0_15_13">
<rect width="123" height="122" fill="white"/>
</clipPath>
</defs>
</svg>
