<svg width="80" height="80" viewBox="0 0 80 80" fill="none" xmlns="http://www.w3.org/2000/svg">
<path d="M50.7337 21.8335H19.267C18.3337 21.8335 17.467 21.8668 16.667 21.9002C8.76699 22.3668 6.66699 25.2668 6.66699 34.2668V36.2002C6.66699 38.0335 8.16699 39.5335 10.0003 39.5335H60.0003C61.8337 39.5335 63.3337 38.0335 63.3337 36.2002V34.2668C63.3337 24.3335 60.8003 21.8335 50.7337 21.8335Z" fill="#FCE34D"/>
<path d="M10.0003 44.5337C8.16699 44.5337 6.66699 46.0337 6.66699 47.867V57.567C6.66699 67.5004 9.20033 70.0004 19.267 70.0004H50.7337C60.6337 70.0004 63.2337 67.6004 63.3337 58.1004V47.867C63.3337 46.0337 61.8337 44.5337 60.0003 44.5337H10.0003ZM23.2003 61.867H17.5003C16.1337 61.867 15.0003 60.7337 15.0003 59.367C15.0003 58.0004 16.1337 56.867 17.5003 56.867H23.2337C24.6003 56.867 25.7337 58.0004 25.7337 59.367C25.7337 60.7337 24.6003 61.867 23.2003 61.867ZM41.8337 61.867H30.367C29.0003 61.867 27.867 60.7337 27.867 59.367C27.867 58.0004 29.0003 56.867 30.367 56.867H41.8337C43.2003 56.867 44.3337 58.0004 44.3337 59.367C44.3337 60.7337 43.2337 61.867 41.8337 61.867Z" fill="#FCE34D"/>
<path d="M73.3324 44.4336V26.9669C73.3324 16.5336 67.3657 12.0002 58.3657 12.0002H28.5991C26.0657 12.0002 23.7991 12.3669 21.7991 13.1336C20.2324 13.7002 18.8324 14.5336 17.6991 15.6336C17.0991 16.2002 17.5657 17.1336 18.4324 17.1336H54.6657C62.1657 17.1336 68.2324 23.2002 68.2324 30.7002V54.6002C68.2324 55.4336 69.1324 55.9002 69.7324 55.3002C72.0324 52.8669 73.3324 49.3002 73.3324 44.4336Z" fill="#FCE34D"/>
</svg>
