<svg width="535" height="340" viewBox="0 0 535 340" fill="none" xmlns="http://www.w3.org/2000/svg">
<path d="M534.41 22V317.07C534.41 322.905 532.092 328.501 527.966 332.626C523.841 336.752 518.245 339.07 512.41 339.07H22C16.1652 339.07 10.5694 336.752 6.4436 332.626C2.3178 328.501 0 322.905 0 317.07V22C0 16.1652 2.3178 10.5694 6.4436 6.44364C10.5694 2.31784 16.1652 9.09161e-06 22 9.09161e-06H512.39C515.281 -0.00261888 518.144 0.564497 520.815 1.66892C523.487 2.77335 525.914 4.39344 527.959 6.43659C530.004 8.47974 531.627 10.9059 532.733 13.5763C533.84 16.2468 534.41 19.1092 534.41 22Z" fill="url(#paint0_linear_202_1408)"/>
<path d="M493.96 41.6C493.953 42.791 493.768 43.9742 493.41 45.11C493.352 45.274 493.258 45.4229 493.135 45.5458C493.013 45.6687 492.864 45.7624 492.7 45.82C492.516 45.8801 492.321 45.8986 492.129 45.8744C491.937 45.8502 491.753 45.7838 491.59 45.68L491.39 45.55C491.17 45.4057 491.004 45.194 490.916 44.9469C490.827 44.6997 490.822 44.4306 490.9 44.18C491.514 42.2336 491.418 40.1325 490.63 38.25C490.514 37.9902 490.492 37.6981 490.569 37.4242C490.646 37.1504 490.816 36.9119 491.05 36.75L491.25 36.64C491.396 36.5456 491.561 36.4826 491.733 36.4551C491.905 36.4276 492.081 36.436 492.25 36.48C492.41 36.5223 492.559 36.5999 492.685 36.7072C492.811 36.8145 492.912 36.9487 492.98 37.1C493.616 38.5155 493.949 40.0482 493.96 41.6Z" fill="white"/>
<path d="M500.57 41.6C500.578 44.1009 500.057 46.5751 499.04 48.86C498.97 49.0279 498.864 49.1782 498.729 49.3002C498.594 49.4221 498.434 49.5127 498.26 49.5653C498.086 49.6179 497.902 49.6312 497.722 49.6044C497.543 49.5775 497.371 49.5111 497.22 49.41L497.04 49.28C496.805 49.1263 496.632 48.8944 496.551 48.6254C496.471 48.3564 496.488 48.0675 496.6 47.81C497.467 45.8546 497.913 43.7389 497.91 41.6C497.906 39.1661 497.327 36.7676 496.22 34.6C496.093 34.342 496.066 34.0465 496.144 33.7699C496.221 33.4933 496.398 33.2549 496.64 33.1L496.84 32.96C496.988 32.8689 497.153 32.8087 497.324 32.7829C497.496 32.7571 497.672 32.7664 497.84 32.81C498.011 32.8547 498.17 32.9348 498.308 33.045C498.446 33.1553 498.559 33.2932 498.64 33.45C499.917 35.9763 500.579 38.7691 500.57 41.6Z" fill="white"/>
<path d="M507.57 41.6C507.576 45.4818 506.672 49.3111 504.93 52.78C504.852 52.9406 504.742 53.0831 504.606 53.1985C504.469 53.3139 504.311 53.3995 504.14 53.45C503.97 53.4936 503.793 53.5001 503.62 53.4691C503.448 53.438 503.284 53.3701 503.14 53.27L502.96 53.16C502.707 52.9851 502.528 52.7225 502.458 52.4232C502.387 52.1238 502.431 51.8091 502.58 51.54C504.13 48.4572 504.929 45.0508 504.91 41.6C504.91 37.8155 503.95 34.0928 502.12 30.78C501.981 30.5163 501.948 30.21 502.025 29.9225C502.103 29.635 502.287 29.3876 502.54 29.23L502.72 29.09C502.915 28.9596 503.145 28.89 503.38 28.89C503.478 28.8969 503.575 28.9137 503.67 28.94C503.842 28.9861 504.004 29.0666 504.145 29.1765C504.286 29.2865 504.403 29.4237 504.49 29.58C506.516 33.2617 507.576 37.3974 507.57 41.6Z" fill="white"/>
<path d="M514.28 41.6C514.273 46.8337 512.979 51.9853 510.51 56.6C510.438 56.7452 510.334 56.8721 510.206 56.9709C510.078 57.0697 509.929 57.1378 509.77 57.17C509.601 57.2193 509.424 57.2296 509.25 57.2001C509.077 57.1707 508.913 57.1022 508.77 57L508.57 56.86C508.313 56.6882 508.131 56.4255 508.061 56.1248C507.99 55.8242 508.036 55.508 508.19 55.24C510.415 51.0372 511.582 46.3554 511.59 41.6C511.591 36.5436 510.267 31.5752 507.75 27.19C507.585 26.9131 507.533 26.5837 507.603 26.2694C507.674 25.955 507.863 25.6797 508.13 25.5L508.3 25.39C508.506 25.2593 508.746 25.19 508.99 25.19C509.08 25.1801 509.17 25.1801 509.26 25.19C509.414 25.2269 509.559 25.2959 509.685 25.3923C509.81 25.4888 509.914 25.6107 509.99 25.75C512.796 30.561 514.277 36.0303 514.28 41.6Z" fill="white"/>
<path d="M59.3299 205.28C58.9653 204.958 58.496 204.781 58.0098 204.78C56.7098 204.78 56.0431 205.65 56.0098 207.39V214.76H52.1299V187.99H43.0298C42.6484 187.945 42.2617 187.98 41.8947 188.094C41.5277 188.207 41.1888 188.397 40.8998 188.65C40.5746 189.004 40.3959 189.469 40.3998 189.95C40.3965 190.302 40.4899 190.648 40.6698 190.95C40.83 191.259 41.0861 191.509 41.3998 191.66C41.9147 191.876 42.4729 191.968 43.0298 191.93H48.1999V214.76H43.0298C42.6491 214.713 42.2627 214.747 41.8958 214.859C41.5289 214.971 41.1896 215.159 40.8998 215.41C40.5722 215.767 40.3934 216.236 40.3998 216.72C40.4005 217.071 40.4936 217.416 40.6698 217.72C40.8354 218.025 41.09 218.273 41.3998 218.43C41.9169 218.638 42.4733 218.73 43.0298 218.7H58.1099C58.4707 218.694 58.8205 218.575 59.1099 218.36C59.3772 218.154 59.5879 217.884 59.7226 217.574C59.8572 217.265 59.9114 216.926 59.8799 216.59V207.37C59.9353 207.003 59.9151 206.628 59.8205 206.268C59.7259 205.909 59.559 205.573 59.3299 205.28Z" fill="white"/>
<path d="M81.1998 205.37C81.7095 205.385 82.2171 205.298 82.6927 205.114C83.1684 204.931 83.6026 204.654 83.9698 204.3C84.3532 203.922 84.6562 203.47 84.8607 202.971C85.0652 202.473 85.1669 201.939 85.1598 201.4V192.15C85.1817 191.601 85.0939 191.052 84.9016 190.537C84.7093 190.022 84.4163 189.551 84.0398 189.15C83.6756 188.764 83.2348 188.459 82.7457 188.254C82.2566 188.05 81.73 187.949 81.1998 187.96H68.2598C67.8767 187.914 67.4883 187.949 67.1196 188.062C66.7509 188.176 66.4103 188.366 66.1199 188.62C65.798 188.977 65.6199 189.44 65.6199 189.92C65.6166 190.272 65.7098 190.618 65.8898 190.92C66.0499 191.229 66.3061 191.479 66.6199 191.63C67.138 191.847 67.6995 191.939 68.2598 191.9H81.1998V201.37H69.5698C69.0582 201.351 68.5481 201.437 68.0703 201.62C67.5925 201.804 67.1569 202.083 66.7898 202.44C66.3973 202.812 66.0876 203.262 65.8808 203.762C65.6741 204.262 65.575 204.799 65.5898 205.34V218.69H82.5698C83.1265 218.722 83.6833 218.63 84.1998 218.42C84.518 218.267 84.7832 218.023 84.9614 217.718C85.1396 217.413 85.2226 217.062 85.1998 216.71C85.2269 216.36 85.1455 216.01 84.9665 215.707C84.7876 215.405 84.5199 215.165 84.1998 215.02C83.6839 214.808 83.1266 214.716 82.5698 214.75H69.5698V205.37H81.1998Z" fill="white"/>
<path d="M109.89 204.93C109.605 204.354 109.234 203.824 108.79 203.36C109.253 202.926 109.62 202.401 109.868 201.817C110.116 201.233 110.239 200.604 110.23 199.97V191.37C110.233 190.898 110.126 190.432 109.915 190.01C109.705 189.588 109.398 189.221 109.02 188.94C108.293 188.299 107.358 187.944 106.39 187.94H93.3896C93.0066 187.894 92.6183 187.93 92.2497 188.043C91.8811 188.157 91.5405 188.347 91.2497 188.6C90.9279 188.956 90.7497 189.42 90.7497 189.9C90.7464 190.252 90.8397 190.598 91.0196 190.9C91.1826 191.207 91.438 191.456 91.7497 191.61C92.2679 191.827 92.8294 191.919 93.3896 191.88H106.25V198.88C106.266 199.236 106.232 199.593 106.15 199.94C106.084 200.225 105.938 200.485 105.73 200.69C105.547 200.895 105.321 201.057 105.069 201.166C104.817 201.275 104.544 201.327 104.27 201.32H97.2696C96.8912 201.273 96.5071 201.307 96.1432 201.421C95.7792 201.535 95.4438 201.726 95.1597 201.98C94.8344 202.334 94.6558 202.799 94.6597 203.28C94.6507 203.631 94.7408 203.978 94.9197 204.28C95.0779 204.584 95.3259 204.832 95.6297 204.99C96.1472 205.21 96.7086 205.306 97.2696 205.27H104.21C104.511 205.256 104.811 205.307 105.09 205.419C105.37 205.531 105.622 205.702 105.83 205.92C106.184 206.41 106.36 207.006 106.33 207.61V214.69H93.3297C92.9474 214.643 92.5595 214.677 92.1909 214.788C91.8223 214.9 91.4813 215.088 91.1897 215.34C90.8704 215.702 90.6928 216.167 90.6897 216.65C90.6655 217.002 90.7479 217.354 90.9263 217.659C91.1046 217.964 91.3706 218.208 91.6897 218.36C92.2092 218.572 92.7697 218.664 93.3297 218.63H106.33C106.834 218.643 107.336 218.555 107.805 218.369C108.274 218.183 108.701 217.905 109.06 217.55C109.448 217.183 109.756 216.739 109.964 216.247C110.172 215.754 110.276 215.224 110.27 214.69V207.37C110.316 206.539 110.186 205.708 109.89 204.93Z" fill="white"/>
<path d="M133.69 204.74V194.02C133.724 193.457 133.632 192.893 133.42 192.37C133.275 192.05 133.035 191.782 132.733 191.603C132.43 191.424 132.08 191.343 131.73 191.37C131.381 191.349 131.033 191.432 130.731 191.611C130.43 191.789 130.189 192.053 130.04 192.37C129.831 192.894 129.739 193.457 129.77 194.02V204.74H121.98V190.63C122.029 190.248 121.997 189.859 121.885 189.49C121.773 189.121 121.584 188.78 121.33 188.49C121.017 188.216 120.626 188.047 120.212 188.006C119.798 187.964 119.381 188.053 119.02 188.26C118.72 188.424 118.474 188.67 118.31 188.97C118.097 189.496 118.005 190.063 118.04 190.63V208.63H129.77V216.06C129.725 216.438 129.76 216.82 129.872 217.184C129.984 217.547 130.171 217.883 130.42 218.17C130.782 218.489 131.247 218.667 131.73 218.67C132.082 218.673 132.427 218.579 132.73 218.4C133.034 218.242 133.282 217.994 133.44 217.69C133.65 217.174 133.742 216.617 133.71 216.06V208.63C134.202 208.626 134.676 208.441 135.04 208.11C135.253 207.927 135.423 207.697 135.535 207.439C135.648 207.181 135.701 206.901 135.69 206.62C135.67 205.54 135.01 204.9 133.69 204.74Z" fill="white"/>
<path d="M175.44 201.43H167.67V191.93H176.75C177.313 191.968 177.878 191.875 178.4 191.66C178.694 191.482 178.937 191.231 179.105 190.931C179.274 190.632 179.363 190.294 179.363 189.95C179.363 189.606 179.274 189.268 179.105 188.969C178.937 188.669 178.694 188.418 178.4 188.24C177.873 188.045 177.311 187.96 176.75 187.99H163.75V205.37H175.42V214.79H166.89H166.5C166.099 214.781 165.702 214.699 165.33 214.55L163.2 213.55C162.741 213.32 162.242 213.181 161.73 213.14C161.469 213.139 161.211 213.198 160.976 213.31C160.74 213.423 160.533 213.587 160.37 213.79C160.192 213.986 160.057 214.216 159.971 214.466C159.886 214.716 159.854 214.981 159.875 215.245C159.897 215.508 159.972 215.765 160.097 215.998C160.221 216.231 160.393 216.436 160.6 216.6C160.91 216.817 161.246 216.995 161.6 217.13L164.01 218.21C164.773 218.497 165.576 218.666 166.39 218.71H175.39C175.932 218.724 176.471 218.618 176.968 218.398C177.464 218.179 177.905 217.851 178.26 217.44C178.947 216.722 179.327 215.764 179.32 214.77V205.37C179.327 204.853 179.229 204.34 179.034 203.861C178.839 203.382 178.549 202.948 178.183 202.583C177.816 202.218 177.38 201.931 176.9 201.738C176.42 201.545 175.907 201.451 175.39 201.46L175.44 201.43Z" fill="white"/>
<path d="M204.07 205.23C203.898 205.039 203.688 204.886 203.454 204.781C203.22 204.676 202.966 204.621 202.71 204.62H189.02V191.9C190.32 191.76 191.02 191.13 191.02 190C191.026 189.504 190.848 189.022 190.52 188.65C190.34 188.439 190.116 188.271 189.864 188.157C189.611 188.043 189.337 187.986 189.06 187.99H187.06C186.568 187.977 186.091 188.157 185.73 188.49C185.539 188.663 185.387 188.874 185.285 189.111C185.183 189.347 185.134 189.603 185.14 189.86V216.68C185.134 216.941 185.18 217.2 185.276 217.442C185.372 217.684 185.516 217.905 185.7 218.09C185.892 218.289 186.124 218.447 186.381 218.552C186.637 218.657 186.913 218.707 187.19 218.7H202.57C202.856 218.707 203.14 218.654 203.405 218.546C203.67 218.437 203.91 218.275 204.11 218.07C204.462 217.694 204.656 217.196 204.65 216.68V206.74C204.664 206.462 204.619 206.184 204.519 205.924C204.419 205.664 204.266 205.427 204.07 205.23ZM200.69 214.76H189.02V208.55H200.69V214.76Z" fill="white"/>
<path d="M212.42 187.99C211.01 187.99 210.32 188.8 210.32 190.28V191.37C210.301 191.83 210.398 192.287 210.6 192.7C210.754 193.022 211.002 193.289 211.31 193.467C211.619 193.646 211.974 193.727 212.33 193.7C213.39 193.7 214.01 193.11 214.19 191.93H225.96V197.87C225.978 198.241 225.938 198.612 225.84 198.97C225.659 199.344 225.387 199.667 225.05 199.91L218.84 205.24C218.596 205.44 218.407 205.698 218.29 205.99C218.22 206.234 218.186 206.486 218.19 206.74V216.09C218.143 216.468 218.176 216.851 218.288 217.215C218.4 217.579 218.588 217.914 218.84 218.2C219.202 218.519 219.667 218.697 220.15 218.7C220.502 218.703 220.847 218.609 221.15 218.43C221.455 218.266 221.708 218.02 221.88 217.72C222.076 217.2 222.161 216.645 222.13 216.09V208.6C222.113 208.292 222.168 207.984 222.29 207.7C222.436 207.426 222.637 207.184 222.88 206.99L229.17 201.6C229.437 201.383 229.644 201.1 229.77 200.78C229.859 200.499 229.897 200.204 229.88 199.91V187.99H212.42Z" fill="white"/>
<path d="M254.09 202.78C253.707 202.363 253.244 202.027 252.728 201.791C252.213 201.556 251.656 201.426 251.09 201.41V190.11C251.117 189.581 250.934 189.064 250.58 188.67C250.403 188.452 250.178 188.277 249.924 188.16C249.669 188.042 249.39 187.984 249.11 187.99H241.43C241.127 187.981 240.826 188.044 240.552 188.172C240.278 188.301 240.037 188.492 239.85 188.73C239.551 189.127 239.396 189.613 239.41 190.11V201.37C238.459 201.42 237.549 201.77 236.81 202.37C236.381 202.722 236.038 203.167 235.808 203.671C235.577 204.175 235.465 204.726 235.48 205.28V214.93C235.486 215.418 235.591 215.899 235.787 216.345C235.982 216.792 236.266 217.195 236.62 217.53C237.322 218.229 238.269 218.627 239.26 218.64H251.09C252.093 218.657 253.062 218.28 253.79 217.59C254.183 217.219 254.496 216.771 254.708 216.274C254.919 215.776 255.026 215.241 255.02 214.7V205.5C255.039 204.512 254.71 203.549 254.09 202.78ZM243.36 191.93H247.17V201.37H243.36V191.93ZM251.1 214.76H239.42V205.37H251.1V214.76Z" fill="white"/>
<path d="M298.31 188.61C298.116 188.406 297.881 188.246 297.621 188.139C297.361 188.032 297.081 187.981 296.8 187.99H281.4C281.112 187.98 280.826 188.031 280.56 188.142C280.294 188.252 280.055 188.419 279.86 188.63C279.513 189.005 279.324 189.499 279.33 190.01V199.94C279.302 200.493 279.493 201.035 279.86 201.45C280.034 201.639 280.246 201.79 280.482 201.894C280.718 201.997 280.972 202.05 281.23 202.05H294.92V214.79C293.61 214.92 292.92 215.56 292.92 216.7C292.916 217.193 293.094 217.67 293.42 218.04C293.601 218.249 293.825 218.417 294.077 218.531C294.329 218.645 294.603 218.702 294.88 218.7H296.88C297.368 218.712 297.842 218.533 298.2 218.2C298.392 218.028 298.545 217.817 298.649 217.58C298.752 217.344 298.804 217.088 298.8 216.83V190.01C298.814 189.756 298.779 189.501 298.695 189.261C298.611 189.021 298.48 188.8 298.31 188.61ZM294.92 198.13H283.25V191.93H294.92V198.13Z" fill="white"/>
<path d="M322.92 189.15C322.568 188.776 322.141 188.479 321.668 188.28C321.194 188.08 320.684 187.981 320.17 187.99H308.46C307.952 187.982 307.447 188.078 306.978 188.272C306.508 188.467 306.084 188.755 305.73 189.12C305.354 189.484 305.057 189.921 304.856 190.404C304.654 190.888 304.554 191.407 304.56 191.93V214.76C304.552 215.287 304.653 215.811 304.856 216.298C305.059 216.784 305.36 217.224 305.74 217.59C306.075 217.936 306.476 218.213 306.919 218.403C307.362 218.594 307.838 218.695 308.32 218.7H320.17C320.688 218.701 321.201 218.598 321.679 218.397C322.156 218.196 322.589 217.901 322.95 217.53C323.305 217.212 323.589 216.824 323.785 216.39C323.981 215.956 324.085 215.486 324.09 215.01V192.13C324.105 191.58 324.009 191.033 323.808 190.521C323.607 190.009 323.305 189.543 322.92 189.15ZM320.17 214.76H308.46V191.93H320.17V214.76Z" fill="white"/>
<path d="M348.66 205.28C348.295 204.958 347.826 204.781 347.34 204.78C346.04 204.78 345.4 205.65 345.4 207.39V214.76H341.51V187.99H332.42C332.038 187.943 331.651 187.977 331.284 188.091C330.917 188.205 330.578 188.395 330.29 188.65C330.008 188.957 329.833 189.346 329.79 189.76C329.746 190.175 329.838 190.592 330.05 190.95C330.211 191.262 330.471 191.512 330.79 191.66C331.304 191.878 331.863 191.971 332.42 191.93H337.57V214.76H332.4C332.019 214.711 331.632 214.744 331.265 214.856C330.898 214.968 330.559 215.157 330.27 215.41C329.939 215.766 329.757 216.234 329.76 216.72C329.76 217.071 329.854 217.416 330.03 217.72C330.196 218.028 330.455 218.276 330.77 218.43C331.286 218.64 331.843 218.732 332.4 218.7H347.48C347.84 218.693 348.19 218.574 348.48 218.36C348.742 218.15 348.95 217.879 349.084 217.57C349.218 217.262 349.275 216.925 349.25 216.59V207.37C349.302 207 349.277 206.623 349.175 206.263C349.073 205.903 348.898 205.568 348.66 205.28Z" fill="white"/>
<path d="M370.57 205.37C371.08 205.386 371.587 205.299 372.063 205.115C372.539 204.931 372.973 204.654 373.34 204.3C373.725 203.924 374.029 203.472 374.232 202.973C374.435 202.474 374.533 201.939 374.52 201.4V192.15C374.543 191.602 374.457 191.055 374.268 190.54C374.08 190.026 373.791 189.553 373.42 189.15C373.053 188.765 372.611 188.46 372.12 188.255C371.629 188.05 371.101 187.95 370.57 187.96H357.57C357.188 187.913 356.801 187.947 356.434 188.061C356.067 188.175 355.728 188.365 355.44 188.62C355.166 188.931 354.997 189.32 354.954 189.732C354.911 190.144 354.997 190.559 355.2 190.92C355.361 191.232 355.621 191.482 355.94 191.63C356.454 191.848 357.013 191.941 357.57 191.9H370.57V201.37H358.97C358.457 201.354 357.946 201.44 357.467 201.624C356.988 201.808 356.55 202.085 356.18 202.44C355.793 202.816 355.489 203.267 355.286 203.766C355.083 204.266 354.985 204.801 355 205.34V218.69H371.91C372.47 218.723 373.03 218.631 373.55 218.42C373.869 218.268 374.135 218.024 374.313 217.719C374.492 217.414 374.574 217.063 374.55 216.71C374.577 216.36 374.496 216.01 374.317 215.707C374.138 215.405 373.87 215.165 373.55 215.02C373.031 214.805 372.47 214.713 371.91 214.75H358.97V205.37H370.57Z" fill="white"/>
<path d="M417.84 204.93C417.56 204.354 417.192 203.824 416.75 203.36C417.212 202.926 417.577 202.4 417.824 201.816C418.07 201.233 418.191 200.604 418.18 199.97V191.37C418.183 190.898 418.076 190.433 417.865 190.01C417.655 189.588 417.348 189.221 416.97 188.94C416.243 188.299 415.309 187.944 414.34 187.94H401.34C400.958 187.895 400.572 187.93 400.205 188.044C399.838 188.157 399.499 188.347 399.21 188.6C398.937 188.911 398.767 189.3 398.724 189.712C398.681 190.124 398.767 190.539 398.97 190.9C399.134 191.21 399.393 191.459 399.71 191.61C400.224 191.827 400.783 191.919 401.34 191.88H414.2V198.88C414.217 199.236 414.187 199.592 414.11 199.94C414.04 200.225 413.891 200.485 413.68 200.69C413.497 200.895 413.272 201.057 413.019 201.166C412.767 201.275 412.494 201.327 412.22 201.32H405.22C404.842 201.274 404.458 201.309 404.094 201.423C403.73 201.537 403.395 201.727 403.11 201.98C402.788 202.337 402.61 202.8 402.61 203.28C402.605 203.632 402.698 203.979 402.88 204.28C403.035 204.586 403.284 204.835 403.59 204.99C404.104 205.21 404.662 205.306 405.22 205.27H412.22C412.519 205.258 412.817 205.31 413.095 205.422C413.372 205.534 413.623 205.704 413.83 205.92C414.184 206.41 414.36 207.006 414.33 207.61V214.69H401.33C400.949 214.643 400.563 214.677 400.196 214.789C399.829 214.901 399.49 215.089 399.2 215.34C398.872 215.697 398.693 216.166 398.7 216.65C398.676 217.003 398.758 217.354 398.937 217.659C399.115 217.964 399.381 218.208 399.7 218.36C400.216 218.572 400.773 218.664 401.33 218.63H414.33C414.834 218.645 415.337 218.556 415.806 218.371C416.275 218.185 416.702 217.906 417.06 217.55C417.448 217.183 417.756 216.739 417.964 216.247C418.173 215.754 418.277 215.224 418.27 214.69V207.37C418.3 206.535 418.154 205.704 417.84 204.93Z" fill="white"/>
<path d="M441.64 204.74V194.02C441.674 193.457 441.582 192.893 441.37 192.37C441.224 192.051 440.984 191.784 440.682 191.605C440.38 191.426 440.03 191.344 439.68 191.37C439.331 191.35 438.983 191.434 438.682 191.612C438.381 191.79 438.14 192.054 437.99 192.37C437.781 192.894 437.689 193.457 437.72 194.02V204.74H429.94V190.63C429.988 190.247 429.954 189.858 429.84 189.489C429.727 189.12 429.536 188.779 429.28 188.49C428.967 188.216 428.576 188.047 428.162 188.006C427.748 187.964 427.331 188.053 426.97 188.26C426.67 188.424 426.424 188.67 426.26 188.97C426.053 189.498 425.961 190.064 425.99 190.63V208.63H437.72V216.06C437.678 216.437 437.714 216.82 437.826 217.183C437.937 217.546 438.123 217.882 438.37 218.17C438.732 218.489 439.197 218.667 439.68 218.67C440.032 218.675 440.378 218.582 440.68 218.4C440.982 218.239 441.229 217.992 441.39 217.69C441.6 217.174 441.692 216.617 441.66 216.06V208.63C442.153 208.632 442.629 208.446 442.99 208.11C443.202 207.925 443.37 207.696 443.482 207.438C443.595 207.18 443.649 206.901 443.64 206.62C443.62 205.54 442.96 204.9 441.64 204.74Z" fill="white"/>
<path d="M464.78 201.43H457.01V191.93H466.09C466.653 191.966 467.217 191.874 467.74 191.66C468.034 191.482 468.277 191.231 468.445 190.931C468.614 190.632 468.703 190.294 468.703 189.95C468.703 189.606 468.614 189.268 468.445 188.969C468.277 188.669 468.034 188.418 467.74 188.24C467.212 188.047 466.651 187.962 466.09 187.99H453.09V205.37H464.76V214.79H456.22H455.84C455.435 214.782 455.036 214.7 454.66 214.55L452.53 213.55C452.075 213.32 451.579 213.18 451.07 213.14C450.808 213.139 450.548 213.197 450.311 213.31C450.074 213.422 449.865 213.586 449.7 213.79C449.377 214.145 449.201 214.61 449.21 215.09C449.2 215.381 449.261 215.67 449.386 215.933C449.512 216.195 449.698 216.424 449.93 216.6C450.242 216.814 450.578 216.991 450.93 217.13L453.34 218.21C454.103 218.498 454.906 218.667 455.72 218.71H464.72C465.261 218.724 465.799 218.618 466.293 218.398C466.788 218.178 467.228 217.851 467.58 217.44C468.271 216.724 468.652 215.765 468.64 214.77V205.37C468.654 204.856 468.561 204.345 468.369 203.868C468.176 203.392 467.887 202.96 467.52 202.6C467.166 202.23 466.741 201.936 466.27 201.734C465.799 201.533 465.292 201.43 464.78 201.43Z" fill="white"/>
<path d="M493.41 205.23C493.236 205.039 493.025 204.886 492.789 204.781C492.553 204.676 492.298 204.621 492.04 204.62H478.35V191.9C479.66 191.76 480.35 191.13 480.35 190C480.356 189.504 480.178 189.022 479.85 188.65C479.668 188.44 479.442 188.271 479.188 188.157C478.934 188.043 478.658 187.986 478.38 187.99H476.38C475.889 187.981 475.413 188.16 475.05 188.49C474.86 188.664 474.71 188.876 474.608 189.112C474.506 189.348 474.456 189.603 474.46 189.86V216.68C474.46 216.948 474.513 217.213 474.617 217.459C474.722 217.706 474.874 217.929 475.067 218.116C475.259 218.302 475.486 218.448 475.736 218.545C475.985 218.642 476.252 218.688 476.52 218.68H491.92C492.206 218.685 492.49 218.631 492.754 218.523C493.019 218.415 493.259 218.254 493.46 218.05C493.812 217.674 494.006 217.176 494 216.66V206.72C494.009 206.444 493.962 206.17 493.86 205.913C493.759 205.657 493.605 205.424 493.41 205.23ZM490.02 214.76H478.35V208.55H490.02V214.76Z" fill="white"/>
<path d="M42.9996 263.043H45.0364V259.181C45.0364 258.267 45.3758 257.81 46.0547 257.81C46.3102 257.81 46.5421 257.897 46.7505 258.072C46.9723 258.267 47.0832 258.633 47.0832 259.171V264.001C47.0832 264.424 46.9488 264.734 46.6799 264.928C46.5186 265.049 46.3371 265.11 46.1354 265.11H38.2303C37.8472 265.11 37.5615 265.063 37.3733 264.969C37.2187 264.895 37.0909 264.771 36.9901 264.596C36.896 264.434 36.849 264.26 36.849 264.071C36.849 263.816 36.9363 263.587 37.1111 263.386C37.306 263.157 37.6791 263.043 38.2303 263.043H40.9427V251.074H38.2303C37.8404 251.074 37.5548 251.027 37.3733 250.933C37.2187 250.859 37.0909 250.735 36.9901 250.56C36.896 250.399 36.849 250.224 36.849 250.036C36.849 249.78 36.9363 249.552 37.1111 249.35C37.306 249.122 37.6791 249.007 38.2303 249.007H42.9996V263.043ZM53.7985 258.112V263.043H60.5844C60.9675 263.043 61.2532 263.09 61.4414 263.184C61.7842 263.352 61.9556 263.648 61.9556 264.071C61.9556 264.495 61.7842 264.794 61.4414 264.969C61.2599 265.063 60.9742 265.11 60.5844 265.11H51.7113V258.112C51.7113 257.501 51.9197 256.993 52.3365 256.59C52.7263 256.213 53.2137 256.025 53.7985 256.025H59.8785V251.074H53.0927C52.7028 251.074 52.4171 251.027 52.2356 250.933C52.081 250.859 51.9533 250.735 51.8525 250.56C51.7584 250.399 51.7113 250.224 51.7113 250.036C51.7113 249.78 51.7987 249.552 51.9735 249.35C52.1684 249.122 52.5415 249.007 53.0927 249.007H59.8785C60.4701 249.007 60.9675 249.216 61.3708 249.633C61.7607 250.049 61.9556 250.564 61.9556 251.175V256.025C61.9556 256.623 61.7473 257.131 61.3305 257.548C60.9406 257.924 60.4566 258.112 59.8785 258.112H53.7985ZM76.5357 250.873L68.7012 264.293C68.56 264.542 68.4424 264.713 68.3483 264.807C68.1533 265.009 67.9181 265.11 67.6425 265.11C67.3332 265.11 67.0778 264.996 66.8761 264.767C66.7014 264.566 66.614 264.354 66.614 264.132C66.614 263.903 66.7182 263.611 66.9266 263.255L74.7611 249.834C74.9022 249.586 75.0199 249.414 75.114 249.32C75.3089 249.112 75.5442 249.007 75.8198 249.007C76.129 249.007 76.3844 249.125 76.5861 249.36C76.7609 249.555 76.8482 249.767 76.8482 249.996C76.8482 250.217 76.7441 250.51 76.5357 250.873ZM83.5635 258.112V263.043H90.3494C90.7325 263.043 91.0182 263.09 91.2064 263.184C91.5493 263.352 91.7207 263.648 91.7207 264.071C91.7207 264.495 91.5493 264.794 91.2064 264.969C91.025 265.063 90.7393 265.11 90.3494 265.11H81.4763V258.112C81.4763 257.501 81.6847 256.993 82.1015 256.59C82.4914 256.213 82.9787 256.025 83.5635 256.025H89.6436V251.074H82.8577C82.4678 251.074 82.1822 251.027 82.0007 250.933C81.8461 250.859 81.7183 250.735 81.6175 250.56C81.5234 250.399 81.4763 250.224 81.4763 250.036C81.4763 249.78 81.5637 249.552 81.7385 249.35C81.9334 249.122 82.3065 249.007 82.8577 249.007H89.6436C90.2351 249.007 90.7325 249.216 91.1359 249.633C91.5257 250.049 91.7207 250.564 91.7207 251.175V256.025C91.7207 256.623 91.5123 257.131 91.0955 257.548C90.7057 257.924 90.2217 258.112 89.6436 258.112H83.5635ZM99.4745 257.79H103.558V252.163C103.558 251.78 103.605 251.495 103.699 251.306C103.874 250.964 104.17 250.792 104.587 250.792C105.01 250.792 105.306 250.964 105.474 251.306C105.568 251.488 105.615 251.774 105.615 252.163V257.79C106.307 257.877 106.654 258.21 106.654 258.788C106.654 259.111 106.539 259.373 106.311 259.574C106.102 259.756 105.871 259.847 105.615 259.847V263.739C105.615 264.129 105.568 264.414 105.474 264.596C105.4 264.744 105.276 264.868 105.101 264.969C104.94 265.063 104.768 265.11 104.587 265.11C104.331 265.11 104.103 265.023 103.901 264.848C103.672 264.646 103.558 264.276 103.558 263.739V259.847H97.4075V250.389C97.4075 249.992 97.4545 249.703 97.5487 249.522C97.6226 249.374 97.747 249.249 97.9217 249.149C98.0831 249.054 98.2578 249.007 98.446 249.007C98.7015 249.007 98.93 249.095 99.1317 249.27C99.3602 249.465 99.4745 249.838 99.4745 250.389V257.79Z" fill="white"/>
<path d="M45.0263 287.201V276.019C45.0263 275.629 45.07 275.343 45.1573 275.162C45.238 275.014 45.3657 274.889 45.5405 274.789C45.6951 274.694 45.8632 274.647 46.0447 274.647C46.737 274.647 47.0832 275.105 47.0832 276.019V290.75H44.3507L38.8958 278.328V289.379C38.8958 289.769 38.8487 290.054 38.7546 290.236C38.5799 290.579 38.2841 290.75 37.8673 290.75C37.6186 290.75 37.3867 290.663 37.1716 290.488C36.9431 290.293 36.8288 289.923 36.8288 289.379V274.647H39.5814L45.0263 287.201ZM53.7884 288.683H60.5944C60.9843 288.683 61.2734 288.73 61.4616 288.824C61.8044 288.992 61.9758 289.288 61.9758 289.711C61.9758 290.135 61.8044 290.434 61.4616 290.609C61.2734 290.703 60.9843 290.75 60.5944 290.75H51.7214V274.647H60.5944C60.991 274.647 61.2801 274.691 61.4616 274.779C61.6095 274.859 61.7338 274.987 61.8346 275.162C61.9288 275.323 61.9758 275.494 61.9758 275.676C61.9758 276.099 61.8044 276.399 61.4616 276.573C61.2734 276.667 60.9843 276.714 60.5944 276.714H53.7884V281.685H56.5511C57.4653 281.685 57.9224 282.028 57.9224 282.714C57.9224 283.406 57.4653 283.752 56.5511 283.752H53.7884V288.683ZM70.6774 276.714H68.6608V277.118C68.6608 277.508 68.6138 277.793 68.5197 277.975C68.3449 278.318 68.0458 278.489 67.6223 278.489C67.2055 278.489 66.9098 278.318 66.735 277.975C66.6409 277.787 66.5938 277.501 66.5938 277.118V274.647H76.8382V277.108L76.8482 277.289V277.4C76.8482 277.743 76.734 278.015 76.5054 278.217C76.3038 278.398 76.0752 278.489 75.8198 278.489C75.5643 278.489 75.3324 278.398 75.124 278.217C74.8955 278.022 74.7812 277.656 74.7812 277.118V276.714H72.7445V289.369C72.7445 289.765 72.7008 290.054 72.6134 290.236C72.5327 290.384 72.405 290.508 72.2302 290.609C72.0689 290.703 71.8941 290.75 71.7059 290.75C71.4505 290.75 71.2219 290.663 71.0203 290.488C70.7917 290.293 70.6774 289.92 70.6774 289.369V276.714ZM83.5534 288.683H90.3595C90.7494 288.683 91.0384 288.73 91.2266 288.824C91.5694 288.992 91.7408 289.288 91.7408 289.711C91.7408 290.135 91.5694 290.434 91.2266 290.609C91.0384 290.703 90.7494 290.75 90.3595 290.75H81.4864V274.647H90.3595C90.7561 274.647 91.0451 274.691 91.2266 274.779C91.3745 274.859 91.4989 274.987 91.5997 275.162C91.6938 275.323 91.7408 275.494 91.7408 275.676C91.7408 276.099 91.5694 276.399 91.2266 276.573C91.0384 276.667 90.7494 276.714 90.3595 276.714H83.5534V281.685H86.3162C87.2304 281.685 87.6875 282.028 87.6875 282.714C87.6875 283.406 87.2304 283.752 86.3162 283.752H83.5534V288.683ZM101.501 284.751L98.4662 289.923C98.3183 290.172 98.2007 290.343 98.1133 290.437C97.9184 290.646 97.6831 290.75 97.4075 290.75C97.0983 290.75 96.8395 290.632 96.6311 290.397C96.4563 290.195 96.3689 289.984 96.3689 289.762C96.3689 289.533 96.4731 289.241 96.6815 288.885L100.301 282.714L96.6815 276.513C96.4731 276.15 96.3689 275.854 96.3689 275.625C96.3689 275.363 96.4832 275.128 96.7118 274.92C96.9067 274.738 97.1386 274.647 97.4075 274.647C97.7167 274.647 97.9789 274.782 98.194 275.051C98.2477 275.118 98.3351 275.259 98.4561 275.474L101.501 280.657L104.526 275.474C104.667 275.226 104.785 275.054 104.879 274.96C105.074 274.752 105.309 274.647 105.585 274.647C105.894 274.647 106.149 274.762 106.351 274.99C106.526 275.192 106.613 275.407 106.613 275.636C106.613 275.857 106.509 276.146 106.301 276.503L102.691 282.714L106.301 288.885C106.509 289.241 106.613 289.533 106.613 289.762C106.613 290.031 106.499 290.269 106.27 290.478C106.076 290.659 105.847 290.75 105.585 290.75C105.269 290.75 105 290.616 104.778 290.347C104.724 290.273 104.637 290.132 104.516 289.923L101.501 284.751ZM128.766 282.684L135.794 288.713C136.21 289.069 136.419 289.402 136.419 289.711C136.419 289.974 136.335 290.202 136.167 290.397C135.958 290.646 135.696 290.77 135.38 290.77C135.138 290.77 134.829 290.605 134.452 290.276L128.211 284.932V289.379C128.211 289.762 128.164 290.048 128.07 290.236C127.996 290.384 127.872 290.508 127.697 290.609C127.536 290.703 127.364 290.75 127.183 290.75C126.927 290.75 126.695 290.659 126.487 290.478C126.258 290.283 126.144 289.916 126.144 289.379V276.019C126.144 275.105 126.49 274.647 127.183 274.647C127.606 274.647 127.902 274.819 128.07 275.162C128.164 275.343 128.211 275.629 128.211 276.019V280.435L134.463 275.121C134.826 274.792 135.135 274.627 135.39 274.627C135.699 274.627 135.958 274.752 136.167 275C136.328 275.195 136.409 275.424 136.409 275.686C136.409 276.002 136.204 276.335 135.794 276.684L128.766 282.684ZM149.234 285.507H147.52C147.13 285.507 146.841 285.46 146.653 285.366C146.31 285.191 146.139 284.895 146.139 284.478C146.139 284.223 146.226 283.991 146.401 283.783C146.602 283.554 146.976 283.44 147.52 283.44H151.291V287.755C151.284 288.609 150.958 289.332 150.313 289.923C149.742 290.461 149.046 290.737 148.226 290.75H144.142C143.302 290.763 142.563 290.458 141.924 289.832C141.332 289.248 141.037 288.512 141.037 287.624V281.948C141.057 280.973 141.369 280.116 141.974 279.376L144.727 275.857C145.372 275.071 146.206 274.668 147.228 274.647H149.89C150.279 274.647 150.565 274.691 150.747 274.779C150.894 274.859 151.019 274.987 151.12 275.162C151.214 275.323 151.261 275.494 151.261 275.676C151.261 276.099 151.089 276.399 150.747 276.573C150.565 276.667 150.279 276.714 149.89 276.714H147.5C147.103 276.714 146.831 276.758 146.683 276.846C146.549 276.926 146.381 277.098 146.179 277.36L143.618 280.647C143.268 281.07 143.097 281.591 143.104 282.21V287.443C143.097 287.779 143.161 288.051 143.295 288.259C143.504 288.535 143.84 288.676 144.304 288.683H148.095C148.888 288.676 149.268 288.263 149.234 287.443V285.507Z" fill="white"/>
<path d="M62.3197 114.81C60.6384 117.559 59.7491 120.718 59.7498 123.94V133.81H40.4497V126.52C40.451 124.981 40.7555 123.457 41.3457 122.036C41.9359 120.614 42.8003 119.323 43.8895 118.236C44.9788 117.148 46.2714 116.286 47.6938 115.698C49.1163 115.111 50.6406 114.809 52.1797 114.81H62.3197Z" fill="url(#paint1_linear_202_1408)"/>
<path d="M87.7199 140.58V145.1C87.718 146.667 88.2605 148.186 89.2546 149.397C90.2487 150.608 91.6327 151.436 93.1699 151.74V162.37C93.1768 165.389 92.316 168.346 90.6899 170.89H63.8898C62.2637 168.346 61.4029 165.389 61.4099 162.37V151.69C62.9036 151.35 64.2376 150.513 65.1933 149.316C66.149 148.118 66.6695 146.632 66.6699 145.1V140.58C66.6695 139.048 66.149 137.562 65.1933 136.364C64.2376 135.167 62.9036 134.33 61.4099 133.99V123.99C61.3939 120.716 62.4124 117.521 64.3199 114.86H90.3199C92.2196 117.524 93.234 120.718 93.2199 123.99V133.99C91.6819 134.282 90.2928 135.098 89.2897 136.3C88.2867 137.502 87.7319 139.015 87.7199 140.58Z" fill="url(#paint2_linear_202_1408)"/>
<path d="M64.9998 140.58V145.1C65.0032 146.191 64.6561 147.254 64.0098 148.132C63.3634 149.011 62.4519 149.659 61.4097 149.98C60.9197 150.128 60.4113 150.205 59.8997 150.21H40.4497V135.48H59.8997C60.4105 135.486 60.9182 135.56 61.4097 135.7C62.4519 136.021 63.3634 136.669 64.0098 137.548C64.6561 138.426 65.0032 139.489 64.9998 140.58Z" fill="url(#paint3_linear_202_1408)"/>
<path d="M61.9597 170.88H52.1797C50.6406 170.881 49.1163 170.579 47.6938 169.992C46.2714 169.404 44.9788 168.542 43.8895 167.454C42.8003 166.367 41.9359 165.076 41.3457 163.654C40.7555 162.233 40.451 160.709 40.4497 159.17V151.87H59.7498V162.37C59.7435 165.349 60.5046 168.28 61.9597 170.88Z" fill="url(#paint4_linear_202_1408)"/>
<path d="M114.13 151.87V159.17C114.129 160.709 113.824 162.233 113.234 163.654C112.644 165.076 111.779 166.367 110.69 167.454C109.601 168.542 108.308 169.404 106.886 169.992C105.463 170.579 103.939 170.881 102.4 170.88H92.6199C94.0797 168.278 94.8443 165.344 94.8398 162.36V151.87H114.13Z" fill="url(#paint5_linear_202_1408)"/>
<path d="M114.13 126.52V133.81H94.8398V123.94C94.837 120.717 93.9441 117.558 92.2598 114.81H102.4C103.939 114.807 105.464 115.108 106.887 115.696C108.31 116.283 109.604 117.145 110.693 118.233C111.782 119.32 112.647 120.612 113.237 122.034C113.826 123.456 114.13 124.981 114.13 126.52Z" fill="url(#paint6_linear_202_1408)"/>
<path d="M114.13 135.48V150.21H94.4799C94.0373 150.206 93.5971 150.145 93.1698 150.03C92.0809 149.742 91.1174 149.103 90.4286 148.211C89.7398 147.32 89.3642 146.226 89.3599 145.1V140.58C89.3642 139.454 89.7398 138.36 90.4286 137.469C91.1174 136.577 92.0809 135.938 93.1698 135.65C93.5975 135.538 94.0378 135.481 94.4799 135.48H114.13Z" fill="url(#paint7_linear_202_1408)"/>
<path d="M418.45 317.64H416.45V312.91C416.454 312.827 416.454 312.743 416.45 312.66C416.45 312.59 416.45 312.5 416.45 312.44C416.45 312.38 416.45 312.27 416.38 312.22C416.359 312.036 416.29 311.86 416.18 311.71C416.009 311.411 415.735 311.184 415.41 311.07C415.088 310.962 414.747 310.924 414.41 310.96C414.26 310.97 414.112 311 413.97 311.05C413.831 311.089 413.7 311.15 413.58 311.23C413.407 311.336 413.255 311.471 413.13 311.63C412.994 311.817 412.886 312.022 412.81 312.24C412.81 312.32 412.81 312.41 412.75 312.5C412.735 312.656 412.735 312.814 412.75 312.97C412.715 313.379 412.715 313.791 412.75 314.2C412.75 315.28 412.75 316.36 412.75 317.45V317.64H411.01C411 317.607 411 317.573 411.01 317.54C411.005 317.497 411.005 317.453 411.01 317.41V312.78C410.99 312.482 410.926 312.189 410.82 311.91C410.712 311.654 410.54 311.43 410.32 311.26C410.173 311.152 410.007 311.074 409.83 311.03C409.684 310.982 409.533 310.955 409.38 310.95H409.03C408.738 310.972 408.453 311.05 408.19 311.18C408.109 311.223 408.032 311.273 407.96 311.33C407.822 311.45 407.701 311.588 407.6 311.74C407.492 311.906 407.411 312.088 407.36 312.28C407.303 312.512 407.276 312.751 407.28 312.99V317.57V317.63H405.55V309.37H407.28L407.34 309.42V310.37L407.7 309.98C407.899 309.765 408.141 309.595 408.41 309.48C408.609 309.383 408.821 309.316 409.04 309.28C409.198 309.247 409.359 309.224 409.52 309.21C409.679 309.195 409.84 309.195 410 309.21H410.33L410.64 309.27L410.95 309.36C411.246 309.461 411.518 309.621 411.75 309.83L411.91 309.95C412.116 310.145 412.294 310.367 412.44 310.61C412.44 310.54 412.55 310.51 412.59 310.43C412.63 310.362 412.684 310.304 412.75 310.26C412.933 310.048 413.145 309.863 413.38 309.71C413.66 309.538 413.963 309.407 414.28 309.32L414.93 309.19C415.166 309.175 415.403 309.175 415.64 309.19C415.849 309.195 416.058 309.225 416.26 309.28C416.459 309.322 416.654 309.386 416.84 309.47C417.115 309.578 417.369 309.734 417.59 309.93C417.784 310.083 417.95 310.27 418.08 310.48C418.262 310.731 418.391 311.017 418.46 311.32L418.58 311.93C418.59 312.087 418.59 312.244 418.58 312.4V317.58L418.45 317.64Z" fill="white"/>
<path d="M493.36 306.19V310.44C493.307 310.36 493.25 310.284 493.19 310.21L492.9 309.97C492.753 309.839 492.592 309.725 492.42 309.63C492.133 309.468 491.817 309.362 491.49 309.32C491.41 309.26 491.29 309.32 491.21 309.32C491.101 309.3 490.989 309.3 490.88 309.32C490.741 309.3 490.599 309.3 490.46 309.32C490.33 309.37 490.18 309.32 490.04 309.38C489.9 309.44 489.75 309.38 489.62 309.47C489.393 309.537 489.172 309.624 488.96 309.73C488.645 309.877 488.355 310.073 488.1 310.31L487.81 310.6C487.699 310.707 487.599 310.824 487.51 310.95C487.287 311.259 487.106 311.595 486.97 311.95C486.813 312.366 486.728 312.806 486.72 313.25C486.734 313.323 486.734 313.397 486.72 313.47C486.703 313.495 486.693 313.525 486.693 313.555C486.693 313.585 486.703 313.615 486.72 313.64C486.77 313.72 486.72 313.8 486.72 313.88C486.71 313.98 486.71 314.08 486.72 314.18V314.35C486.716 314.407 486.716 314.463 486.72 314.52C486.729 314.62 486.752 314.717 486.79 314.81C486.85 315 486.91 315.18 486.98 315.37C487.129 315.736 487.339 316.074 487.6 316.37C487.708 316.517 487.836 316.648 487.98 316.76C488.068 316.828 488.151 316.901 488.23 316.98C488.552 317.234 488.913 317.433 489.3 317.57C489.453 317.645 489.62 317.686 489.79 317.69C489.85 317.75 489.93 317.69 490.01 317.74C490.148 317.785 490.294 317.805 490.44 317.8C490.698 317.84 490.961 317.84 491.22 317.8C491.35 317.8 491.48 317.8 491.59 317.8C491.788 317.759 491.98 317.692 492.16 317.6C492.279 317.582 492.39 317.529 492.48 317.45C492.597 317.394 492.702 317.316 492.79 317.22C492.79 317.22 492.86 317.15 492.91 317.14C492.97 317.109 493.019 317.06 493.05 317C493.11 316.89 493.22 316.82 493.28 316.71V317.71C493.876 317.742 494.474 317.742 495.07 317.71V306.18C494.57 306.16 493.57 306.17 493.36 306.19ZM493.52 313.75C493.513 314.031 493.456 314.309 493.35 314.57C493.238 314.886 493.057 315.173 492.82 315.41C492.659 315.589 492.47 315.741 492.26 315.86C492.017 315.993 491.753 316.084 491.48 316.13C491.278 316.164 491.072 316.164 490.87 316.13C490.605 316.099 490.346 316.032 490.1 315.93C489.762 315.786 489.458 315.571 489.21 315.3C489.052 315.109 488.921 314.897 488.82 314.67C488.749 314.523 488.695 314.369 488.66 314.21C488.589 313.882 488.565 313.545 488.59 313.21C488.59 313.1 488.59 312.97 488.65 312.85C488.706 312.577 488.804 312.314 488.94 312.07C489.056 311.836 489.22 311.628 489.42 311.46C489.582 311.31 489.768 311.189 489.97 311.1C490.178 311.008 490.396 310.941 490.62 310.9C490.849 310.87 491.081 310.87 491.31 310.9C491.546 310.92 491.779 310.974 492 311.06C492.148 311.127 492.292 311.204 492.43 311.29C492.622 311.413 492.794 311.564 492.94 311.74C493 311.81 493.05 311.9 493.11 311.98C493.258 312.227 493.372 312.493 493.45 312.77C493.513 313.021 493.537 313.281 493.52 313.54V313.75Z" fill="white"/>
<path d="M478.62 309.37H476.88V310.37C476.78 310.37 476.81 310.31 476.77 310.28C476.49 309.966 476.15 309.711 475.77 309.53C475.628 309.438 475.467 309.38 475.3 309.36C475.3 309.3 475.18 309.36 475.15 309.36C475.12 309.36 475.01 309.36 474.96 309.36C474.91 309.36 474.76 309.36 474.67 309.31C474.571 309.285 474.468 309.285 474.37 309.31C474.191 309.28 474.009 309.28 473.83 309.31C473.75 309.31 473.67 309.31 473.58 309.31C473.49 309.31 473.42 309.31 473.33 309.31C473.047 309.362 472.774 309.457 472.52 309.59C472.106 309.771 471.732 310.033 471.42 310.36C471.299 310.474 471.189 310.597 471.09 310.73C470.936 310.919 470.802 311.123 470.69 311.34C470.62 311.47 470.55 311.62 470.49 311.76C470.415 311.966 470.351 312.177 470.3 312.39C470.297 312.43 470.297 312.47 470.3 312.51C470.3 312.51 470.3 312.62 470.3 312.66C470.3 312.7 470.3 312.87 470.24 312.98C470.21 313.095 470.21 313.215 470.24 313.33C470.225 313.57 470.225 313.81 470.24 314.05C470.24 314.21 470.24 314.37 470.33 314.52C470.401 314.843 470.505 315.158 470.64 315.46C470.79 315.788 470.989 316.091 471.23 316.36C471.387 316.536 471.558 316.7 471.74 316.85C471.89 316.98 472.07 317.07 472.22 317.2C472.53 317.382 472.868 317.514 473.22 317.59C473.468 317.678 473.727 317.729 473.99 317.74C474.159 317.76 474.33 317.76 474.5 317.74C474.663 317.76 474.827 317.76 474.99 317.74C475.179 317.703 475.366 317.656 475.55 317.6C475.92 317.488 476.261 317.297 476.55 317.04C476.691 316.904 476.824 316.76 476.95 316.61V317.61H478.7C478.701 317.577 478.701 317.543 478.7 317.51C478.705 317.463 478.705 317.417 478.7 317.37V309.43L478.62 309.37ZM477.04 313.61C477.045 313.683 477.045 313.757 477.04 313.83C477.04 313.89 477.04 313.98 477.04 314.05C477.014 314.287 476.946 314.517 476.84 314.73C476.769 314.888 476.678 315.036 476.57 315.17C476.513 315.251 476.449 315.328 476.38 315.4C476.191 315.59 475.975 315.752 475.74 315.88C475.634 315.934 475.524 315.977 475.41 316.01L475.08 316.09C474.871 316.12 474.659 316.12 474.45 316.09C474.304 316.083 474.159 316.056 474.02 316.01C473.824 315.953 473.633 315.88 473.45 315.79C473.286 315.701 473.134 315.59 473 315.46L472.73 315.18C472.669 315.113 472.615 315.039 472.57 314.96C472.514 314.88 472.464 314.797 472.42 314.71C472.364 314.603 472.323 314.489 472.3 314.37C472.231 314.173 472.187 313.968 472.17 313.76C472.16 313.624 472.16 313.486 472.17 313.35C472.189 312.982 472.27 312.621 472.41 312.28C472.489 312.079 472.597 311.89 472.73 311.72C472.865 311.553 473.02 311.402 473.19 311.27C473.406 311.116 473.646 310.998 473.9 310.92L474.23 310.84C474.38 310.84 474.52 310.84 474.67 310.84C474.82 310.84 475.03 310.84 475.2 310.9C475.34 310.928 475.477 310.968 475.61 311.02C475.774 311.093 475.931 311.18 476.08 311.28C476.462 311.567 476.762 311.95 476.95 312.39C476.95 312.55 477.08 312.7 477.07 312.87C477.06 313.04 477.07 313.12 477.14 313.25C477.13 313.388 477.096 313.524 477.04 313.65V313.61Z" fill="white"/>
<path d="M428.51 309.37H426.76V310.37C426.689 310.263 426.602 310.168 426.5 310.09C426.389 309.967 426.265 309.856 426.13 309.76C425.986 309.661 425.831 309.577 425.67 309.51C425.533 309.439 425.389 309.382 425.24 309.34C425.119 309.306 424.995 309.283 424.87 309.27C424.81 309.2 424.73 309.27 424.66 309.27C424.58 309.26 424.5 309.26 424.42 309.27C424.2 309.27 423.99 309.27 423.77 309.27C423.55 309.27 423.42 309.32 423.25 309.36C423.011 309.414 422.777 309.487 422.55 309.58C422.104 309.769 421.7 310.045 421.36 310.39C421.252 310.496 421.152 310.61 421.06 310.73C420.89 310.93 420.742 311.148 420.62 311.38C420.539 311.533 420.465 311.69 420.4 311.85C420.347 311.994 420.304 312.141 420.27 312.29C420.214 312.43 420.184 312.579 420.18 312.73C420.12 312.73 420.18 312.85 420.18 312.92C420.176 312.983 420.176 313.047 420.18 313.11V313.6C420.17 313.766 420.17 313.933 420.18 314.1C420.18 314.3 420.25 314.51 420.3 314.72C420.362 314.984 420.456 315.239 420.58 315.48C420.64 315.61 420.7 315.75 420.77 315.87C420.899 316.088 421.05 316.292 421.22 316.48C421.38 316.63 421.52 316.78 421.68 316.91C421.849 317.043 422.026 317.167 422.21 317.28C422.528 317.444 422.863 317.572 423.21 317.66C423.462 317.728 423.72 317.772 423.98 317.79C424.242 317.825 424.508 317.825 424.77 317.79C424.93 317.79 425.1 317.79 425.27 317.7C425.445 317.66 425.616 317.603 425.78 317.53C425.983 317.435 426.177 317.321 426.36 317.19C426.487 317.078 426.608 316.957 426.72 316.83C426.72 316.83 426.72 316.76 426.72 316.74C426.751 316.704 426.784 316.671 426.82 316.64C426.82 317 426.82 317.33 426.82 317.64H428.56V309.51C428.56 309.51 428.57 309.43 428.51 309.37ZM426.84 313.69C426.83 313.776 426.83 313.864 426.84 313.95C426.84 314.04 426.84 314.11 426.84 314.21C426.821 314.289 426.794 314.366 426.76 314.44C426.722 314.515 426.689 314.592 426.66 314.67C426.578 314.872 426.467 315.06 426.33 315.23C426.26 315.31 426.2 315.39 426.13 315.46C425.96 315.629 425.764 315.771 425.55 315.88C425.336 315.987 425.107 316.058 424.87 316.09C424.657 316.115 424.443 316.115 424.23 316.09C424.078 316.073 423.928 316.046 423.78 316.01C423.548 315.927 423.324 315.823 423.11 315.7C423.04 315.672 422.978 315.627 422.93 315.57C422.643 315.349 422.41 315.065 422.25 314.74C422.133 314.519 422.058 314.278 422.03 314.03C421.94 313.94 422.03 313.82 421.98 313.72C421.959 313.621 421.959 313.519 421.98 313.42C421.961 313.331 421.961 313.239 421.98 313.15C421.98 313.07 421.98 312.96 422.03 312.87C422.057 312.512 422.178 312.167 422.38 311.87C422.415 311.793 422.462 311.722 422.52 311.66C422.733 311.388 423.002 311.166 423.31 311.01C423.535 310.897 423.779 310.825 424.03 310.8C424.09 310.8 424.15 310.8 424.23 310.8H424.44C424.614 310.81 424.788 310.83 424.96 310.86C425.231 310.918 425.491 311.019 425.73 311.16C425.952 311.306 426.154 311.481 426.33 311.68C426.407 311.779 426.477 311.882 426.54 311.99C426.689 312.251 426.793 312.535 426.85 312.83C426.844 312.92 426.844 313.01 426.85 313.1C426.863 313.193 426.863 313.287 426.85 313.38C426.862 313.497 426.858 313.614 426.84 313.73V313.69Z" fill="white"/>
<path d="M452.95 315.55C452.762 315.676 452.565 315.786 452.36 315.88C452.158 315.969 451.951 316.045 451.74 316.11C451.52 316.17 451.28 316.19 451.06 316.24C450.917 316.25 450.773 316.25 450.63 316.24C450.494 316.26 450.356 316.26 450.22 316.24C450.1 316.24 449.95 316.24 449.84 316.12C449.73 316 449.7 316.06 449.62 316.05C449.467 315.993 449.322 315.916 449.19 315.82C449.104 315.769 449.027 315.705 448.96 315.63C448.883 315.565 448.819 315.488 448.77 315.4C448.77 315.29 448.62 315.22 448.57 315.11C448.47 314.865 448.383 314.614 448.31 314.36H454.31C454.33 313.725 454.3 313.09 454.22 312.46C454.204 312.318 454.177 312.178 454.14 312.04C454.041 311.719 453.914 311.408 453.76 311.11C453.637 310.89 453.493 310.682 453.33 310.49C453.137 310.268 452.915 310.073 452.67 309.91C452.428 309.771 452.177 309.647 451.92 309.54C451.754 309.473 451.584 309.42 451.41 309.38C451.25 309.336 451.085 309.312 450.92 309.31C450.508 309.284 450.095 309.307 449.69 309.38C449.55 309.38 449.4 309.38 449.27 309.47C448.839 309.603 448.434 309.805 448.07 310.07C448 310.07 447.95 310.18 447.89 310.22C447.646 310.382 447.438 310.593 447.28 310.84C447.071 311.108 446.903 311.404 446.78 311.72C446.664 312.011 446.577 312.312 446.52 312.62C446.53 312.73 446.53 312.84 446.52 312.95C446.504 313.053 446.504 313.157 446.52 313.26C446.5 313.593 446.5 313.927 446.52 314.26C446.52 314.43 446.59 314.62 446.61 314.8C446.643 314.947 446.69 315.091 446.75 315.23C446.81 315.37 446.85 315.51 446.92 315.64C446.967 315.749 447.023 315.852 447.09 315.95C447.186 316.125 447.3 316.289 447.43 316.44C447.705 316.786 448.044 317.074 448.43 317.29C448.659 317.436 448.908 317.547 449.17 317.62C449.363 317.685 449.56 317.739 449.76 317.78C449.83 317.78 449.9 317.78 449.98 317.78C450.055 317.8 450.135 317.8 450.21 317.78C450.29 317.78 450.35 317.78 450.43 317.78C450.73 317.78 451.03 317.78 451.34 317.78C451.43 317.78 451.55 317.78 451.64 317.78C451.73 317.78 452.02 317.69 452.22 317.63C452.469 317.561 452.713 317.474 452.95 317.37C453.144 317.284 453.331 317.184 453.51 317.07C453.673 316.97 453.83 316.86 453.98 316.74L453.12 315.45L452.95 315.55ZM448.54 312.19C448.621 311.934 448.761 311.701 448.95 311.51C449.06 311.37 449.191 311.248 449.34 311.15C449.578 310.997 449.843 310.889 450.12 310.83C450.399 310.795 450.681 310.795 450.96 310.83C451.294 310.864 451.611 310.996 451.87 311.21C452.021 311.318 452.15 311.453 452.25 311.61C452.38 311.799 452.478 312.009 452.54 312.23C452.59 312.348 452.62 312.473 452.63 312.6C452.62 312.649 452.62 312.701 452.63 312.75H448.34C448.395 312.555 448.473 312.368 448.57 312.19H448.54Z" fill="white"/>
<path d="M430.17 316.76L431.02 315.4C431.256 315.558 431.503 315.698 431.76 315.82C431.936 315.9 432.116 315.97 432.3 316.03L432.7 316.14C432.888 316.163 433.075 316.196 433.26 316.24H434C434.293 316.235 434.583 316.184 434.86 316.09C435.022 316.034 435.173 315.953 435.31 315.85C435.391 315.795 435.459 315.724 435.51 315.64C435.594 315.539 435.637 315.411 435.63 315.28V315.06C435.488 314.82 435.259 314.645 434.99 314.57C434.784 314.5 434.574 314.447 434.36 314.41C434.16 314.41 433.97 314.34 433.77 314.33C433.57 314.32 433.56 314.33 433.46 314.33C433.36 314.33 433.25 314.26 433.14 314.33C433.03 314.4 432.83 314.33 432.68 314.22C432.53 314.11 432.39 314.15 432.25 314.1C431.918 313.987 431.605 313.825 431.32 313.62C431.044 313.417 430.826 313.144 430.69 312.83C430.599 312.642 430.548 312.438 430.54 312.23C430.546 312.153 430.546 312.077 430.54 312C430.525 311.907 430.525 311.813 430.54 311.72C430.54 311.63 430.54 311.54 430.54 311.44C430.582 311.233 430.65 311.031 430.74 310.84C430.825 310.662 430.94 310.5 431.08 310.36C431.162 310.268 431.248 310.182 431.34 310.1C431.576 309.898 431.843 309.736 432.13 309.62L432.61 309.47C432.708 309.437 432.808 309.414 432.91 309.4C433.432 309.315 433.962 309.285 434.49 309.31C434.58 309.31 434.67 309.37 434.76 309.31C434.845 309.29 434.934 309.29 435.02 309.31H435.32C435.66 309.363 435.995 309.446 436.32 309.56C436.631 309.674 436.926 309.825 437.2 310.01H437.27L436.51 311.47L436.09 311.29C435.811 311.164 435.519 311.066 435.22 311C435.12 310.91 434.99 310.93 434.87 310.9L434.51 310.84C434.347 310.825 434.183 310.825 434.02 310.84C433.85 310.825 433.68 310.825 433.51 310.84C433.299 310.867 433.094 310.924 432.9 311.01C432.78 311.065 432.673 311.145 432.587 311.245C432.501 311.346 432.437 311.463 432.4 311.59C432.367 311.715 432.378 311.848 432.431 311.966C432.484 312.084 432.575 312.181 432.69 312.24C432.863 312.34 433.053 312.408 433.25 312.44L433.72 312.52C433.846 312.51 433.974 312.51 434.1 312.52C434.22 312.52 434.35 312.52 434.47 312.52C434.75 312.59 435.04 312.63 435.33 312.7C435.678 312.784 436.014 312.912 436.33 313.08C436.486 313.156 436.628 313.257 436.75 313.38C436.923 313.53 437.071 313.705 437.19 313.9C437.269 314.048 437.335 314.202 437.39 314.36C437.459 314.688 437.483 315.025 437.46 315.36C437.454 315.488 437.423 315.614 437.37 315.73C437.304 315.91 437.216 316.081 437.11 316.24C436.949 316.465 436.757 316.667 436.54 316.84C436.314 317.014 436.065 317.156 435.8 317.26C435.614 317.347 435.42 317.414 435.22 317.46C435.076 317.478 434.934 317.515 434.8 317.57C434.66 317.57 434.53 317.57 434.39 317.57C434.302 317.545 434.208 317.545 434.12 317.57C434.027 317.585 433.933 317.585 433.84 317.57H433.57C433.47 317.57 433.38 317.57 433.28 317.57H432.97C432.884 317.56 432.796 317.56 432.71 317.57C432.63 317.575 432.55 317.575 432.47 317.57H432.22L431.89 317.49L431.56 317.39C431.289 317.292 431.025 317.175 430.77 317.04C430.57 317 430.36 316.89 430.17 316.76Z" fill="white"/>
<path d="M445.39 317.2L445.08 317.35C444.808 317.481 444.523 317.582 444.23 317.65L443.58 317.77C443.327 317.795 443.073 317.795 442.82 317.77C442.573 317.754 442.329 317.714 442.09 317.65C441.896 317.596 441.709 317.522 441.53 317.43C441.416 317.378 441.314 317.303 441.23 317.21L440.98 316.97C440.792 316.737 440.641 316.478 440.53 316.2C440.53 315.99 440.43 315.8 440.41 315.59C440.39 315.38 440.41 315.28 440.41 315.14C440.385 314.944 440.385 314.746 440.41 314.55C440.41 314.36 440.41 314.16 440.41 313.97V310.97H438.82V309.37H440.4V306.93H442.19V309.37H445.11V311H442.19V311.11C442.19 312.33 442.19 313.56 442.19 314.78C442.184 315.046 442.249 315.308 442.38 315.54C442.455 315.668 442.558 315.777 442.681 315.86C442.804 315.943 442.943 315.998 443.09 316.02C443.246 316.03 443.403 316.03 443.56 316.02C443.629 316.03 443.7 316.03 443.77 316.02C443.85 316.02 443.93 316.02 443.99 316.02C444.132 316.016 444.272 315.982 444.4 315.92L444.68 315.8L444.94 315.67L445.39 317.2Z" fill="white"/>
<path d="M469.34 310.18L468.49 311.63L468.38 311.57C468.148 311.4 467.896 311.259 467.63 311.15C467.48 311.08 467.32 311.04 467.17 310.98C467.02 310.92 467 310.98 466.95 310.92C466.677 310.895 466.403 310.895 466.13 310.92C465.944 310.952 465.76 310.995 465.58 311.05C465.379 311.11 465.187 311.197 465.01 311.31C464.798 311.447 464.609 311.615 464.45 311.81C464.329 311.956 464.228 312.117 464.15 312.29C464.034 312.489 463.962 312.711 463.94 312.94C463.85 313.04 463.94 313.18 463.86 313.28C463.78 313.38 463.86 313.52 463.86 313.64C463.84 313.739 463.84 313.841 463.86 313.94C463.86 314.02 463.86 314.13 463.86 314.21C463.888 314.457 463.959 314.697 464.07 314.92C464.108 315.016 464.158 315.107 464.22 315.19C464.356 315.387 464.522 315.562 464.71 315.71C464.965 315.925 465.272 316.069 465.6 316.13C465.69 316.21 465.81 316.13 465.92 316.2C466.042 316.22 466.167 316.22 466.29 316.2C466.403 316.215 466.517 316.215 466.63 316.2C466.913 316.156 467.192 316.082 467.46 315.98C467.742 315.861 468.013 315.717 468.27 315.55L468.38 315.5L469.21 316.93C469.099 317.046 468.971 317.144 468.83 317.22C468.54 317.406 468.227 317.554 467.9 317.66C467.767 317.718 467.625 317.752 467.48 317.76C467.4 317.83 467.29 317.76 467.21 317.81C467.13 317.86 467.02 317.81 466.93 317.81C466.637 317.84 466.342 317.84 466.05 317.81C465.957 317.825 465.862 317.825 465.77 317.81C465.68 317.81 465.59 317.81 465.49 317.81C465.39 317.81 465.33 317.81 465.26 317.76C465.09 317.755 464.923 317.714 464.77 317.64C464.558 317.589 464.353 317.512 464.16 317.41C463.891 317.277 463.639 317.113 463.41 316.92C463.41 316.86 463.28 316.82 463.23 316.76C462.855 316.409 462.552 315.988 462.34 315.52C462.235 315.297 462.157 315.062 462.11 314.82C462.03 314.76 462.11 314.66 462.03 314.59C461.95 314.52 462.03 314.45 462.03 314.37C462.03 314.29 462.03 314.2 462.03 314.13C462.01 313.981 462.01 313.829 462.03 313.68V313.23C462.025 313.157 462.025 313.083 462.03 313.01C462.03 312.94 462.03 312.86 462.03 312.79C462.034 312.657 462.057 312.526 462.1 312.4C462.171 312.087 462.282 311.785 462.43 311.5C462.561 311.258 462.711 311.027 462.88 310.81C462.985 310.683 463.099 310.563 463.22 310.45C463.429 310.258 463.657 310.087 463.9 309.94C464.234 309.749 464.59 309.597 464.96 309.49C465.117 309.434 465.283 309.404 465.45 309.4C465.53 309.4 465.6 309.35 465.68 309.4C465.758 309.425 465.842 309.425 465.92 309.4C465.92 309.4 465.98 309.4 466.02 309.4H466.66C466.756 309.395 466.853 309.395 466.95 309.4C467.04 309.4 467.14 309.4 467.23 309.4C467.32 309.4 467.39 309.4 467.46 309.4C467.673 309.423 467.882 309.476 468.08 309.56C468.264 309.619 468.439 309.703 468.6 309.81C468.752 309.897 468.899 309.994 469.04 310.1L469.34 310.18Z" fill="white"/>
<path d="M486.18 309.37C486.18 309.53 486.1 309.69 486.05 309.84C486 309.99 485.94 310.14 485.91 310.29C485.857 310.43 485.814 310.574 485.78 310.72C485.756 310.84 485.712 310.955 485.65 311.06C485.65 310.99 485.52 311.06 485.45 310.99C485.347 310.975 485.243 310.975 485.14 310.99H484.9C484.821 311.009 484.739 311.009 484.66 310.99C484.605 310.97 484.545 310.97 484.49 310.99C484.35 311.06 484.2 310.99 484.06 311.06C483.866 311.119 483.683 311.211 483.52 311.33C483.337 311.478 483.19 311.667 483.09 311.88C482.997 312.073 482.933 312.278 482.9 312.49C482.9 312.59 482.9 312.7 482.9 312.8C482.885 312.913 482.885 313.027 482.9 313.14V317.75H481.13C481.13 317.59 481.13 310.22 481.13 309.56H482.91V310.56C482.971 310.493 483.027 310.423 483.08 310.35C483.201 310.168 483.353 310.009 483.53 309.88C483.782 309.659 484.09 309.51 484.42 309.45C484.5 309.38 484.61 309.45 484.7 309.38C484.803 309.365 484.907 309.365 485.01 309.38H485.67C485.813 309.37 485.957 309.37 486.1 309.38C486.126 309.375 486.153 309.371 486.18 309.37Z" fill="white"/>
<path d="M458.14 317.6H456.36V309.37H458.14V310.37C458.26 310.3 458.3 310.19 458.37 310.1C458.448 309.99 458.547 309.895 458.66 309.82C458.75 309.76 458.82 309.68 458.91 309.62C459 309.56 459.25 309.45 459.4 309.35C459.55 309.25 459.68 309.24 459.84 309.27C460.038 309.235 460.241 309.235 460.44 309.27C460.646 309.25 460.854 309.25 461.06 309.27H461.43H461.48C461.4 309.51 461.32 309.75 461.26 310C461.23 310.071 461.207 310.145 461.19 310.22C461.19 310.42 461.05 310.6 461.02 310.81C461.02 310.81 461.02 310.86 461.02 310.9C461.02 310.94 460.76 310.84 460.62 310.9C460.48 310.96 460.47 310.9 460.4 310.9C460.338 310.881 460.272 310.881 460.21 310.9C460.13 310.9 460.06 310.9 459.99 310.9C459.642 310.888 459.298 310.968 458.99 311.13C458.769 311.256 458.586 311.439 458.46 311.66C458.375 311.818 458.301 311.982 458.24 312.15C458.24 312.22 458.24 312.31 458.19 312.36C458.14 312.41 458.19 312.62 458.19 312.75V317.66L458.14 317.6Z" fill="white"/>
<path d="M499.74 271.27C499.74 277.034 498.124 282.683 495.075 287.575C492.026 292.466 487.666 296.405 482.491 298.943C477.316 301.481 471.532 302.517 465.798 301.934C460.063 301.35 454.607 299.169 450.05 295.64C453.772 292.759 456.785 289.064 458.858 284.838C460.931 280.612 462.009 275.967 462.009 271.26C462.009 266.553 460.931 261.908 458.858 257.682C456.785 253.456 453.772 249.761 450.05 246.88C454.609 243.35 460.066 241.169 465.803 240.586C471.539 240.003 477.324 241.04 482.5 243.581C487.676 246.122 492.035 250.063 495.083 254.958C498.131 259.853 499.744 265.504 499.74 271.27Z" fill="#F79E1B"/>
<path d="M450.05 295.64C445.491 299.169 440.033 301.349 434.298 301.932C428.562 302.515 422.778 301.478 417.601 298.939C412.425 296.4 408.065 292.461 405.015 287.568C401.966 282.675 400.349 277.025 400.349 271.26C400.349 265.495 401.966 259.845 405.015 254.952C408.065 250.059 412.425 246.12 417.601 243.581C422.778 241.042 428.562 240.005 434.298 240.588C440.033 241.171 445.491 243.351 450.05 246.88C446.324 249.759 443.308 253.453 441.232 257.68C439.157 261.906 438.078 266.552 438.078 271.26C438.078 275.968 439.157 280.614 441.232 284.84C443.308 289.067 446.324 292.761 450.05 295.64Z" fill="#EB001B"/>
<path d="M462.01 271.27C462.01 275.98 460.928 280.627 458.848 284.852C456.767 289.078 453.743 292.769 450.01 295.64C446.284 292.761 443.268 289.067 441.192 284.84C439.117 280.614 438.038 275.968 438.038 271.26C438.038 266.552 439.117 261.906 441.192 257.68C443.268 253.453 446.284 249.759 450.01 246.88C453.744 249.755 456.767 253.45 458.848 257.679C460.929 261.907 462.01 266.557 462.01 271.27Z" fill="#FF5A00"/>
<defs>
<linearGradient id="paint0_linear_202_1408" x1="-88.48" y1="-93.56" x2="996.13" y2="708.74" gradientUnits="userSpaceOnUse">
<stop stop-color="#0C004A"/>
<stop offset="1" stop-color="#A6E5FF"/>
</linearGradient>
<linearGradient id="paint1_linear_202_1408" x1="111.7" y1="173.21" x2="45.1597" y2="119.26" gradientUnits="userSpaceOnUse">
<stop stop-color="#ABA6A6"/>
<stop offset="1" stop-color="#FFBD75"/>
</linearGradient>
<linearGradient id="paint2_linear_202_1408" x1="112.82" y1="171.82" x2="46.2799" y2="117.87" gradientUnits="userSpaceOnUse">
<stop stop-color="#ABA6A6"/>
<stop offset="1" stop-color="#FFBD75"/>
</linearGradient>
<linearGradient id="paint3_linear_202_1408" x1="102.51" y1="184.54" x2="35.9697" y2="130.59" gradientUnits="userSpaceOnUse">
<stop stop-color="#ABA6A6"/>
<stop offset="1" stop-color="#FFBD75"/>
</linearGradient>
<linearGradient id="paint4_linear_202_1408" x1="94.5597" y1="194.35" x2="28.0197" y2="140.4" gradientUnits="userSpaceOnUse">
<stop stop-color="#ABA6A6"/>
<stop offset="1" stop-color="#FFBD75"/>
</linearGradient>
<linearGradient id="paint5_linear_202_1408" x1="114.19" y1="170.14" x2="47.6399" y2="116.19" gradientUnits="userSpaceOnUse">
<stop stop-color="#ABA6A6"/>
<stop offset="1" stop-color="#FFBD75"/>
</linearGradient>
<linearGradient id="paint6_linear_202_1408" x1="131.26" y1="149.08" x2="64.7199" y2="95.1397" gradientUnits="userSpaceOnUse">
<stop stop-color="#ABA6A6"/>
<stop offset="1" stop-color="#FFBD75"/>
</linearGradient>
<linearGradient id="paint7_linear_202_1408" x1="123.26" y1="158.94" x2="56.7197" y2="105" gradientUnits="userSpaceOnUse">
<stop stop-color="#ABA6A6"/>
<stop offset="1" stop-color="#FFBD75"/>
</linearGradient>
</defs>
</svg>
