<svg width="535" height="340" viewBox="0 0 535 340" fill="none" xmlns="http://www.w3.org/2000/svg">
<path d="M512.4 0H22.02C9.85871 0 0 9.85871 0 22.02V317.1C0 329.261 9.85871 339.12 22.02 339.12H512.4C524.561 339.12 534.42 329.261 534.42 317.1V22.02C534.42 9.85871 524.561 0 512.4 0Z" fill="url(#paint0_linear_202_1484)"/>
<path d="M498.96 40.6C498.953 41.791 498.768 42.9742 498.41 44.11C498.352 44.274 498.258 44.4229 498.135 44.5458C498.013 44.6687 497.864 44.7624 497.7 44.82C497.516 44.8801 497.321 44.8986 497.129 44.8744C496.937 44.8502 496.753 44.7838 496.59 44.68L496.39 44.55C496.17 44.4057 496.004 44.194 495.916 43.9469C495.827 43.6997 495.822 43.4306 495.9 43.18C496.514 41.2336 496.418 39.1325 495.63 37.25C495.514 36.9902 495.492 36.6981 495.569 36.4242C495.646 36.1504 495.816 35.9119 496.05 35.75L496.25 35.64C496.396 35.5456 496.561 35.4826 496.733 35.4551C496.905 35.4276 497.081 35.436 497.25 35.48C497.41 35.5223 497.559 35.5999 497.685 35.7072C497.811 35.8145 497.912 35.9487 497.98 36.1C498.616 37.5155 498.949 39.0482 498.96 40.6Z" fill="white"/>
<path d="M505.57 40.6C505.578 43.1009 505.057 45.5751 504.04 47.86C503.97 48.0279 503.864 48.1782 503.729 48.3002C503.594 48.4221 503.434 48.5127 503.26 48.5653C503.086 48.6179 502.902 48.6312 502.722 48.6044C502.543 48.5775 502.371 48.5111 502.22 48.41L502.04 48.28C501.805 48.1263 501.632 47.8944 501.551 47.6254C501.471 47.3564 501.488 47.0675 501.6 46.81C502.467 44.8546 502.913 42.7389 502.91 40.6C502.906 38.1661 502.327 35.7676 501.22 33.6C501.093 33.342 501.066 33.0465 501.144 32.7699C501.221 32.4933 501.398 32.2549 501.64 32.1L501.84 31.96C501.988 31.8689 502.153 31.8087 502.324 31.7829C502.496 31.7571 502.672 31.7664 502.84 31.81C503.011 31.8547 503.17 31.9348 503.308 32.045C503.446 32.1553 503.559 32.2932 503.64 32.45C504.917 34.9763 505.579 37.7691 505.57 40.6Z" fill="white"/>
<path d="M512.57 40.6C512.576 44.4818 511.672 48.3111 509.93 51.78C509.852 51.9406 509.742 52.0831 509.606 52.1985C509.469 52.3139 509.311 52.3995 509.14 52.45C508.97 52.4936 508.793 52.5001 508.62 52.4691C508.448 52.438 508.284 52.3701 508.14 52.27L507.96 52.16C507.707 51.9851 507.528 51.7225 507.458 51.4232C507.387 51.1238 507.431 50.8091 507.58 50.54C509.13 47.4572 509.929 44.0508 509.91 40.6C509.91 36.8155 508.95 33.0928 507.12 29.78C506.981 29.5163 506.948 29.21 507.025 28.9225C507.103 28.635 507.287 28.3876 507.54 28.23L507.72 28.09C507.915 27.9596 508.145 27.89 508.38 27.89C508.478 27.8969 508.575 27.9137 508.67 27.94C508.842 27.9861 509.004 28.0666 509.145 28.1765C509.286 28.2865 509.403 28.4237 509.49 28.58C511.516 32.2617 512.576 36.3974 512.57 40.6Z" fill="white"/>
<path d="M519.28 40.6C519.273 45.8337 517.979 50.9853 515.51 55.6C515.438 55.7452 515.334 55.8721 515.206 55.9709C515.078 56.0697 514.929 56.1378 514.77 56.17C514.601 56.2193 514.424 56.2296 514.25 56.2001C514.077 56.1707 513.913 56.1022 513.77 56L513.57 55.86C513.313 55.6882 513.131 55.4255 513.061 55.1248C512.99 54.8242 513.036 54.508 513.19 54.24C515.415 50.0372 516.582 45.3554 516.59 40.6C516.591 35.5436 515.267 30.5752 512.75 26.19C512.585 25.9131 512.533 25.5837 512.603 25.2694C512.674 24.955 512.863 24.6797 513.13 24.5L513.3 24.39C513.506 24.2593 513.746 24.19 513.99 24.19C514.08 24.1801 514.17 24.1801 514.26 24.19C514.414 24.2269 514.559 24.2959 514.685 24.3923C514.81 24.4888 514.914 24.6107 514.99 24.75C517.796 29.561 519.277 35.0303 519.28 40.6Z" fill="white"/>
<path d="M64.3299 204.28C63.9653 203.958 63.496 203.781 63.0098 203.78C61.7098 203.78 61.0431 204.65 61.0098 206.39V213.76H57.1299V186.99H48.0298C47.6484 186.945 47.2617 186.98 46.8947 187.094C46.5277 187.207 46.1888 187.397 45.8998 187.65C45.5746 188.004 45.3959 188.469 45.3998 188.95C45.3965 189.302 45.4899 189.648 45.6698 189.95C45.83 190.259 46.0861 190.509 46.3998 190.66C46.9147 190.876 47.4729 190.968 48.0298 190.93H53.1999V213.76H48.0298C47.6491 213.713 47.2627 213.747 46.8958 213.859C46.5289 213.971 46.1896 214.159 45.8998 214.41C45.5722 214.767 45.3934 215.236 45.3998 215.72C45.4005 216.071 45.4936 216.416 45.6698 216.72C45.8354 217.025 46.09 217.273 46.3998 217.43C46.9169 217.638 47.4733 217.73 48.0298 217.7H63.1099C63.4707 217.694 63.8205 217.575 64.1099 217.36C64.3772 217.154 64.5879 216.884 64.7226 216.574C64.8572 216.265 64.9114 215.926 64.8799 215.59V206.37C64.9353 206.003 64.9151 205.628 64.8205 205.268C64.7259 204.909 64.559 204.573 64.3299 204.28Z" fill="white"/>
<path d="M86.1998 204.37C86.7095 204.385 87.2171 204.298 87.6927 204.114C88.1684 203.931 88.6026 203.654 88.9698 203.3C89.3532 202.922 89.6562 202.47 89.8607 201.971C90.0652 201.473 90.1669 200.939 90.1598 200.4V191.15C90.1817 190.601 90.0939 190.052 89.9016 189.537C89.7093 189.022 89.4163 188.551 89.0398 188.15C88.6756 187.764 88.2348 187.459 87.7457 187.254C87.2566 187.05 86.73 186.949 86.1998 186.96H73.2598C72.8767 186.914 72.4883 186.949 72.1196 187.062C71.7509 187.176 71.4103 187.366 71.1199 187.62C70.798 187.977 70.6199 188.44 70.6199 188.92C70.6166 189.272 70.7098 189.618 70.8898 189.92C71.0499 190.229 71.3061 190.479 71.6199 190.63C72.138 190.847 72.6995 190.939 73.2598 190.9H86.1998V200.37H74.5698C74.0582 200.351 73.5481 200.437 73.0703 200.62C72.5925 200.804 72.1569 201.083 71.7898 201.44C71.3973 201.812 71.0876 202.262 70.8808 202.762C70.6741 203.262 70.575 203.799 70.5898 204.34V217.69H87.5698C88.1265 217.722 88.6833 217.63 89.1998 217.42C89.518 217.267 89.7832 217.023 89.9614 216.718C90.1396 216.413 90.2226 216.062 90.1998 215.71C90.2269 215.36 90.1455 215.01 89.9665 214.707C89.7876 214.405 89.5199 214.165 89.1998 214.02C88.6839 213.808 88.1266 213.716 87.5698 213.75H74.5698V204.37H86.1998Z" fill="white"/>
<path d="M114.89 203.93C114.605 203.354 114.234 202.824 113.79 202.36C114.253 201.926 114.62 201.401 114.868 200.817C115.116 200.233 115.239 199.604 115.23 198.97V190.37C115.233 189.898 115.126 189.432 114.915 189.01C114.705 188.588 114.398 188.221 114.02 187.94C113.293 187.299 112.358 186.944 111.39 186.94H98.3896C98.0066 186.894 97.6183 186.93 97.2497 187.043C96.8811 187.157 96.5405 187.347 96.2497 187.6C95.9279 187.956 95.7497 188.42 95.7497 188.9C95.7464 189.252 95.8397 189.598 96.0196 189.9C96.1826 190.207 96.438 190.456 96.7497 190.61C97.2679 190.827 97.8294 190.919 98.3896 190.88H111.25V197.88C111.266 198.236 111.232 198.593 111.15 198.94C111.084 199.225 110.938 199.485 110.73 199.69C110.547 199.895 110.321 200.057 110.069 200.166C109.817 200.275 109.544 200.327 109.27 200.32H102.27C101.891 200.273 101.507 200.307 101.143 200.421C100.779 200.535 100.444 200.726 100.16 200.98C99.8344 201.334 99.6558 201.799 99.6597 202.28C99.6507 202.631 99.7408 202.978 99.9197 203.28C100.078 203.584 100.326 203.832 100.63 203.99C101.147 204.21 101.709 204.306 102.27 204.27H109.21C109.511 204.256 109.811 204.307 110.09 204.419C110.37 204.531 110.622 204.702 110.83 204.92C111.184 205.41 111.36 206.006 111.33 206.61V213.69H98.3297C97.9474 213.643 97.5595 213.677 97.1909 213.788C96.8223 213.9 96.4813 214.088 96.1897 214.34C95.8704 214.702 95.6928 215.167 95.6897 215.65C95.6655 216.002 95.7479 216.354 95.9263 216.659C96.1046 216.964 96.3706 217.208 96.6897 217.36C97.2092 217.572 97.7697 217.664 98.3297 217.63H111.33C111.834 217.643 112.336 217.555 112.805 217.369C113.274 217.183 113.701 216.905 114.06 216.55C114.448 216.183 114.756 215.739 114.964 215.247C115.172 214.754 115.276 214.224 115.27 213.69V206.37C115.316 205.539 115.186 204.708 114.89 203.93Z" fill="white"/>
<path d="M138.69 203.74V193.02C138.724 192.457 138.632 191.893 138.42 191.37C138.275 191.05 138.035 190.782 137.733 190.603C137.43 190.424 137.08 190.343 136.73 190.37C136.381 190.349 136.033 190.432 135.731 190.611C135.43 190.789 135.189 191.053 135.04 191.37C134.831 191.894 134.739 192.457 134.77 193.02V203.74H126.98V189.63C127.029 189.248 126.997 188.859 126.885 188.49C126.773 188.121 126.584 187.78 126.33 187.49C126.017 187.216 125.626 187.047 125.212 187.006C124.798 186.964 124.381 187.053 124.02 187.26C123.72 187.424 123.474 187.67 123.31 187.97C123.097 188.496 123.005 189.063 123.04 189.63V207.63H134.77V215.06C134.725 215.438 134.76 215.82 134.872 216.184C134.984 216.547 135.171 216.883 135.42 217.17C135.782 217.489 136.247 217.667 136.73 217.67C137.082 217.673 137.427 217.579 137.73 217.4C138.034 217.242 138.282 216.994 138.44 216.69C138.65 216.174 138.742 215.617 138.71 215.06V207.63C139.202 207.626 139.676 207.441 140.04 207.11C140.253 206.927 140.423 206.697 140.535 206.439C140.648 206.181 140.701 205.901 140.69 205.62C140.67 204.54 140.01 203.9 138.69 203.74Z" fill="white"/>
<path d="M180.44 200.43H172.67V190.93H181.75C182.313 190.968 182.878 190.875 183.4 190.66C183.694 190.482 183.937 190.231 184.105 189.931C184.274 189.632 184.363 189.294 184.363 188.95C184.363 188.606 184.274 188.268 184.105 187.969C183.937 187.669 183.694 187.418 183.4 187.24C182.873 187.045 182.311 186.96 181.75 186.99H168.75V204.37H180.42V213.79H171.89H171.5C171.099 213.781 170.702 213.699 170.33 213.55L168.2 212.55C167.741 212.32 167.242 212.181 166.73 212.14C166.469 212.139 166.211 212.198 165.976 212.31C165.74 212.423 165.533 212.587 165.37 212.79C165.192 212.986 165.057 213.216 164.971 213.466C164.886 213.716 164.854 213.981 164.875 214.245C164.897 214.508 164.972 214.765 165.097 214.998C165.221 215.231 165.393 215.436 165.6 215.6C165.91 215.817 166.246 215.995 166.6 216.13L169.01 217.21C169.773 217.497 170.576 217.666 171.39 217.71H180.39C180.932 217.724 181.471 217.618 181.968 217.398C182.464 217.179 182.905 216.851 183.26 216.44C183.947 215.722 184.327 214.764 184.32 213.77V204.37C184.327 203.853 184.229 203.34 184.034 202.861C183.839 202.382 183.549 201.948 183.183 201.583C182.816 201.218 182.38 200.931 181.9 200.738C181.42 200.545 180.907 200.451 180.39 200.46L180.44 200.43Z" fill="white"/>
<path d="M209.07 204.23C208.898 204.039 208.688 203.886 208.454 203.781C208.22 203.676 207.966 203.621 207.71 203.62H194.02V190.9C195.32 190.76 196.02 190.13 196.02 189C196.026 188.504 195.848 188.022 195.52 187.65C195.34 187.439 195.116 187.271 194.864 187.157C194.611 187.043 194.337 186.986 194.06 186.99H192.06C191.568 186.977 191.091 187.157 190.73 187.49C190.539 187.663 190.387 187.874 190.285 188.111C190.183 188.347 190.134 188.603 190.14 188.86V215.68C190.134 215.941 190.18 216.2 190.276 216.442C190.372 216.684 190.516 216.905 190.7 217.09C190.892 217.289 191.124 217.447 191.381 217.552C191.637 217.657 191.913 217.707 192.19 217.7H207.57C207.856 217.707 208.14 217.654 208.405 217.546C208.67 217.437 208.91 217.275 209.11 217.07C209.462 216.694 209.656 216.196 209.65 215.68V205.74C209.664 205.462 209.619 205.184 209.519 204.924C209.419 204.664 209.266 204.427 209.07 204.23ZM205.69 213.76H194.02V207.55H205.69V213.76Z" fill="white"/>
<path d="M217.42 186.99C216.01 186.99 215.32 187.8 215.32 189.28V190.37C215.301 190.83 215.398 191.287 215.6 191.7C215.754 192.022 216.002 192.289 216.31 192.467C216.619 192.646 216.974 192.727 217.33 192.7C218.39 192.7 219.01 192.11 219.19 190.93H230.96V196.87C230.978 197.241 230.938 197.612 230.84 197.97C230.659 198.344 230.387 198.667 230.05 198.91L223.84 204.24C223.596 204.44 223.407 204.698 223.29 204.99C223.22 205.234 223.186 205.486 223.19 205.74V215.09C223.143 215.468 223.176 215.851 223.288 216.215C223.4 216.579 223.588 216.914 223.84 217.2C224.202 217.519 224.667 217.697 225.15 217.7C225.502 217.703 225.847 217.609 226.15 217.43C226.455 217.266 226.708 217.02 226.88 216.72C227.076 216.2 227.161 215.645 227.13 215.09V207.6C227.113 207.292 227.168 206.984 227.29 206.7C227.436 206.426 227.637 206.184 227.88 205.99L234.17 200.6C234.437 200.383 234.644 200.1 234.77 199.78C234.859 199.499 234.897 199.204 234.88 198.91V186.99H217.42Z" fill="white"/>
<path d="M259.09 201.78C258.707 201.363 258.244 201.027 257.728 200.791C257.213 200.556 256.656 200.426 256.09 200.41V189.11C256.117 188.581 255.934 188.064 255.58 187.67C255.403 187.452 255.178 187.277 254.924 187.16C254.669 187.042 254.39 186.984 254.11 186.99H246.43C246.127 186.981 245.826 187.044 245.552 187.172C245.278 187.301 245.037 187.492 244.85 187.73C244.551 188.127 244.396 188.613 244.41 189.11V200.37C243.459 200.42 242.549 200.77 241.81 201.37C241.381 201.722 241.038 202.167 240.808 202.671C240.577 203.175 240.465 203.726 240.48 204.28V213.93C240.486 214.418 240.591 214.899 240.787 215.345C240.982 215.792 241.266 216.195 241.62 216.53C242.322 217.229 243.269 217.627 244.26 217.64H256.09C257.093 217.657 258.062 217.28 258.79 216.59C259.183 216.219 259.496 215.771 259.708 215.274C259.919 214.776 260.026 214.241 260.02 213.7V204.5C260.039 203.512 259.71 202.549 259.09 201.78ZM248.36 190.93H252.17V200.37H248.36V190.93ZM256.1 213.76H244.42V204.37H256.1V213.76Z" fill="white"/>
<path d="M303.31 187.61C303.116 187.406 302.881 187.246 302.621 187.139C302.361 187.032 302.081 186.981 301.8 186.99H286.4C286.112 186.98 285.826 187.031 285.56 187.142C285.294 187.252 285.055 187.419 284.86 187.63C284.513 188.005 284.324 188.499 284.33 189.01V198.94C284.302 199.493 284.493 200.035 284.86 200.45C285.034 200.639 285.246 200.79 285.482 200.894C285.718 200.997 285.972 201.05 286.23 201.05H299.92V213.79C298.61 213.92 297.92 214.56 297.92 215.7C297.916 216.193 298.094 216.67 298.42 217.04C298.601 217.249 298.825 217.417 299.077 217.531C299.329 217.645 299.603 217.702 299.88 217.7H301.88C302.368 217.712 302.842 217.533 303.2 217.2C303.392 217.028 303.545 216.817 303.649 216.58C303.752 216.344 303.804 216.088 303.8 215.83V189.01C303.814 188.756 303.779 188.501 303.695 188.261C303.611 188.021 303.48 187.8 303.31 187.61ZM299.92 197.13H288.25V190.93H299.92V197.13Z" fill="white"/>
<path d="M327.92 188.15C327.568 187.776 327.141 187.479 326.668 187.28C326.194 187.08 325.684 186.981 325.17 186.99H313.46C312.952 186.982 312.447 187.078 311.978 187.272C311.508 187.467 311.084 187.755 310.73 188.12C310.354 188.484 310.057 188.921 309.856 189.404C309.654 189.888 309.554 190.407 309.56 190.93V213.76C309.552 214.287 309.653 214.811 309.856 215.298C310.059 215.784 310.36 216.224 310.74 216.59C311.075 216.936 311.476 217.213 311.919 217.403C312.362 217.594 312.838 217.695 313.32 217.7H325.17C325.688 217.701 326.201 217.598 326.679 217.397C327.156 217.196 327.589 216.901 327.95 216.53C328.305 216.212 328.589 215.824 328.785 215.39C328.981 214.956 329.085 214.486 329.09 214.01V191.13C329.105 190.58 329.009 190.033 328.808 189.521C328.607 189.009 328.305 188.543 327.92 188.15ZM325.17 213.76H313.46V190.93H325.17V213.76Z" fill="white"/>
<path d="M353.66 204.28C353.295 203.958 352.826 203.781 352.34 203.78C351.04 203.78 350.4 204.65 350.4 206.39V213.76H346.51V186.99H337.42C337.038 186.943 336.651 186.977 336.284 187.091C335.917 187.205 335.578 187.395 335.29 187.65C335.008 187.957 334.833 188.346 334.79 188.76C334.746 189.175 334.838 189.592 335.05 189.95C335.211 190.262 335.471 190.512 335.79 190.66C336.304 190.878 336.863 190.971 337.42 190.93H342.57V213.76H337.4C337.019 213.711 336.632 213.744 336.265 213.856C335.898 213.968 335.559 214.157 335.27 214.41C334.939 214.766 334.757 215.234 334.76 215.72C334.76 216.071 334.854 216.416 335.03 216.72C335.196 217.028 335.455 217.276 335.77 217.43C336.286 217.64 336.843 217.732 337.4 217.7H352.48C352.84 217.693 353.19 217.574 353.48 217.36C353.742 217.15 353.95 216.879 354.084 216.57C354.218 216.262 354.275 215.925 354.25 215.59V206.37C354.302 206 354.277 205.623 354.175 205.263C354.073 204.903 353.898 204.568 353.66 204.28Z" fill="white"/>
<path d="M375.57 204.37C376.08 204.386 376.587 204.299 377.063 204.115C377.539 203.931 377.973 203.654 378.34 203.3C378.725 202.924 379.029 202.472 379.232 201.973C379.435 201.474 379.533 200.939 379.52 200.4V191.15C379.543 190.602 379.457 190.055 379.268 189.54C379.08 189.026 378.791 188.553 378.42 188.15C378.053 187.765 377.611 187.46 377.12 187.255C376.629 187.05 376.101 186.95 375.57 186.96H362.57C362.188 186.913 361.801 186.947 361.434 187.061C361.067 187.175 360.728 187.365 360.44 187.62C360.166 187.931 359.997 188.32 359.954 188.732C359.911 189.144 359.997 189.559 360.2 189.92C360.361 190.232 360.621 190.482 360.94 190.63C361.454 190.848 362.013 190.941 362.57 190.9H375.57V200.37H363.97C363.457 200.354 362.946 200.44 362.467 200.624C361.988 200.808 361.55 201.085 361.18 201.44C360.793 201.816 360.489 202.267 360.286 202.766C360.083 203.266 359.985 203.801 360 204.34V217.69H376.91C377.47 217.723 378.03 217.631 378.55 217.42C378.869 217.268 379.135 217.024 379.313 216.719C379.492 216.414 379.574 216.063 379.55 215.71C379.577 215.36 379.496 215.01 379.317 214.707C379.138 214.405 378.87 214.165 378.55 214.02C378.031 213.805 377.47 213.713 376.91 213.75H363.97V204.37H375.57Z" fill="white"/>
<path d="M422.84 203.93C422.56 203.354 422.192 202.824 421.75 202.36C422.212 201.926 422.577 201.4 422.824 200.816C423.07 200.233 423.191 199.604 423.18 198.97V190.37C423.183 189.898 423.076 189.433 422.865 189.01C422.655 188.588 422.348 188.221 421.97 187.94C421.243 187.299 420.309 186.944 419.34 186.94H406.34C405.958 186.895 405.572 186.93 405.205 187.044C404.838 187.157 404.499 187.347 404.21 187.6C403.937 187.911 403.767 188.3 403.724 188.712C403.681 189.124 403.767 189.539 403.97 189.9C404.134 190.21 404.393 190.459 404.71 190.61C405.224 190.827 405.783 190.919 406.34 190.88H419.2V197.88C419.217 198.236 419.187 198.592 419.11 198.94C419.04 199.225 418.891 199.485 418.68 199.69C418.497 199.895 418.272 200.057 418.019 200.166C417.767 200.275 417.494 200.327 417.22 200.32H410.22C409.842 200.274 409.458 200.309 409.094 200.423C408.73 200.537 408.395 200.727 408.11 200.98C407.788 201.337 407.61 201.8 407.61 202.28C407.605 202.632 407.698 202.979 407.88 203.28C408.035 203.586 408.284 203.835 408.59 203.99C409.104 204.21 409.662 204.306 410.22 204.27H417.22C417.519 204.258 417.817 204.31 418.095 204.422C418.372 204.534 418.623 204.704 418.83 204.92C419.184 205.41 419.36 206.006 419.33 206.61V213.69H406.33C405.949 213.643 405.563 213.677 405.196 213.789C404.829 213.901 404.49 214.089 404.2 214.34C403.872 214.697 403.693 215.166 403.7 215.65C403.676 216.003 403.758 216.354 403.937 216.659C404.115 216.964 404.381 217.208 404.7 217.36C405.216 217.572 405.773 217.664 406.33 217.63H419.33C419.834 217.645 420.337 217.556 420.806 217.371C421.275 217.185 421.702 216.906 422.06 216.55C422.448 216.183 422.756 215.739 422.964 215.247C423.173 214.754 423.277 214.224 423.27 213.69V206.37C423.3 205.535 423.154 204.704 422.84 203.93Z" fill="white"/>
<path d="M446.64 203.74V193.02C446.674 192.457 446.582 191.893 446.37 191.37C446.224 191.051 445.984 190.784 445.682 190.605C445.38 190.426 445.03 190.344 444.68 190.37C444.331 190.35 443.983 190.434 443.682 190.612C443.381 190.79 443.14 191.054 442.99 191.37C442.781 191.894 442.689 192.457 442.72 193.02V203.74H434.94V189.63C434.988 189.247 434.954 188.858 434.84 188.489C434.727 188.12 434.536 187.779 434.28 187.49C433.967 187.216 433.576 187.047 433.162 187.006C432.748 186.964 432.331 187.053 431.97 187.26C431.67 187.424 431.424 187.67 431.26 187.97C431.053 188.498 430.961 189.064 430.99 189.63V207.63H442.72V215.06C442.678 215.437 442.714 215.82 442.826 216.183C442.937 216.546 443.123 216.882 443.37 217.17C443.732 217.489 444.197 217.667 444.68 217.67C445.032 217.675 445.378 217.582 445.68 217.4C445.982 217.239 446.229 216.992 446.39 216.69C446.6 216.174 446.692 215.617 446.66 215.06V207.63C447.153 207.632 447.629 207.446 447.99 207.11C448.202 206.925 448.37 206.696 448.482 206.438C448.595 206.18 448.649 205.901 448.64 205.62C448.62 204.54 447.96 203.9 446.64 203.74Z" fill="white"/>
<path d="M469.78 200.43H462.01V190.93H471.09C471.653 190.966 472.217 190.874 472.74 190.66C473.034 190.482 473.277 190.231 473.445 189.931C473.614 189.632 473.703 189.294 473.703 188.95C473.703 188.606 473.614 188.268 473.445 187.969C473.277 187.669 473.034 187.418 472.74 187.24C472.212 187.047 471.651 186.962 471.09 186.99H458.09V204.37H469.76V213.79H461.22H460.84C460.435 213.782 460.036 213.7 459.66 213.55L457.53 212.55C457.075 212.32 456.579 212.18 456.07 212.14C455.808 212.139 455.548 212.197 455.311 212.31C455.074 212.422 454.865 212.586 454.7 212.79C454.377 213.145 454.201 213.61 454.21 214.09C454.2 214.381 454.261 214.67 454.386 214.933C454.512 215.195 454.698 215.424 454.93 215.6C455.242 215.814 455.578 215.991 455.93 216.13L458.34 217.21C459.103 217.498 459.906 217.667 460.72 217.71H469.72C470.261 217.724 470.799 217.618 471.293 217.398C471.788 217.178 472.228 216.851 472.58 216.44C473.271 215.724 473.652 214.765 473.64 213.77V204.37C473.654 203.856 473.561 203.345 473.369 202.868C473.176 202.392 472.887 201.96 472.52 201.6C472.166 201.23 471.741 200.936 471.27 200.734C470.799 200.533 470.292 200.43 469.78 200.43Z" fill="white"/>
<path d="M498.41 204.23C498.236 204.039 498.025 203.886 497.789 203.781C497.553 203.676 497.298 203.621 497.04 203.62H483.35V190.9C484.66 190.76 485.35 190.13 485.35 189C485.356 188.504 485.178 188.022 484.85 187.65C484.668 187.44 484.442 187.271 484.188 187.157C483.934 187.043 483.658 186.986 483.38 186.99H481.38C480.889 186.981 480.413 187.16 480.05 187.49C479.86 187.664 479.71 187.876 479.608 188.112C479.506 188.348 479.456 188.603 479.46 188.86V215.68C479.46 215.948 479.513 216.213 479.617 216.459C479.722 216.706 479.874 216.929 480.067 217.116C480.259 217.302 480.486 217.448 480.736 217.545C480.985 217.642 481.252 217.688 481.52 217.68H496.92C497.206 217.685 497.49 217.631 497.754 217.523C498.019 217.415 498.259 217.254 498.46 217.05C498.812 216.674 499.006 216.176 499 215.66V205.72C499.009 205.444 498.962 205.17 498.86 204.913C498.759 204.657 498.605 204.424 498.41 204.23ZM495.02 213.76H483.35V207.55H495.02V213.76Z" fill="white"/>
<path d="M47.9996 262.043H50.0364V258.181C50.0364 257.267 50.3758 256.81 51.0547 256.81C51.3102 256.81 51.5421 256.897 51.7505 257.072C51.9723 257.267 52.0832 257.633 52.0832 258.171V263.001C52.0832 263.424 51.9488 263.734 51.6799 263.928C51.5186 264.049 51.3371 264.11 51.1354 264.11H43.2303C42.8472 264.11 42.5615 264.063 42.3733 263.969C42.2187 263.895 42.0909 263.771 41.9901 263.596C41.896 263.434 41.849 263.26 41.849 263.071C41.849 262.816 41.9363 262.587 42.1111 262.386C42.306 262.157 42.6791 262.043 43.2303 262.043H45.9427V250.074H43.2303C42.8404 250.074 42.5548 250.027 42.3733 249.933C42.2187 249.859 42.0909 249.735 41.9901 249.56C41.896 249.399 41.849 249.224 41.849 249.036C41.849 248.78 41.9363 248.552 42.1111 248.35C42.306 248.122 42.6791 248.007 43.2303 248.007H47.9996V262.043ZM58.7985 257.112V262.043H65.5844C65.9675 262.043 66.2532 262.09 66.4414 262.184C66.7842 262.352 66.9556 262.648 66.9556 263.071C66.9556 263.495 66.7842 263.794 66.4414 263.969C66.2599 264.063 65.9742 264.11 65.5844 264.11H56.7113V257.112C56.7113 256.501 56.9197 255.993 57.3365 255.59C57.7263 255.213 58.2137 255.025 58.7985 255.025H64.8785V250.074H58.0927C57.7028 250.074 57.4171 250.027 57.2356 249.933C57.081 249.859 56.9533 249.735 56.8525 249.56C56.7584 249.399 56.7113 249.224 56.7113 249.036C56.7113 248.78 56.7987 248.552 56.9735 248.35C57.1684 248.122 57.5415 248.007 58.0927 248.007H64.8785C65.4701 248.007 65.9675 248.216 66.3708 248.633C66.7607 249.049 66.9556 249.564 66.9556 250.175V255.025C66.9556 255.623 66.7473 256.131 66.3305 256.548C65.9406 256.924 65.4566 257.112 64.8785 257.112H58.7985ZM81.5357 249.873L73.7012 263.293C73.56 263.542 73.4424 263.713 73.3483 263.807C73.1533 264.009 72.9181 264.11 72.6425 264.11C72.3332 264.11 72.0778 263.996 71.8761 263.767C71.7014 263.566 71.614 263.354 71.614 263.132C71.614 262.903 71.7182 262.611 71.9266 262.255L79.7611 248.834C79.9022 248.586 80.0199 248.414 80.114 248.32C80.3089 248.112 80.5442 248.007 80.8198 248.007C81.129 248.007 81.3844 248.125 81.5861 248.36C81.7609 248.555 81.8482 248.767 81.8482 248.996C81.8482 249.217 81.7441 249.51 81.5357 249.873ZM88.5635 257.112V262.043H95.3494C95.7325 262.043 96.0182 262.09 96.2064 262.184C96.5493 262.352 96.7207 262.648 96.7207 263.071C96.7207 263.495 96.5493 263.794 96.2064 263.969C96.025 264.063 95.7393 264.11 95.3494 264.11H86.4763V257.112C86.4763 256.501 86.6847 255.993 87.1015 255.59C87.4914 255.213 87.9787 255.025 88.5635 255.025H94.6436V250.074H87.8577C87.4678 250.074 87.1822 250.027 87.0007 249.933C86.8461 249.859 86.7183 249.735 86.6175 249.56C86.5234 249.399 86.4763 249.224 86.4763 249.036C86.4763 248.78 86.5637 248.552 86.7385 248.35C86.9334 248.122 87.3065 248.007 87.8577 248.007H94.6436C95.2351 248.007 95.7325 248.216 96.1359 248.633C96.5257 249.049 96.7207 249.564 96.7207 250.175V255.025C96.7207 255.623 96.5123 256.131 96.0955 256.548C95.7057 256.924 95.2217 257.112 94.6436 257.112H88.5635ZM104.475 256.79H108.558V251.163C108.558 250.78 108.605 250.495 108.699 250.306C108.874 249.964 109.17 249.792 109.587 249.792C110.01 249.792 110.306 249.964 110.474 250.306C110.568 250.488 110.615 250.774 110.615 251.163V256.79C111.307 256.877 111.654 257.21 111.654 257.788C111.654 258.111 111.539 258.373 111.311 258.574C111.102 258.756 110.871 258.847 110.615 258.847V262.739C110.615 263.129 110.568 263.414 110.474 263.596C110.4 263.744 110.276 263.868 110.101 263.969C109.94 264.063 109.768 264.11 109.587 264.11C109.331 264.11 109.103 264.023 108.901 263.848C108.672 263.646 108.558 263.276 108.558 262.739V258.847H102.407V249.389C102.407 248.992 102.455 248.703 102.549 248.522C102.623 248.374 102.747 248.249 102.922 248.149C103.083 248.054 103.258 248.007 103.446 248.007C103.701 248.007 103.93 248.095 104.132 248.27C104.36 248.465 104.475 248.838 104.475 249.389V256.79Z" fill="white"/>
<path d="M50.0263 286.201V275.019C50.0263 274.629 50.07 274.343 50.1573 274.162C50.238 274.014 50.3657 273.889 50.5405 273.789C50.6951 273.694 50.8632 273.647 51.0447 273.647C51.737 273.647 52.0832 274.105 52.0832 275.019V289.75H49.3507L43.8958 277.328V288.379C43.8958 288.769 43.8487 289.054 43.7546 289.236C43.5799 289.579 43.2841 289.75 42.8673 289.75C42.6186 289.75 42.3867 289.663 42.1716 289.488C41.9431 289.293 41.8288 288.923 41.8288 288.379V273.647H44.5814L50.0263 286.201ZM58.7884 287.683H65.5944C65.9843 287.683 66.2734 287.73 66.4616 287.824C66.8044 287.992 66.9758 288.288 66.9758 288.711C66.9758 289.135 66.8044 289.434 66.4616 289.609C66.2734 289.703 65.9843 289.75 65.5944 289.75H56.7214V273.647H65.5944C65.991 273.647 66.2801 273.691 66.4616 273.779C66.6095 273.859 66.7338 273.987 66.8346 274.162C66.9288 274.323 66.9758 274.494 66.9758 274.676C66.9758 275.099 66.8044 275.399 66.4616 275.573C66.2734 275.667 65.9843 275.714 65.5944 275.714H58.7884V280.685H61.5511C62.4653 280.685 62.9224 281.028 62.9224 281.714C62.9224 282.406 62.4653 282.752 61.5511 282.752H58.7884V287.683ZM75.6774 275.714H73.6608V276.118C73.6608 276.508 73.6138 276.793 73.5197 276.975C73.3449 277.318 73.0458 277.489 72.6223 277.489C72.2055 277.489 71.9098 277.318 71.735 276.975C71.6409 276.787 71.5938 276.501 71.5938 276.118V273.647H81.8382V276.108L81.8482 276.289V276.4C81.8482 276.743 81.734 277.015 81.5054 277.217C81.3038 277.398 81.0752 277.489 80.8198 277.489C80.5643 277.489 80.3324 277.398 80.124 277.217C79.8955 277.022 79.7812 276.656 79.7812 276.118V275.714H77.7445V288.369C77.7445 288.765 77.7008 289.054 77.6134 289.236C77.5327 289.384 77.405 289.508 77.2302 289.609C77.0689 289.703 76.8941 289.75 76.7059 289.75C76.4505 289.75 76.2219 289.663 76.0203 289.488C75.7917 289.293 75.6774 288.92 75.6774 288.369V275.714ZM88.5534 287.683H95.3595C95.7494 287.683 96.0384 287.73 96.2266 287.824C96.5694 287.992 96.7408 288.288 96.7408 288.711C96.7408 289.135 96.5694 289.434 96.2266 289.609C96.0384 289.703 95.7494 289.75 95.3595 289.75H86.4864V273.647H95.3595C95.7561 273.647 96.0451 273.691 96.2266 273.779C96.3745 273.859 96.4989 273.987 96.5997 274.162C96.6938 274.323 96.7408 274.494 96.7408 274.676C96.7408 275.099 96.5694 275.399 96.2266 275.573C96.0384 275.667 95.7494 275.714 95.3595 275.714H88.5534V280.685H91.3162C92.2304 280.685 92.6875 281.028 92.6875 281.714C92.6875 282.406 92.2304 282.752 91.3162 282.752H88.5534V287.683ZM106.501 283.751L103.466 288.923C103.318 289.172 103.201 289.343 103.113 289.437C102.918 289.646 102.683 289.75 102.407 289.75C102.098 289.75 101.839 289.632 101.631 289.397C101.456 289.195 101.369 288.984 101.369 288.762C101.369 288.533 101.473 288.241 101.682 287.885L105.301 281.714L101.682 275.513C101.473 275.15 101.369 274.854 101.369 274.625C101.369 274.363 101.483 274.128 101.712 273.92C101.907 273.738 102.139 273.647 102.407 273.647C102.717 273.647 102.979 273.782 103.194 274.051C103.248 274.118 103.335 274.259 103.456 274.474L106.501 279.657L109.526 274.474C109.667 274.226 109.785 274.054 109.879 273.96C110.074 273.752 110.309 273.647 110.585 273.647C110.894 273.647 111.149 273.762 111.351 273.99C111.526 274.192 111.613 274.407 111.613 274.636C111.613 274.857 111.509 275.146 111.301 275.503L107.691 281.714L111.301 287.885C111.509 288.241 111.613 288.533 111.613 288.762C111.613 289.031 111.499 289.269 111.27 289.478C111.076 289.659 110.847 289.75 110.585 289.75C110.269 289.75 110 289.616 109.778 289.347C109.724 289.273 109.637 289.132 109.516 288.923L106.501 283.751ZM133.766 281.684L140.794 287.713C141.21 288.069 141.419 288.402 141.419 288.711C141.419 288.974 141.335 289.202 141.167 289.397C140.958 289.646 140.696 289.77 140.38 289.77C140.138 289.77 139.829 289.605 139.452 289.276L133.211 283.932V288.379C133.211 288.762 133.164 289.048 133.07 289.236C132.996 289.384 132.872 289.508 132.697 289.609C132.536 289.703 132.364 289.75 132.183 289.75C131.927 289.75 131.695 289.659 131.487 289.478C131.258 289.283 131.144 288.916 131.144 288.379V275.019C131.144 274.105 131.49 273.647 132.183 273.647C132.606 273.647 132.902 273.819 133.07 274.162C133.164 274.343 133.211 274.629 133.211 275.019V279.435L139.463 274.121C139.826 273.792 140.135 273.627 140.39 273.627C140.699 273.627 140.958 273.752 141.167 274C141.328 274.195 141.409 274.424 141.409 274.686C141.409 275.002 141.204 275.335 140.794 275.684L133.766 281.684ZM154.234 284.507H152.52C152.13 284.507 151.841 284.46 151.653 284.366C151.31 284.191 151.139 283.895 151.139 283.478C151.139 283.223 151.226 282.991 151.401 282.783C151.602 282.554 151.976 282.44 152.52 282.44H156.291V286.755C156.284 287.609 155.958 288.332 155.313 288.923C154.742 289.461 154.046 289.737 153.226 289.75H149.142C148.302 289.763 147.563 289.458 146.924 288.832C146.332 288.248 146.037 287.512 146.037 286.624V280.948C146.057 279.973 146.369 279.116 146.974 278.376L149.727 274.857C150.372 274.071 151.206 273.668 152.228 273.647H154.89C155.279 273.647 155.565 273.691 155.747 273.779C155.894 273.859 156.019 273.987 156.12 274.162C156.214 274.323 156.261 274.494 156.261 274.676C156.261 275.099 156.089 275.399 155.747 275.573C155.565 275.667 155.279 275.714 154.89 275.714H152.5C152.103 275.714 151.831 275.758 151.683 275.846C151.549 275.926 151.381 276.098 151.179 276.36L148.618 279.647C148.268 280.07 148.097 280.591 148.104 281.21V286.443C148.097 286.779 148.161 287.051 148.295 287.259C148.504 287.535 148.84 287.676 149.304 287.683H153.095C153.888 287.676 154.268 287.263 154.234 286.443V284.507Z" fill="white"/>
<path d="M67.3197 113.81C65.6384 116.559 64.7491 119.718 64.7498 122.94V132.81H45.4497V125.52C45.451 123.981 45.7555 122.457 46.3457 121.036C46.9359 119.614 47.8003 118.323 48.8895 117.236C49.9788 116.148 51.2714 115.286 52.6938 114.698C54.1163 114.111 55.6406 113.809 57.1797 113.81H67.3197Z" fill="url(#paint1_linear_202_1484)"/>
<path d="M92.7199 139.58V144.1C92.718 145.667 93.2605 147.186 94.2546 148.397C95.2487 149.608 96.6327 150.436 98.1699 150.74V161.37C98.1768 164.389 97.316 167.346 95.6899 169.89H68.8898C67.2637 167.346 66.4029 164.389 66.4099 161.37V150.69C67.9036 150.35 69.2376 149.513 70.1933 148.316C71.149 147.118 71.6695 145.632 71.6699 144.1V139.58C71.6695 138.048 71.149 136.562 70.1933 135.364C69.2376 134.167 67.9036 133.33 66.4099 132.99V122.99C66.3939 119.716 67.4124 116.521 69.3199 113.86H95.3199C97.2196 116.524 98.234 119.718 98.2199 122.99V132.99C96.6819 133.282 95.2928 134.098 94.2897 135.3C93.2867 136.502 92.7319 138.015 92.7199 139.58Z" fill="url(#paint2_linear_202_1484)"/>
<path d="M69.9998 139.58V144.1C70.0032 145.191 69.6561 146.254 69.0098 147.132C68.3634 148.011 67.4519 148.659 66.4097 148.98C65.9197 149.128 65.4113 149.205 64.8997 149.21H45.4497V134.48H64.8997C65.4105 134.486 65.9182 134.56 66.4097 134.7C67.4519 135.021 68.3634 135.669 69.0098 136.548C69.6561 137.426 70.0032 138.489 69.9998 139.58Z" fill="url(#paint3_linear_202_1484)"/>
<path d="M66.9597 169.88H57.1797C55.6406 169.881 54.1163 169.579 52.6938 168.992C51.2714 168.404 49.9788 167.542 48.8895 166.454C47.8003 165.367 46.9359 164.076 46.3457 162.654C45.7555 161.233 45.451 159.709 45.4497 158.17V150.87H64.7498V161.37C64.7435 164.349 65.5046 167.28 66.9597 169.88Z" fill="url(#paint4_linear_202_1484)"/>
<path d="M119.13 150.87V158.17C119.129 159.709 118.824 161.233 118.234 162.654C117.644 164.076 116.779 165.367 115.69 166.454C114.601 167.542 113.308 168.404 111.886 168.992C110.463 169.579 108.939 169.881 107.4 169.88H97.6199C99.0797 167.278 99.8443 164.344 99.8398 161.36V150.87H119.13Z" fill="url(#paint5_linear_202_1484)"/>
<path d="M119.13 125.52V132.81H99.8398V122.94C99.837 119.717 98.9441 116.558 97.2598 113.81H107.4C108.939 113.807 110.464 114.108 111.887 114.696C113.31 115.283 114.604 116.145 115.693 117.233C116.782 118.32 117.647 119.612 118.237 121.034C118.826 122.456 119.13 123.981 119.13 125.52Z" fill="url(#paint6_linear_202_1484)"/>
<path d="M119.13 134.48V149.21H99.4799C99.0373 149.206 98.5971 149.145 98.1698 149.03C97.0809 148.742 96.1174 148.103 95.4286 147.211C94.7398 146.32 94.3642 145.226 94.3599 144.1V139.58C94.3642 138.454 94.7398 137.36 95.4286 136.469C96.1174 135.577 97.0809 134.938 98.1698 134.65C98.5975 134.538 99.0378 134.481 99.4799 134.48H119.13Z" fill="url(#paint7_linear_202_1484)"/>
<path d="M423.45 316.64H421.45V311.91C421.454 311.827 421.454 311.743 421.45 311.66C421.45 311.59 421.45 311.5 421.45 311.44C421.45 311.38 421.45 311.27 421.38 311.22C421.359 311.036 421.29 310.86 421.18 310.71C421.009 310.411 420.735 310.184 420.41 310.07C420.088 309.962 419.747 309.924 419.41 309.96C419.26 309.97 419.112 310 418.97 310.05C418.831 310.089 418.7 310.15 418.58 310.23C418.407 310.336 418.255 310.471 418.13 310.63C417.994 310.817 417.886 311.022 417.81 311.24C417.81 311.32 417.81 311.41 417.75 311.5C417.735 311.656 417.735 311.814 417.75 311.97C417.715 312.379 417.715 312.791 417.75 313.2C417.75 314.28 417.75 315.36 417.75 316.45V316.64H416.01C416 316.607 416 316.573 416.01 316.54C416.005 316.497 416.005 316.453 416.01 316.41V311.78C415.99 311.482 415.926 311.189 415.82 310.91C415.712 310.654 415.54 310.43 415.32 310.26C415.173 310.152 415.007 310.074 414.83 310.03C414.684 309.982 414.533 309.955 414.38 309.95H414.03C413.738 309.972 413.453 310.05 413.19 310.18C413.109 310.223 413.032 310.273 412.96 310.33C412.822 310.45 412.701 310.588 412.6 310.74C412.492 310.906 412.411 311.088 412.36 311.28C412.303 311.512 412.276 311.751 412.28 311.99V316.57V316.63H410.55V308.37H412.28L412.34 308.42V309.37L412.7 308.98C412.899 308.765 413.141 308.595 413.41 308.48C413.609 308.383 413.821 308.316 414.04 308.28C414.198 308.247 414.359 308.224 414.52 308.21C414.679 308.195 414.84 308.195 415 308.21H415.33L415.64 308.27L415.95 308.36C416.246 308.461 416.518 308.621 416.75 308.83L416.91 308.95C417.116 309.145 417.294 309.367 417.44 309.61C417.44 309.54 417.55 309.51 417.59 309.43C417.63 309.362 417.684 309.304 417.75 309.26C417.933 309.048 418.145 308.863 418.38 308.71C418.66 308.538 418.963 308.407 419.28 308.32L419.93 308.19C420.166 308.175 420.403 308.175 420.64 308.19C420.849 308.195 421.058 308.225 421.26 308.28C421.459 308.322 421.654 308.386 421.84 308.47C422.115 308.578 422.369 308.734 422.59 308.93C422.784 309.083 422.95 309.27 423.08 309.48C423.262 309.731 423.391 310.017 423.46 310.32L423.58 310.93C423.59 311.087 423.59 311.244 423.58 311.4V316.58L423.45 316.64Z" fill="white"/>
<path d="M498.36 305.19V309.44C498.307 309.36 498.25 309.284 498.19 309.21L497.9 308.97C497.753 308.839 497.592 308.725 497.42 308.63C497.133 308.468 496.817 308.362 496.49 308.32C496.41 308.26 496.29 308.32 496.21 308.32C496.101 308.3 495.989 308.3 495.88 308.32C495.741 308.3 495.599 308.3 495.46 308.32C495.33 308.37 495.18 308.32 495.04 308.38C494.9 308.44 494.75 308.38 494.62 308.47C494.393 308.537 494.172 308.624 493.96 308.73C493.645 308.877 493.355 309.073 493.1 309.31L492.81 309.6C492.699 309.707 492.599 309.824 492.51 309.95C492.287 310.259 492.106 310.595 491.97 310.95C491.813 311.366 491.728 311.806 491.72 312.25C491.734 312.323 491.734 312.397 491.72 312.47C491.703 312.495 491.693 312.525 491.693 312.555C491.693 312.585 491.703 312.615 491.72 312.64C491.77 312.72 491.72 312.8 491.72 312.88C491.71 312.98 491.71 313.08 491.72 313.18V313.35C491.716 313.407 491.716 313.463 491.72 313.52C491.729 313.62 491.752 313.717 491.79 313.81C491.85 314 491.91 314.18 491.98 314.37C492.129 314.736 492.339 315.074 492.6 315.37C492.708 315.517 492.836 315.648 492.98 315.76C493.068 315.828 493.151 315.901 493.23 315.98C493.552 316.234 493.913 316.433 494.3 316.57C494.453 316.645 494.62 316.686 494.79 316.69C494.85 316.75 494.93 316.69 495.01 316.74C495.148 316.785 495.294 316.805 495.44 316.8C495.698 316.84 495.961 316.84 496.22 316.8C496.35 316.8 496.48 316.8 496.59 316.8C496.788 316.759 496.98 316.692 497.16 316.6C497.279 316.582 497.39 316.529 497.48 316.45C497.597 316.394 497.702 316.316 497.79 316.22C497.79 316.22 497.86 316.15 497.91 316.14C497.97 316.109 498.019 316.06 498.05 316C498.11 315.89 498.22 315.82 498.28 315.71V316.71C498.876 316.742 499.474 316.742 500.07 316.71V305.18C499.57 305.16 498.57 305.17 498.36 305.19ZM498.52 312.75C498.513 313.031 498.456 313.309 498.35 313.57C498.238 313.886 498.057 314.173 497.82 314.41C497.659 314.589 497.47 314.741 497.26 314.86C497.017 314.993 496.753 315.084 496.48 315.13C496.278 315.164 496.072 315.164 495.87 315.13C495.605 315.099 495.346 315.032 495.1 314.93C494.762 314.786 494.458 314.571 494.21 314.3C494.052 314.109 493.921 313.897 493.82 313.67C493.749 313.523 493.695 313.369 493.66 313.21C493.589 312.882 493.565 312.545 493.59 312.21C493.59 312.1 493.59 311.97 493.65 311.85C493.706 311.577 493.804 311.314 493.94 311.07C494.056 310.836 494.22 310.628 494.42 310.46C494.582 310.31 494.768 310.189 494.97 310.1C495.178 310.008 495.396 309.941 495.62 309.9C495.849 309.87 496.081 309.87 496.31 309.9C496.546 309.92 496.779 309.974 497 310.06C497.148 310.127 497.292 310.204 497.43 310.29C497.622 310.413 497.794 310.564 497.94 310.74C498 310.81 498.05 310.9 498.11 310.98C498.258 311.227 498.372 311.493 498.45 311.77C498.513 312.021 498.537 312.281 498.52 312.54V312.75Z" fill="white"/>
<path d="M483.62 308.37H481.88V309.37C481.78 309.37 481.81 309.31 481.77 309.28C481.49 308.966 481.15 308.711 480.77 308.53C480.628 308.438 480.467 308.38 480.3 308.36C480.3 308.3 480.18 308.36 480.15 308.36C480.12 308.36 480.01 308.36 479.96 308.36C479.91 308.36 479.76 308.36 479.67 308.31C479.571 308.285 479.468 308.285 479.37 308.31C479.191 308.28 479.009 308.28 478.83 308.31C478.75 308.31 478.67 308.31 478.58 308.31C478.49 308.31 478.42 308.31 478.33 308.31C478.047 308.362 477.774 308.457 477.52 308.59C477.106 308.771 476.732 309.033 476.42 309.36C476.299 309.474 476.189 309.597 476.09 309.73C475.936 309.919 475.802 310.123 475.69 310.34C475.62 310.47 475.55 310.62 475.49 310.76C475.415 310.966 475.351 311.177 475.3 311.39C475.297 311.43 475.297 311.47 475.3 311.51C475.3 311.51 475.3 311.62 475.3 311.66C475.3 311.7 475.3 311.87 475.24 311.98C475.21 312.095 475.21 312.215 475.24 312.33C475.225 312.57 475.225 312.81 475.24 313.05C475.24 313.21 475.24 313.37 475.33 313.52C475.401 313.843 475.505 314.158 475.64 314.46C475.79 314.788 475.989 315.091 476.23 315.36C476.387 315.536 476.558 315.7 476.74 315.85C476.89 315.98 477.07 316.07 477.22 316.2C477.53 316.382 477.868 316.514 478.22 316.59C478.468 316.678 478.727 316.729 478.99 316.74C479.159 316.76 479.33 316.76 479.5 316.74C479.663 316.76 479.827 316.76 479.99 316.74C480.179 316.703 480.366 316.656 480.55 316.6C480.92 316.488 481.261 316.297 481.55 316.04C481.691 315.904 481.824 315.76 481.95 315.61V316.61H483.7C483.701 316.577 483.701 316.543 483.7 316.51C483.705 316.463 483.705 316.417 483.7 316.37V308.43L483.62 308.37ZM482.04 312.61C482.045 312.683 482.045 312.757 482.04 312.83C482.04 312.89 482.04 312.98 482.04 313.05C482.014 313.287 481.946 313.517 481.84 313.73C481.769 313.888 481.678 314.036 481.57 314.17C481.513 314.251 481.449 314.328 481.38 314.4C481.191 314.59 480.975 314.752 480.74 314.88C480.634 314.934 480.524 314.977 480.41 315.01L480.08 315.09C479.871 315.12 479.659 315.12 479.45 315.09C479.304 315.083 479.159 315.056 479.02 315.01C478.824 314.953 478.633 314.88 478.45 314.79C478.286 314.701 478.134 314.59 478 314.46L477.73 314.18C477.669 314.113 477.615 314.039 477.57 313.96C477.514 313.88 477.464 313.797 477.42 313.71C477.364 313.603 477.323 313.489 477.3 313.37C477.231 313.173 477.187 312.968 477.17 312.76C477.16 312.624 477.16 312.486 477.17 312.35C477.189 311.982 477.27 311.621 477.41 311.28C477.489 311.079 477.597 310.89 477.73 310.72C477.865 310.553 478.02 310.402 478.19 310.27C478.406 310.116 478.646 309.998 478.9 309.92L479.23 309.84C479.38 309.84 479.52 309.84 479.67 309.84C479.82 309.84 480.03 309.84 480.2 309.9C480.34 309.928 480.477 309.968 480.61 310.02C480.774 310.093 480.931 310.18 481.08 310.28C481.462 310.567 481.762 310.95 481.95 311.39C481.95 311.55 482.08 311.7 482.07 311.87C482.06 312.04 482.07 312.12 482.14 312.25C482.13 312.388 482.096 312.524 482.04 312.65V312.61Z" fill="white"/>
<path d="M433.51 308.37H431.76V309.37C431.689 309.263 431.602 309.168 431.5 309.09C431.389 308.967 431.265 308.856 431.13 308.76C430.986 308.661 430.831 308.577 430.67 308.51C430.533 308.439 430.389 308.382 430.24 308.34C430.119 308.306 429.995 308.283 429.87 308.27C429.81 308.2 429.73 308.27 429.66 308.27C429.58 308.26 429.5 308.26 429.42 308.27C429.2 308.27 428.99 308.27 428.77 308.27C428.55 308.27 428.42 308.32 428.25 308.36C428.011 308.414 427.777 308.487 427.55 308.58C427.104 308.769 426.7 309.045 426.36 309.39C426.252 309.496 426.152 309.61 426.06 309.73C425.89 309.93 425.742 310.148 425.62 310.38C425.539 310.533 425.465 310.69 425.4 310.85C425.347 310.994 425.304 311.141 425.27 311.29C425.214 311.43 425.184 311.579 425.18 311.73C425.12 311.73 425.18 311.85 425.18 311.92C425.176 311.983 425.176 312.047 425.18 312.11V312.6C425.17 312.766 425.17 312.933 425.18 313.1C425.18 313.3 425.25 313.51 425.3 313.72C425.362 313.984 425.456 314.239 425.58 314.48C425.64 314.61 425.7 314.75 425.77 314.87C425.899 315.088 426.05 315.292 426.22 315.48C426.38 315.63 426.52 315.78 426.68 315.91C426.849 316.043 427.026 316.167 427.21 316.28C427.528 316.444 427.863 316.572 428.21 316.66C428.462 316.728 428.72 316.772 428.98 316.79C429.242 316.825 429.508 316.825 429.77 316.79C429.93 316.79 430.1 316.79 430.27 316.7C430.445 316.66 430.616 316.603 430.78 316.53C430.983 316.435 431.177 316.321 431.36 316.19C431.487 316.078 431.608 315.957 431.72 315.83C431.72 315.83 431.72 315.76 431.72 315.74C431.751 315.704 431.784 315.671 431.82 315.64C431.82 316 431.82 316.33 431.82 316.64H433.56V308.51C433.56 308.51 433.57 308.43 433.51 308.37ZM431.84 312.69C431.83 312.776 431.83 312.864 431.84 312.95C431.84 313.04 431.84 313.11 431.84 313.21C431.821 313.289 431.794 313.366 431.76 313.44C431.722 313.515 431.689 313.592 431.66 313.67C431.578 313.872 431.467 314.06 431.33 314.23C431.26 314.31 431.2 314.39 431.13 314.46C430.96 314.629 430.764 314.771 430.55 314.88C430.336 314.987 430.107 315.058 429.87 315.09C429.657 315.115 429.443 315.115 429.23 315.09C429.078 315.073 428.928 315.046 428.78 315.01C428.548 314.927 428.324 314.823 428.11 314.7C428.04 314.672 427.978 314.627 427.93 314.57C427.643 314.349 427.41 314.065 427.25 313.74C427.133 313.519 427.058 313.278 427.03 313.03C426.94 312.94 427.03 312.82 426.98 312.72C426.959 312.621 426.959 312.519 426.98 312.42C426.961 312.331 426.961 312.239 426.98 312.15C426.98 312.07 426.98 311.96 427.03 311.87C427.057 311.512 427.178 311.167 427.38 310.87C427.415 310.793 427.462 310.722 427.52 310.66C427.733 310.388 428.002 310.166 428.31 310.01C428.535 309.897 428.779 309.825 429.03 309.8C429.09 309.8 429.15 309.8 429.23 309.8H429.44C429.614 309.81 429.788 309.83 429.96 309.86C430.231 309.918 430.491 310.019 430.73 310.16C430.952 310.306 431.154 310.481 431.33 310.68C431.407 310.779 431.477 310.882 431.54 310.99C431.689 311.251 431.793 311.535 431.85 311.83C431.844 311.92 431.844 312.01 431.85 312.1C431.863 312.193 431.863 312.287 431.85 312.38C431.862 312.497 431.858 312.614 431.84 312.73V312.69Z" fill="white"/>
<path d="M457.95 314.55C457.762 314.676 457.565 314.786 457.36 314.88C457.158 314.969 456.951 315.045 456.74 315.11C456.52 315.17 456.28 315.19 456.06 315.24C455.917 315.25 455.773 315.25 455.63 315.24C455.494 315.26 455.356 315.26 455.22 315.24C455.1 315.24 454.95 315.24 454.84 315.12C454.73 315 454.7 315.06 454.62 315.05C454.467 314.993 454.322 314.916 454.19 314.82C454.104 314.769 454.027 314.705 453.96 314.63C453.883 314.565 453.819 314.488 453.77 314.4C453.77 314.29 453.62 314.22 453.57 314.11C453.47 313.865 453.383 313.614 453.31 313.36H459.31C459.33 312.725 459.3 312.09 459.22 311.46C459.204 311.318 459.177 311.178 459.14 311.04C459.041 310.719 458.914 310.408 458.76 310.11C458.637 309.89 458.493 309.682 458.33 309.49C458.137 309.268 457.915 309.073 457.67 308.91C457.428 308.771 457.177 308.647 456.92 308.54C456.754 308.473 456.584 308.42 456.41 308.38C456.25 308.336 456.085 308.312 455.92 308.31C455.508 308.284 455.095 308.307 454.69 308.38C454.55 308.38 454.4 308.38 454.27 308.47C453.839 308.603 453.434 308.805 453.07 309.07C453 309.07 452.95 309.18 452.89 309.22C452.646 309.382 452.438 309.593 452.28 309.84C452.071 310.108 451.903 310.404 451.78 310.72C451.664 311.011 451.577 311.312 451.52 311.62C451.53 311.73 451.53 311.84 451.52 311.95C451.504 312.053 451.504 312.157 451.52 312.26C451.5 312.593 451.5 312.927 451.52 313.26C451.52 313.43 451.59 313.62 451.61 313.8C451.643 313.947 451.69 314.091 451.75 314.23C451.81 314.37 451.85 314.51 451.92 314.64C451.967 314.749 452.023 314.852 452.09 314.95C452.186 315.125 452.3 315.289 452.43 315.44C452.705 315.786 453.044 316.074 453.43 316.29C453.659 316.436 453.908 316.547 454.17 316.62C454.363 316.685 454.56 316.739 454.76 316.78C454.83 316.78 454.9 316.78 454.98 316.78C455.055 316.8 455.135 316.8 455.21 316.78C455.29 316.78 455.35 316.78 455.43 316.78C455.73 316.78 456.03 316.78 456.34 316.78C456.43 316.78 456.55 316.78 456.64 316.78C456.73 316.78 457.02 316.69 457.22 316.63C457.469 316.561 457.713 316.474 457.95 316.37C458.144 316.284 458.331 316.184 458.51 316.07C458.673 315.97 458.83 315.86 458.98 315.74L458.12 314.45L457.95 314.55ZM453.54 311.19C453.621 310.934 453.761 310.701 453.95 310.51C454.06 310.37 454.191 310.248 454.34 310.15C454.578 309.997 454.843 309.889 455.12 309.83C455.399 309.795 455.681 309.795 455.96 309.83C456.294 309.864 456.611 309.996 456.87 310.21C457.021 310.318 457.15 310.453 457.25 310.61C457.38 310.799 457.478 311.009 457.54 311.23C457.59 311.348 457.62 311.473 457.63 311.6C457.62 311.649 457.62 311.701 457.63 311.75H453.34C453.395 311.555 453.473 311.368 453.57 311.19H453.54Z" fill="white"/>
<path d="M435.17 315.76L436.02 314.4C436.256 314.558 436.503 314.698 436.76 314.82C436.936 314.9 437.116 314.97 437.3 315.03L437.7 315.14C437.888 315.163 438.075 315.196 438.26 315.24H439C439.293 315.235 439.583 315.184 439.86 315.09C440.022 315.034 440.173 314.953 440.31 314.85C440.391 314.795 440.459 314.724 440.51 314.64C440.594 314.539 440.637 314.411 440.63 314.28V314.06C440.488 313.82 440.259 313.645 439.99 313.57C439.784 313.5 439.574 313.447 439.36 313.41C439.16 313.41 438.97 313.34 438.77 313.33C438.57 313.32 438.56 313.33 438.46 313.33C438.36 313.33 438.25 313.26 438.14 313.33C438.03 313.4 437.83 313.33 437.68 313.22C437.53 313.11 437.39 313.15 437.25 313.1C436.918 312.987 436.605 312.825 436.32 312.62C436.044 312.417 435.826 312.144 435.69 311.83C435.599 311.642 435.548 311.438 435.54 311.23C435.546 311.153 435.546 311.077 435.54 311C435.525 310.907 435.525 310.813 435.54 310.72C435.54 310.63 435.54 310.54 435.54 310.44C435.582 310.233 435.65 310.031 435.74 309.84C435.825 309.662 435.94 309.5 436.08 309.36C436.162 309.268 436.248 309.182 436.34 309.1C436.576 308.898 436.843 308.736 437.13 308.62L437.61 308.47C437.708 308.437 437.808 308.414 437.91 308.4C438.432 308.315 438.962 308.285 439.49 308.31C439.58 308.31 439.67 308.37 439.76 308.31C439.845 308.29 439.934 308.29 440.02 308.31H440.32C440.66 308.363 440.995 308.446 441.32 308.56C441.631 308.674 441.926 308.825 442.2 309.01H442.27L441.51 310.47L441.09 310.29C440.811 310.164 440.519 310.066 440.22 310C440.12 309.91 439.99 309.93 439.87 309.9L439.51 309.84C439.347 309.825 439.183 309.825 439.02 309.84C438.85 309.825 438.68 309.825 438.51 309.84C438.299 309.867 438.094 309.924 437.9 310.01C437.78 310.065 437.673 310.145 437.587 310.245C437.501 310.346 437.437 310.463 437.4 310.59C437.367 310.715 437.378 310.848 437.431 310.966C437.484 311.084 437.575 311.181 437.69 311.24C437.863 311.34 438.053 311.408 438.25 311.44L438.72 311.52C438.846 311.51 438.974 311.51 439.1 311.52C439.22 311.52 439.35 311.52 439.47 311.52C439.75 311.59 440.04 311.63 440.33 311.7C440.678 311.784 441.014 311.912 441.33 312.08C441.486 312.156 441.628 312.257 441.75 312.38C441.923 312.53 442.071 312.705 442.19 312.9C442.269 313.048 442.335 313.202 442.39 313.36C442.459 313.688 442.483 314.025 442.46 314.36C442.454 314.488 442.423 314.614 442.37 314.73C442.304 314.91 442.216 315.081 442.11 315.24C441.949 315.465 441.757 315.667 441.54 315.84C441.314 316.014 441.065 316.156 440.8 316.26C440.614 316.347 440.42 316.414 440.22 316.46C440.076 316.478 439.934 316.515 439.8 316.57C439.66 316.57 439.53 316.57 439.39 316.57C439.302 316.545 439.208 316.545 439.12 316.57C439.027 316.585 438.933 316.585 438.84 316.57H438.57C438.47 316.57 438.38 316.57 438.28 316.57H437.97C437.884 316.56 437.796 316.56 437.71 316.57C437.63 316.575 437.55 316.575 437.47 316.57H437.22L436.89 316.49L436.56 316.39C436.289 316.292 436.025 316.175 435.77 316.04C435.57 316 435.36 315.89 435.17 315.76Z" fill="white"/>
<path d="M450.39 316.2L450.08 316.35C449.808 316.481 449.523 316.582 449.23 316.65L448.58 316.77C448.327 316.795 448.073 316.795 447.82 316.77C447.573 316.754 447.329 316.714 447.09 316.65C446.896 316.596 446.709 316.522 446.53 316.43C446.416 316.378 446.314 316.303 446.23 316.21L445.98 315.97C445.792 315.737 445.641 315.478 445.53 315.2C445.53 314.99 445.43 314.8 445.41 314.59C445.39 314.38 445.41 314.28 445.41 314.14C445.385 313.944 445.385 313.746 445.41 313.55C445.41 313.36 445.41 313.16 445.41 312.97V309.97H443.82V308.37H445.4V305.93H447.19V308.37H450.11V310H447.19V310.11C447.19 311.33 447.19 312.56 447.19 313.78C447.184 314.046 447.249 314.308 447.38 314.54C447.455 314.668 447.558 314.777 447.681 314.86C447.804 314.943 447.943 314.998 448.09 315.02C448.246 315.03 448.403 315.03 448.56 315.02C448.629 315.03 448.7 315.03 448.77 315.02C448.85 315.02 448.93 315.02 448.99 315.02C449.132 315.016 449.272 314.982 449.4 314.92L449.68 314.8L449.94 314.67L450.39 316.2Z" fill="white"/>
<path d="M474.34 309.18L473.49 310.63L473.38 310.57C473.148 310.4 472.896 310.259 472.63 310.15C472.48 310.08 472.32 310.04 472.17 309.98C472.02 309.92 472 309.98 471.95 309.92C471.677 309.895 471.403 309.895 471.13 309.92C470.944 309.952 470.76 309.995 470.58 310.05C470.379 310.11 470.187 310.197 470.01 310.31C469.798 310.447 469.609 310.615 469.45 310.81C469.329 310.956 469.228 311.117 469.15 311.29C469.034 311.489 468.962 311.711 468.94 311.94C468.85 312.04 468.94 312.18 468.86 312.28C468.78 312.38 468.86 312.52 468.86 312.64C468.84 312.739 468.84 312.841 468.86 312.94C468.86 313.02 468.86 313.13 468.86 313.21C468.888 313.457 468.959 313.697 469.07 313.92C469.108 314.016 469.158 314.107 469.22 314.19C469.356 314.387 469.522 314.562 469.71 314.71C469.965 314.925 470.272 315.069 470.6 315.13C470.69 315.21 470.81 315.13 470.92 315.2C471.042 315.22 471.167 315.22 471.29 315.2C471.403 315.215 471.517 315.215 471.63 315.2C471.913 315.156 472.192 315.082 472.46 314.98C472.742 314.861 473.013 314.717 473.27 314.55L473.38 314.5L474.21 315.93C474.099 316.046 473.971 316.144 473.83 316.22C473.54 316.406 473.227 316.554 472.9 316.66C472.767 316.718 472.625 316.752 472.48 316.76C472.4 316.83 472.29 316.76 472.21 316.81C472.13 316.86 472.02 316.81 471.93 316.81C471.637 316.84 471.342 316.84 471.05 316.81C470.957 316.825 470.862 316.825 470.77 316.81C470.68 316.81 470.59 316.81 470.49 316.81C470.39 316.81 470.33 316.81 470.26 316.76C470.09 316.755 469.923 316.714 469.77 316.64C469.558 316.589 469.353 316.512 469.16 316.41C468.891 316.277 468.639 316.113 468.41 315.92C468.41 315.86 468.28 315.82 468.23 315.76C467.855 315.409 467.552 314.988 467.34 314.52C467.235 314.297 467.157 314.062 467.11 313.82C467.03 313.76 467.11 313.66 467.03 313.59C466.95 313.52 467.03 313.45 467.03 313.37C467.03 313.29 467.03 313.2 467.03 313.13C467.01 312.981 467.01 312.829 467.03 312.68V312.23C467.025 312.157 467.025 312.083 467.03 312.01C467.03 311.94 467.03 311.86 467.03 311.79C467.034 311.657 467.057 311.526 467.1 311.4C467.171 311.087 467.282 310.785 467.43 310.5C467.561 310.258 467.711 310.027 467.88 309.81C467.985 309.683 468.099 309.563 468.22 309.45C468.429 309.258 468.657 309.087 468.9 308.94C469.234 308.749 469.59 308.597 469.96 308.49C470.117 308.434 470.283 308.404 470.45 308.4C470.53 308.4 470.6 308.35 470.68 308.4C470.758 308.425 470.842 308.425 470.92 308.4C470.92 308.4 470.98 308.4 471.02 308.4H471.66C471.756 308.395 471.853 308.395 471.95 308.4C472.04 308.4 472.14 308.4 472.23 308.4C472.32 308.4 472.39 308.4 472.46 308.4C472.673 308.423 472.882 308.476 473.08 308.56C473.264 308.619 473.439 308.703 473.6 308.81C473.752 308.897 473.899 308.994 474.04 309.1L474.34 309.18Z" fill="white"/>
<path d="M491.18 308.37C491.18 308.53 491.1 308.69 491.05 308.84C491 308.99 490.94 309.14 490.91 309.29C490.857 309.43 490.814 309.574 490.78 309.72C490.756 309.84 490.712 309.955 490.65 310.06C490.65 309.99 490.52 310.06 490.45 309.99C490.347 309.975 490.243 309.975 490.14 309.99H489.9C489.821 310.009 489.739 310.009 489.66 309.99C489.605 309.97 489.545 309.97 489.49 309.99C489.35 310.06 489.2 309.99 489.06 310.06C488.866 310.119 488.683 310.211 488.52 310.33C488.337 310.478 488.19 310.667 488.09 310.88C487.997 311.073 487.933 311.278 487.9 311.49C487.9 311.59 487.9 311.7 487.9 311.8C487.885 311.913 487.885 312.027 487.9 312.14V316.75H486.13C486.13 316.59 486.13 309.22 486.13 308.56H487.91V309.56C487.971 309.493 488.027 309.423 488.08 309.35C488.201 309.168 488.353 309.009 488.53 308.88C488.782 308.659 489.09 308.51 489.42 308.45C489.5 308.38 489.61 308.45 489.7 308.38C489.803 308.365 489.907 308.365 490.01 308.38H490.67C490.813 308.37 490.957 308.37 491.1 308.38C491.126 308.375 491.153 308.371 491.18 308.37Z" fill="white"/>
<path d="M463.14 316.6H461.36V308.37H463.14V309.37C463.26 309.3 463.3 309.19 463.37 309.1C463.448 308.99 463.547 308.895 463.66 308.82C463.75 308.76 463.82 308.68 463.91 308.62C464 308.56 464.25 308.45 464.4 308.35C464.55 308.25 464.68 308.24 464.84 308.27C465.038 308.235 465.241 308.235 465.44 308.27C465.646 308.25 465.854 308.25 466.06 308.27H466.43H466.48C466.4 308.51 466.32 308.75 466.26 309C466.23 309.071 466.207 309.145 466.19 309.22C466.19 309.42 466.05 309.6 466.02 309.81C466.02 309.81 466.02 309.86 466.02 309.9C466.02 309.94 465.76 309.84 465.62 309.9C465.48 309.96 465.47 309.9 465.4 309.9C465.338 309.881 465.272 309.881 465.21 309.9C465.13 309.9 465.06 309.9 464.99 309.9C464.642 309.888 464.298 309.968 463.99 310.13C463.769 310.256 463.586 310.439 463.46 310.66C463.375 310.818 463.301 310.982 463.24 311.15C463.24 311.22 463.24 311.31 463.19 311.36C463.14 311.41 463.19 311.62 463.19 311.75V316.66L463.14 316.6Z" fill="white"/>
<path d="M504.74 270.27C504.74 276.034 503.124 281.683 500.075 286.575C497.026 291.466 492.666 295.405 487.491 297.943C482.316 300.481 476.532 301.517 470.798 300.934C465.063 300.35 459.607 298.169 455.05 294.64C458.772 291.759 461.785 288.064 463.858 283.838C465.931 279.612 467.009 274.967 467.009 270.26C467.009 265.553 465.931 260.908 463.858 256.682C461.785 252.456 458.772 248.761 455.05 245.88C459.609 242.35 465.066 240.169 470.803 239.586C476.539 239.003 482.324 240.04 487.5 242.581C492.676 245.122 497.035 249.063 500.083 253.958C503.131 258.853 504.744 264.504 504.74 270.27Z" fill="#F79E1B"/>
<path d="M455.05 294.64C450.491 298.169 445.033 300.349 439.298 300.932C433.562 301.515 427.778 300.478 422.601 297.939C417.425 295.4 413.065 291.461 410.015 286.568C406.966 281.675 405.349 276.025 405.349 270.26C405.349 264.495 406.966 258.845 410.015 253.952C413.065 249.059 417.425 245.12 422.601 242.581C427.778 240.042 433.562 239.005 439.298 239.588C445.033 240.171 450.491 242.351 455.05 245.88C451.324 248.759 448.308 252.453 446.232 256.68C444.157 260.906 443.078 265.552 443.078 270.26C443.078 274.968 444.157 279.614 446.232 283.84C448.308 288.067 451.324 291.761 455.05 294.64Z" fill="#EB001B"/>
<path d="M467.01 270.27C467.01 274.98 465.928 279.627 463.848 283.852C461.767 288.078 458.743 291.769 455.01 294.64C451.284 291.761 448.268 288.067 446.192 283.84C444.117 279.614 443.038 274.968 443.038 270.26C443.038 265.552 444.117 260.906 446.192 256.68C448.268 252.453 451.284 248.759 455.01 245.88C458.744 248.755 461.767 252.45 463.848 256.679C465.929 260.907 467.01 265.557 467.01 270.27Z" fill="#FF5A00"/>
<g opacity="0.17">
<path d="M349.742 129.967C343.352 130.627 340.302 125.857 335.842 128.507C333.622 129.827 332.392 132.737 332.762 136.287C333.132 139.837 335.112 144.007 339.282 147.857C343.452 151.707 347.922 154.557 351.632 155.307C355.342 156.057 358.282 154.727 359.402 150.237C360.522 145.747 362.212 140.237 361.582 136.087C360.952 131.937 357.972 129.077 349.742 129.967Z" stroke="url(#paint8_linear_202_1484)" stroke-width="0.95" stroke-miterlimit="10" stroke-linecap="round" stroke-dasharray="0.95 3.79"/>
<path d="M326.202 135.467C325.752 130.877 327.202 126.927 330.392 125.007C332.802 123.547 335.132 123.637 337.802 124.237C341.382 125.047 344.882 126.137 349.182 125.567C359.602 124.167 363.102 126.097 364.632 133.567C366.162 141.037 367.212 146.357 362.492 153.567C359.072 158.747 355.492 164.867 350.882 161.997C346.272 159.127 340.882 154.697 334.882 150.457C332.455 148.716 330.426 146.479 328.93 143.895C327.433 141.311 326.503 138.438 326.202 135.467Z" stroke="url(#paint9_linear_202_1484)" stroke-width="0.95" stroke-miterlimit="10" stroke-linecap="round" stroke-dasharray="0.95 3.79"/>
<path d="M319.652 134.657C319.112 129.017 320.892 124.007 324.932 121.517C327.792 119.747 330.752 119.667 334.272 120.257C339.122 121.067 343.592 121.947 348.622 121.167C361.222 119.227 365.252 120.267 367.692 130.967C370.132 141.667 374.302 146.967 365.572 156.737C360.222 162.737 355.712 173.517 350.132 168.527C344.552 163.537 338.482 157.477 330.392 152.897C324.072 149.317 320.272 141.487 319.652 134.657Z" stroke="url(#paint10_linear_202_1484)" stroke-width="0.95" stroke-miterlimit="10" stroke-linecap="round" stroke-dasharray="0.95 3.79"/>
<path d="M313.091 133.847C312.481 127.157 314.532 121.097 319.482 118.017C322.792 115.957 326.382 115.687 330.742 116.267C336.862 117.087 342.301 117.747 348.061 116.767C362.851 114.267 367.402 114.437 370.742 128.417C374.082 142.397 381.511 147.777 368.661 159.997C361.441 166.857 355.902 182.247 349.392 175.137C342.882 168.027 336.081 160.297 325.951 155.417C318.641 151.897 313.841 142.317 313.091 133.847Z" stroke="url(#paint11_linear_202_1484)" stroke-width="0.95" stroke-miterlimit="10" stroke-linecap="round" stroke-dasharray="0.95 3.79"/>
<path d="M306.532 133.077C305.842 125.337 308.162 118.227 314.022 114.557C317.782 112.207 322.022 111.737 327.212 112.317C334.602 113.137 341.012 113.577 347.502 112.407C364.502 109.347 369.502 108.637 373.792 125.897C378.082 143.157 388.792 148.697 371.792 163.287C362.722 171.067 356.132 191.017 348.682 181.787C341.232 172.557 333.702 163.077 321.472 157.937C313.222 154.437 307.412 143.147 306.532 133.077Z" stroke="url(#paint12_linear_202_1484)" stroke-width="0.95" stroke-miterlimit="10" stroke-linecap="round" stroke-dasharray="0.95 3.79"/>
<path d="M299.972 132.227C299.202 123.437 301.802 115.277 308.572 111.027C312.772 108.377 317.642 107.717 323.682 108.287C332.342 109.107 339.682 109.287 346.932 107.977C366.092 104.347 371.712 102.767 376.842 123.297C381.942 143.667 396.052 149.587 374.842 166.497C363.922 175.207 356.272 199.697 347.892 188.357C339.512 177.017 331.342 165.817 317.072 160.457C307.812 156.967 300.982 143.977 299.972 132.227Z" stroke="url(#paint13_linear_202_1484)" stroke-width="0.95" stroke-miterlimit="10" stroke-linecap="round" stroke-dasharray="0.95 3.79"/>
<path d="M293.472 131.407C292.612 121.577 295.471 112.407 303.161 107.527C307.821 104.597 313.311 103.727 320.161 104.297C330.091 105.117 338.442 105.137 346.382 103.577C367.722 99.3866 373.871 96.9366 379.911 120.737C385.911 144.357 403.341 150.537 377.911 169.737C365.151 179.387 356.452 208.407 347.142 194.947C337.832 181.487 328.972 168.527 312.622 162.947C302.402 159.487 294.552 144.807 293.472 131.407Z" stroke="url(#paint14_linear_202_1484)" stroke-width="0.95" stroke-miterlimit="10" stroke-linecap="round" stroke-dasharray="0.95 3.79"/>
<path d="M286.862 130.597C285.922 119.717 289.091 109.477 297.661 104.037C302.771 100.817 308.891 99.7466 316.661 100.317C327.861 101.137 337.182 100.927 345.852 99.1766C369.372 94.4166 376.052 91.0966 382.992 118.177C389.872 145.047 410.671 151.517 381.051 173.007C366.441 183.617 356.691 217.157 346.441 201.577C336.191 185.997 326.662 171.257 308.232 165.487C296.992 161.987 288.122 145.637 286.862 130.597Z" stroke="url(#paint15_linear_202_1484)" stroke-width="0.95" stroke-miterlimit="10" stroke-linecap="round" stroke-dasharray="0.95 3.79"/>
<path d="M280.302 129.787C279.302 117.857 282.732 106.577 292.212 100.537C297.762 97.0266 304.522 95.7566 313.092 96.3266C325.562 97.1466 335.852 96.7266 345.252 94.7766C370.952 89.4566 378.162 85.2666 386.002 115.617C393.782 145.727 417.922 152.507 384.102 176.257C367.642 187.827 356.842 225.887 345.652 208.187C334.462 190.487 324.262 173.947 303.752 168.007C291.582 164.487 281.692 146.467 280.302 129.787Z" stroke="url(#paint16_linear_202_1484)" stroke-width="0.95" stroke-miterlimit="10" stroke-linecap="round" stroke-dasharray="0.95 3.79"/>
<path d="M273.742 128.977C272.652 115.977 276.372 103.667 286.742 97.0466C292.742 93.2366 300.142 91.7766 309.552 92.3366C323.292 93.1566 334.552 92.5166 344.682 90.3366C372.562 84.4466 380.302 79.3966 389.052 113.017C397.712 146.377 425.212 153.457 387.182 179.477C368.872 191.997 357.012 234.577 344.902 214.757C332.792 194.937 321.902 176.587 299.302 170.487C286.172 166.977 275.262 147.297 273.742 128.977Z" stroke="url(#paint17_linear_202_1484)" stroke-width="0.95" stroke-miterlimit="10" stroke-linecap="round" stroke-dasharray="0.95 3.79"/>
<path d="M267.192 128.157C266.012 114.157 270.011 100.757 281.301 93.5466C287.751 89.4466 295.772 87.7866 306.032 88.3466C321.032 89.1666 333.272 88.3466 344.122 85.9866C374.192 79.5166 382.472 73.6066 392.122 110.497C401.682 147.097 432.531 154.497 390.291 182.767C370.121 196.257 357.221 243.337 344.171 221.407C331.121 199.477 319.562 179.297 294.882 173.047C280.762 169.467 268.832 148.127 267.192 128.157Z" stroke="url(#paint18_linear_202_1484)" stroke-width="0.95" stroke-miterlimit="10" stroke-linecap="round" stroke-dasharray="0.95 3.79"/>
<path d="M260.632 127.347C259.372 112.277 263.631 97.8566 275.841 90.0566C282.741 85.6566 291.402 83.8066 302.502 84.3566C318.782 85.1766 331.981 84.1066 343.561 81.5866C375.811 74.5866 384.621 67.7666 395.161 107.937C405.611 147.787 439.822 155.517 393.362 186.027C371.362 200.477 357.362 252.027 343.362 228.027C329.362 204.027 317.142 181.977 290.362 175.577C275.352 171.957 262.402 148.957 260.632 127.347Z" stroke="url(#paint19_linear_202_1484)" stroke-width="0.95" stroke-miterlimit="10" stroke-linecap="round" stroke-dasharray="0.95 3.79"/>
<path d="M254.072 126.537C252.732 110.417 257.292 94.9466 270.392 86.5366C277.742 81.8566 287.032 79.7966 298.962 80.3466C316.522 81.1666 330.682 79.8866 342.962 77.1666C377.392 69.5666 386.732 61.9166 398.172 105.367C409.522 148.447 447.082 156.517 396.412 189.257C372.542 204.677 357.542 260.777 342.632 234.607C327.722 208.437 314.792 184.607 285.942 178.067C269.942 174.447 255.972 149.777 254.072 126.537Z" stroke="url(#paint20_linear_202_1484)" stroke-width="0.95" stroke-miterlimit="10" stroke-linecap="round" stroke-dasharray="0.95 3.79"/>
<path d="M247.472 125.727C246.062 108.557 250.892 92.0366 264.892 83.0566C272.692 78.0566 282.622 75.8366 295.392 76.3866C314.222 77.1966 329.392 75.6966 342.392 72.7866C379.002 64.6166 388.872 56.1066 401.222 102.787C413.462 149.117 454.372 157.517 399.492 192.487C373.772 208.877 357.722 269.487 341.872 241.197C326.022 212.907 312.422 187.197 281.492 180.557C264.532 176.927 249.542 150.607 247.472 125.727Z" stroke="url(#paint21_linear_202_1484)" stroke-width="0.95" stroke-miterlimit="10" stroke-linecap="round" stroke-dasharray="0.95 3.79"/>
<path d="M240.962 124.917C239.462 106.697 244.572 89.1366 259.482 79.5666C267.732 74.2966 278.282 71.8166 291.902 72.3966C312.012 73.1666 328.102 71.4666 341.902 68.3966C380.682 59.5766 391.102 50.2766 404.342 100.277C417.472 149.847 461.742 158.587 402.652 195.797C375.072 213.147 357.981 278.257 341.191 247.857C324.401 217.457 310.192 189.937 277.122 183.127C259.112 179.407 243.112 151.437 240.962 124.917Z" stroke="url(#paint22_linear_202_1484)" stroke-width="0.95" stroke-miterlimit="10" stroke-linecap="round" stroke-dasharray="0.95 3.79"/>
<path d="M234.402 124.077C232.822 104.817 238.202 86.2066 254.022 76.0766C262.722 70.5166 273.912 67.8466 288.372 68.4166C309.752 69.1866 326.801 67.2666 341.311 63.9966C382.311 54.6066 393.232 44.4466 407.372 97.7166C421.372 150.537 469.022 159.617 405.712 199.047C376.292 217.377 358.151 286.987 340.431 254.467C322.711 221.947 307.761 192.587 272.661 185.647C253.701 181.887 236.682 152.267 234.402 124.077Z" stroke="url(#paint23_linear_202_1484)" stroke-width="0.95" stroke-miterlimit="10" stroke-linecap="round" stroke-dasharray="0.95 3.79"/>
<path d="M227.842 123.287C226.182 102.977 231.842 83.2866 248.572 72.5766C257.722 66.7166 269.572 63.8466 284.842 64.4166C307.492 65.1866 325.512 63.0566 340.752 59.5966C383.902 49.5966 395.382 38.5966 410.432 95.1466C425.342 151.207 476.322 160.627 408.802 202.287C377.522 221.587 358.332 295.707 339.682 261.057C321.032 226.407 305.402 195.217 268.222 188.157C248.292 184.367 230.252 153.077 227.842 123.287Z" stroke="url(#paint24_linear_202_1484)" stroke-width="0.95" stroke-miterlimit="10" stroke-linecap="round" stroke-dasharray="0.95 3.79"/>
<path d="M221.282 122.477C219.552 101.117 225.482 80.4166 243.112 69.0766C252.712 62.9266 265.112 59.8666 281.312 60.4266C305.232 61.1966 324.222 58.8466 340.192 55.1966C385.522 44.6666 397.532 32.7766 413.482 92.5866C429.292 151.897 483.632 161.657 411.892 205.587C378.752 225.857 358.522 304.477 338.892 267.707C319.262 230.937 303.002 197.897 263.742 190.707C242.872 186.847 223.822 153.927 221.282 122.477Z" stroke="url(#paint25_linear_202_1484)" stroke-width="0.95" stroke-miterlimit="10" stroke-linecap="round" stroke-dasharray="0.95 3.79"/>
<path d="M214.732 121.667C212.912 99.2566 219.122 77.5066 237.662 65.5866C247.662 59.1466 260.792 55.8766 277.782 56.4366C302.972 57.2066 322.932 54.6466 339.632 50.7966C387.142 39.6966 399.632 26.9366 416.532 90.0266C433.232 152.577 490.932 162.687 414.982 208.797C379.982 230.037 358.712 313.167 338.192 274.277C317.672 235.387 300.682 200.497 259.342 193.197C237.472 189.327 217.392 154.757 214.732 121.667Z" stroke="url(#paint26_linear_202_1484)" stroke-width="0.95" stroke-miterlimit="10" stroke-linecap="round" stroke-dasharray="0.95 3.79"/>
<path d="M208.172 120.857C206.272 97.3966 212.762 74.5966 232.172 62.0866C242.672 55.3566 256.392 51.8966 274.172 52.4566C300.632 53.2166 321.562 50.4566 338.982 46.3966C388.682 34.7366 401.762 21.1066 419.502 87.4666C437.102 153.267 498.152 163.717 417.982 212.047C381.142 234.267 358.812 321.887 337.362 280.887C315.912 239.887 298.242 203.137 254.822 195.707C232.042 191.807 210.962 155.587 208.172 120.857Z" stroke="url(#paint27_linear_202_1484)" stroke-width="0.95" stroke-miterlimit="10" stroke-linecap="round" stroke-dasharray="0.95 3.79"/>
<path d="M201.612 120.077C199.612 95.5766 206.402 71.7366 226.752 58.6366C237.692 51.6366 252.052 47.9466 270.752 48.5066C298.482 49.2666 320.382 46.2766 338.532 42.0366C390.412 29.8066 404.021 15.3166 422.671 84.9466C441.151 153.947 505.562 164.787 421.182 215.347C382.482 238.527 359.112 330.657 336.722 287.537C314.332 244.417 295.992 205.807 250.482 198.267C226.632 194.277 204.532 156.417 201.612 120.077Z" stroke="url(#paint28_linear_202_1484)" stroke-width="0.95" stroke-miterlimit="10" stroke-linecap="round" stroke-dasharray="0.95 3.79"/>
<path d="M195.051 119.227C192.991 93.6766 200.051 68.7866 221.301 55.0966C232.691 47.7766 247.671 43.9266 267.191 44.4766C296.191 45.2366 319.061 42.0266 337.941 37.5966C392.001 24.7966 406.141 9.43657 425.691 82.3466C445.071 154.637 512.832 165.787 424.242 218.557C383.682 242.717 359.241 339.347 335.941 294.107C312.641 248.867 293.602 208.407 246.012 200.747C221.212 196.757 198.101 157.247 195.051 119.227Z" stroke="url(#paint29_linear_202_1484)" stroke-width="0.95" stroke-miterlimit="10" stroke-linecap="round" stroke-dasharray="0.95 3.79"/>
<path d="M188.472 118.417C186.332 91.8166 193.652 65.8766 215.812 51.5966C227.652 43.9866 243.272 39.9366 263.632 40.4866C293.902 41.2466 317.742 37.8266 337.352 33.2066C393.592 19.8266 408.262 3.60661 428.712 79.7966C448.992 155.317 520.102 166.797 427.302 221.797C384.892 246.937 359.432 348.067 335.172 300.707C310.912 253.347 291.172 211.027 241.542 203.257C215.802 199.237 191.672 158.077 188.472 118.417Z" stroke="url(#paint30_linear_202_1484)" stroke-width="0.95" stroke-miterlimit="10" stroke-linecap="round" stroke-dasharray="0.95 3.79"/>
<path d="M181.941 117.607C179.721 89.9566 187.322 62.9766 210.392 48.1066C222.672 40.1966 238.932 35.9566 260.132 36.4966C285.921 37.2973 311.704 34.712 336.822 28.8066C395.242 14.8666 410.442 -2.19338 431.822 77.2366C452.962 156.007 527.472 167.847 430.472 225.077C386.202 251.177 359.692 356.817 334.472 307.337C309.252 257.857 288.902 213.677 237.152 205.797C210.382 201.707 185.241 158.907 181.941 117.607Z" stroke="url(#paint31_linear_202_1484)" stroke-width="0.95" stroke-miterlimit="10" stroke-linecap="round" stroke-dasharray="0.95 3.79"/>
<path d="M175.382 116.787C173.082 88.0966 180.962 60.0666 204.932 44.6066C217.672 36.4166 234.552 31.9666 256.592 32.5166C283.385 33.3098 310.167 30.5832 336.252 24.4066C396.862 9.8966 412.602 -8.05339 434.852 74.6766C456.912 156.677 534.742 168.887 433.502 228.317C387.382 255.397 359.832 365.527 333.702 313.937C307.572 262.347 286.512 216.297 232.702 208.307C204.962 204.187 178.812 159.737 175.382 116.787Z" stroke="url(#paint32_linear_202_1484)" stroke-width="0.95" stroke-miterlimit="10" stroke-linecap="round" stroke-dasharray="0.95 3.79"/>
</g>
<defs>
<linearGradient id="paint0_linear_202_1484" x1="-237.518" y1="-292.823" x2="490.317" y2="373.772" gradientUnits="userSpaceOnUse">
<stop stop-color="#00A6AE"/>
<stop offset="1" stop-color="#47B533"/>
</linearGradient>
<linearGradient id="paint1_linear_202_1484" x1="116.7" y1="172.21" x2="50.1597" y2="118.26" gradientUnits="userSpaceOnUse">
<stop stop-color="#ABA6A6"/>
<stop offset="1" stop-color="#FFBD75"/>
</linearGradient>
<linearGradient id="paint2_linear_202_1484" x1="117.82" y1="170.82" x2="51.2799" y2="116.87" gradientUnits="userSpaceOnUse">
<stop stop-color="#ABA6A6"/>
<stop offset="1" stop-color="#FFBD75"/>
</linearGradient>
<linearGradient id="paint3_linear_202_1484" x1="107.51" y1="183.54" x2="40.9697" y2="129.59" gradientUnits="userSpaceOnUse">
<stop stop-color="#ABA6A6"/>
<stop offset="1" stop-color="#FFBD75"/>
</linearGradient>
<linearGradient id="paint4_linear_202_1484" x1="99.5597" y1="193.35" x2="33.0197" y2="139.4" gradientUnits="userSpaceOnUse">
<stop stop-color="#ABA6A6"/>
<stop offset="1" stop-color="#FFBD75"/>
</linearGradient>
<linearGradient id="paint5_linear_202_1484" x1="119.19" y1="169.14" x2="52.6399" y2="115.19" gradientUnits="userSpaceOnUse">
<stop stop-color="#ABA6A6"/>
<stop offset="1" stop-color="#FFBD75"/>
</linearGradient>
<linearGradient id="paint6_linear_202_1484" x1="136.26" y1="148.08" x2="69.7199" y2="94.1397" gradientUnits="userSpaceOnUse">
<stop stop-color="#ABA6A6"/>
<stop offset="1" stop-color="#FFBD75"/>
</linearGradient>
<linearGradient id="paint7_linear_202_1484" x1="128.26" y1="157.94" x2="61.7197" y2="104" gradientUnits="userSpaceOnUse">
<stop stop-color="#ABA6A6"/>
<stop offset="1" stop-color="#FFBD75"/>
</linearGradient>
<linearGradient id="paint8_linear_202_1484" x1="335.657" y1="146.222" x2="361.654" y2="134.834" gradientUnits="userSpaceOnUse">
<stop stop-color="#D40E38"/>
<stop offset="1"/>
</linearGradient>
<linearGradient id="paint9_linear_202_1484" x1="327.695" y1="142.891" x2="362.613" y2="127.271" gradientUnits="userSpaceOnUse">
<stop stop-color="#D40E38"/>
<stop offset="1"/>
</linearGradient>
<linearGradient id="paint10_linear_202_1484" x1="319.572" y1="136.546" x2="363.269" y2="116.644" gradientUnits="userSpaceOnUse">
<stop stop-color="#D40E38"/>
<stop offset="1"/>
</linearGradient>
<linearGradient id="paint11_linear_202_1484" x1="323.769" y1="164.856" x2="376.697" y2="140.383" gradientUnits="userSpaceOnUse">
<stop stop-color="#D40E38"/>
<stop offset="1"/>
</linearGradient>
<linearGradient id="paint12_linear_202_1484" x1="311.62" y1="170.69" x2="373.515" y2="141.858" gradientUnits="userSpaceOnUse">
<stop stop-color="#D40E38"/>
<stop offset="1"/>
</linearGradient>
<linearGradient id="paint13_linear_202_1484" x1="309.435" y1="164.012" x2="380.026" y2="130.68" gradientUnits="userSpaceOnUse">
<stop stop-color="#D40E38"/>
<stop offset="1"/>
</linearGradient>
<linearGradient id="paint14_linear_202_1484" x1="307.453" y1="156.957" x2="386.697" y2="119.132" gradientUnits="userSpaceOnUse">
<stop stop-color="#D40E38"/>
<stop offset="1"/>
</linearGradient>
<linearGradient id="paint15_linear_202_1484" x1="301.48" y1="174.204" x2="389.954" y2="131.884" gradientUnits="userSpaceOnUse">
<stop stop-color="#D40E38"/>
<stop offset="1"/>
</linearGradient>
<linearGradient id="paint16_linear_202_1484" x1="297.983" y1="188.44" x2="395.688" y2="141.602" gradientUnits="userSpaceOnUse">
<stop stop-color="#D40E38"/>
<stop offset="1"/>
</linearGradient>
<linearGradient id="paint17_linear_202_1484" x1="287.201" y1="153.902" x2="392.877" y2="103.258" gradientUnits="userSpaceOnUse">
<stop stop-color="#D40E38"/>
<stop offset="1"/>
</linearGradient>
<linearGradient id="paint18_linear_202_1484" x1="283.146" y1="158.733" x2="397.85" y2="103.882" gradientUnits="userSpaceOnUse">
<stop stop-color="#D40E38"/>
<stop offset="1"/>
</linearGradient>
<linearGradient id="paint19_linear_202_1484" x1="278.424" y1="158.703" x2="402.066" y2="99.846" gradientUnits="userSpaceOnUse">
<stop stop-color="#D40E38"/>
<stop offset="1"/>
</linearGradient>
<linearGradient id="paint20_linear_202_1484" x1="280.303" y1="211.186" x2="414.592" y2="147.463" gradientUnits="userSpaceOnUse">
<stop stop-color="#D40E38"/>
<stop offset="1"/>
</linearGradient>
<linearGradient id="paint21_linear_202_1484" x1="268.957" y1="191.229" x2="411.759" y2="124.259" gradientUnits="userSpaceOnUse">
<stop stop-color="#D40E38"/>
<stop offset="1"/>
</linearGradient>
<linearGradient id="paint22_linear_202_1484" x1="263.998" y1="174.503" x2="415.336" y2="104.227" gradientUnits="userSpaceOnUse">
<stop stop-color="#D40E38"/>
<stop offset="1"/>
</linearGradient>
<linearGradient id="paint23_linear_202_1484" x1="257.203" y1="202.133" x2="418.776" y2="127.967" gradientUnits="userSpaceOnUse">
<stop stop-color="#D40E38"/>
<stop offset="1"/>
</linearGradient>
<linearGradient id="paint24_linear_202_1484" x1="244.494" y1="217.742" x2="416.326" y2="140.116" gradientUnits="userSpaceOnUse">
<stop stop-color="#D40E38"/>
<stop offset="1"/>
</linearGradient>
<linearGradient id="paint25_linear_202_1484" x1="247.857" y1="187.747" x2="428.3" y2="107.035" gradientUnits="userSpaceOnUse">
<stop stop-color="#D40E38"/>
<stop offset="1"/>
</linearGradient>
<linearGradient id="paint26_linear_202_1484" x1="240.007" y1="198.094" x2="430.982" y2="113.932" gradientUnits="userSpaceOnUse">
<stop stop-color="#D40E38"/>
<stop offset="1"/>
</linearGradient>
<linearGradient id="paint27_linear_202_1484" x1="235.946" y1="199.621" x2="437.106" y2="112.151" gradientUnits="userSpaceOnUse">
<stop stop-color="#D40E38"/>
<stop offset="1"/>
</linearGradient>
<linearGradient id="paint28_linear_202_1484" x1="232.335" y1="195.626" x2="443.495" y2="105.078" gradientUnits="userSpaceOnUse">
<stop stop-color="#D40E38"/>
<stop offset="1"/>
</linearGradient>
<linearGradient id="paint29_linear_202_1484" x1="229.828" y1="184.576" x2="450.701" y2="91.1812" gradientUnits="userSpaceOnUse">
<stop stop-color="#D40E38"/>
<stop offset="1"/>
</linearGradient>
<linearGradient id="paint30_linear_202_1484" x1="199.554" y1="202.712" x2="432.281" y2="106.804" gradientUnits="userSpaceOnUse">
<stop stop-color="#D40E38"/>
<stop offset="1"/>
</linearGradient>
<linearGradient id="paint31_linear_202_1484" x1="217.408" y1="197.425" x2="459.423" y2="97.6585" gradientUnits="userSpaceOnUse">
<stop stop-color="#D40E38"/>
<stop offset="1"/>
</linearGradient>
<linearGradient id="paint32_linear_202_1484" x1="205.44" y1="221.878" x2="458.991" y2="118.501" gradientUnits="userSpaceOnUse">
<stop stop-color="#D40E38"/>
<stop offset="1"/>
</linearGradient>
</defs>
</svg>
