   <svg width="307" height="308" viewBox="0 0 307 308" fill="none" xmlns="http://www.w3.org/2000/svg">
<path d="M208.13 128.87L158.16 178.84L141.86 195.13L125.57 178.84H125.56L103.57 156.84L119.86 140.54L141.86 162.55L191.83 112.57L208.13 128.87Z" fill="url(#paint0_linear_202_567)"/>
<path d="M153.41 246.23C135.139 246.23 117.278 240.812 102.086 230.661C86.8946 220.51 75.054 206.083 68.062 189.202C61.07 172.322 59.2406 153.748 62.8051 135.828C66.3696 117.908 75.1679 101.447 88.0875 88.5275C101.007 75.608 117.468 66.8096 135.388 63.2451C153.308 59.6806 171.882 61.5101 188.762 68.5021C205.643 75.4941 220.07 87.3347 230.221 102.527C240.372 117.718 245.79 135.579 245.79 153.85C245.764 178.343 236.022 201.825 218.703 219.143C201.384 236.462 177.903 246.204 153.41 246.23ZM153.41 79.3001C138.664 79.306 124.251 83.6842 111.994 91.881C99.7362 100.078 90.1844 111.725 84.546 125.35C78.9076 138.975 77.4359 153.967 80.3171 168.428C83.1982 182.89 90.3027 196.172 100.732 206.596C111.162 217.02 124.448 224.118 138.911 226.991C153.374 229.864 168.365 228.384 181.987 222.739C195.609 217.093 207.251 207.535 215.441 195.273C223.632 183.011 228.002 168.596 228 153.85C227.976 134.079 220.109 115.124 206.124 101.147C192.14 87.1707 173.182 79.3133 153.41 79.3001Z" fill="url(#paint1_linear_202_567)"/>
<path d="M153.41 0.540039C237.94 0.540039 306.72 69.32 306.72 153.85C306.72 238.38 237.94 307.16 153.41 307.16C68.88 307.16 0.100006 238.39 0.100006 153.85C0.100006 69.31 68.87 0.540039 153.41 0.540039ZM153.41 254.44C173.305 254.44 192.753 248.541 209.295 237.488C225.837 226.435 238.73 210.725 246.343 192.344C253.956 173.964 255.948 153.738 252.067 134.226C248.186 114.713 238.606 96.7899 224.538 82.7222C210.47 68.6544 192.547 59.0742 173.034 55.1929C153.522 51.3116 133.296 53.3036 114.916 60.917C96.5354 68.5304 80.8254 81.4233 69.7725 97.9653C58.7195 114.507 52.82 133.955 52.82 153.85C52.8491 180.519 63.4563 206.088 82.3143 224.946C101.172 243.804 126.741 254.411 153.41 254.44Z" fill="url(#paint2_linear_202_567)"/>
<defs>
<linearGradient id="paint0_linear_202_567" x1="76.85" y1="82.5401" x2="297.54" y2="257.41" gradientUnits="userSpaceOnUse">
<stop stop-color="#47B533" stop-opacity="0.2"/>
<stop offset="1" stop-color="#47B533"/>
</linearGradient>
<linearGradient id="paint1_linear_202_567" x1="71.67" y1="89.0901" x2="292.36" y2="263.95" gradientUnits="userSpaceOnUse">
<stop stop-color="#47B533" stop-opacity="0.2"/>
<stop offset="1" stop-color="#47B533"/>
</linearGradient>
<linearGradient id="paint2_linear_202_567" x1="607.5" y1="278.21" x2="-176.55" y2="63.4901" gradientUnits="userSpaceOnUse">
<stop stop-color="#47B533"/>
<stop offset="1" stop-opacity="0.2"/>
</linearGradient>
</defs>
</svg>