<svg width="34" height="34" viewBox="0 0 34 34" fill="none" xmlns="http://www.w3.org/2000/svg">
<path d="M17.0002 0.333252C7.81683 0.333252 0.333496 7.81659 0.333496 16.9999C0.333496 26.1833 7.81683 33.6666 17.0002 33.6666C26.1835 33.6666 33.6668 26.1833 33.6668 16.9999C33.6668 7.81659 26.1835 0.333252 17.0002 0.333252ZM22.6002 20.8333C23.0835 21.3166 23.0835 22.1166 22.6002 22.5999C22.3502 22.8499 22.0335 22.9666 21.7168 22.9666C21.4002 22.9666 21.0835 22.8499 20.8335 22.5999L17.0002 18.7666L13.1668 22.5999C12.9168 22.8499 12.6002 22.9666 12.2835 22.9666C11.9668 22.9666 11.6502 22.8499 11.4002 22.5999C10.9168 22.1166 10.9168 21.3166 11.4002 20.8333L15.2335 16.9999L11.4002 13.1666C10.9168 12.6833 10.9168 11.8833 11.4002 11.3999C11.8835 10.9166 12.6835 10.9166 13.1668 11.3999L17.0002 15.2333L20.8335 11.3999C21.3168 10.9166 22.1168 10.9166 22.6002 11.3999C23.0835 11.8833 23.0835 12.6833 22.6002 13.1666L18.7668 16.9999L22.6002 20.8333Z" fill="#B8C0CC"/>
</svg>
