<svg width="81" height="80" viewBox="0 0 81 80" fill="none" xmlns="http://www.w3.org/2000/svg">
<path d="M73.5659 55.8336C72.4659 64.7003 65.1992 71.967 56.3325 73.067C50.9659 73.7336 45.9659 72.267 42.0659 69.4003C39.8325 67.767 40.3659 64.3003 43.0325 63.5003C53.0659 60.467 60.9659 52.5336 64.0325 42.5003C64.8325 39.867 68.2992 39.3337 69.9325 41.5337C72.7659 45.467 74.2325 50.467 73.5659 55.8336Z" fill="#323A46"/>
<path d="M33.8003 6.66675C19.1003 6.66675 7.16699 18.6001 7.16699 33.3001C7.16699 48.0001 19.1003 59.9334 33.8003 59.9334C48.5003 59.9334 60.4337 48.0001 60.4337 33.3001C60.4003 18.6001 48.5003 6.66675 33.8003 6.66675ZM30.667 29.5667L38.7003 32.3667C41.6003 33.4001 43.0003 35.4334 43.0003 38.5667C43.0003 42.1667 40.1337 45.1334 36.6337 45.1334H36.3337V45.3001C36.3337 46.6668 35.2003 47.8001 33.8337 47.8001C32.467 47.8001 31.3337 46.6668 31.3337 45.3001V45.1001C27.6337 44.9334 24.667 41.8334 24.667 37.9668C24.667 36.6001 25.8003 35.4668 27.167 35.4668C28.5337 35.4668 29.667 36.6001 29.667 37.9668C29.667 39.1668 30.5337 40.1334 31.6003 40.1334H36.6003C37.367 40.1334 37.967 39.4334 37.967 38.5667C37.967 37.4001 37.767 37.3334 37.0003 37.0667L28.967 34.2667C26.1003 33.2667 24.667 31.2334 24.667 28.0667C24.667 24.4667 27.5337 21.5001 31.0337 21.5001H31.3337V21.3667C31.3337 20.0001 32.467 18.8667 33.8337 18.8667C35.2003 18.8667 36.3337 20.0001 36.3337 21.3667V21.5667C40.0337 21.7334 43.0003 24.8334 43.0003 28.7001C43.0003 30.0667 41.867 31.2001 40.5003 31.2001C39.1337 31.2001 38.0003 30.0667 38.0003 28.7001C38.0003 27.5001 37.1337 26.5334 36.067 26.5334H31.067C30.3003 26.5334 29.7003 27.2334 29.7003 28.1001C29.667 29.2334 29.867 29.3001 30.667 29.5667Z" fill="#323A46"/>
</svg>
