<svg width="68" height="68" viewBox="0 0 68 68" fill="none" xmlns="http://www.w3.org/2000/svg">
<path d="M33.9998 0.666626C15.5998 0.666626 0.666504 15.6 0.666504 34C0.666504 52.4 15.5998 67.3333 33.9998 67.3333C52.3998 67.3333 67.3332 52.4 67.3332 34C67.3332 15.6 52.3998 0.666626 33.9998 0.666626ZM23.0998 19.5333C25.7998 19.5333 28.0332 21.7333 28.0332 24.4666C28.0332 27.1666 25.8332 29.4 23.0998 29.4C20.3998 29.4 18.1665 27.2 18.1665 24.4666C18.1665 21.7333 20.3665 19.5333 23.0998 19.5333ZM23.4998 46.6666C22.9998 47.1666 22.3665 47.4 21.7332 47.4C21.0998 47.4 20.4665 47.1666 19.9665 46.6666C18.9998 45.7 18.9998 44.1 19.9665 43.1333L41.7998 21.3C42.7665 20.3333 44.3665 20.3333 45.3332 21.3C46.2998 22.2666 46.2998 23.8666 45.3332 24.8333L23.4998 46.6666ZM44.8998 48.4666C42.1998 48.4666 39.9665 46.2666 39.9665 43.5333C39.9665 40.8333 42.1665 38.6 44.8998 38.6C47.5998 38.6 49.8332 40.8 49.8332 43.5333C49.8332 46.2666 47.6332 48.4666 44.8998 48.4666Z" fill="#323A46"/>
</svg>
