<svg width="24" height="24" viewBox="0 0 24 24" fill="none" xmlns="http://www.w3.org/2000/svg">
<path fill-rule="evenodd" clip-rule="evenodd" d="M6.5175 3.26678C6.66279 3.09089 7.17877 2.72998 8.3023 2.43106C9.34891 2.15259 10.6526 2.00002 12 2.00001C13.3474 1.99999 14.6511 2.15254 15.6977 2.43099C16.8212 2.7299 17.3371 3.09081 17.4824 3.2667C17.4796 3.26329 17.4802 3.26449 17.4838 3.27109L17.4838 3.27112C17.5035 3.30747 17.6117 3.50718 17.7214 4.00542C17.8401 4.54431 17.923 5.25302 17.9658 6.10652C18.0512 7.80966 17.9675 9.8734 17.8146 11.8691C17.5926 14.7663 15.0869 17 12 17C8.91304 17 6.40734 14.7662 6.18536 11.8691C6.03246 9.87335 5.94872 7.80958 6.03411 6.10644C6.0769 5.25293 6.15983 4.54423 6.27852 4.00537C6.38824 3.50727 6.49637 3.30758 6.51608 3.27119L6.51609 3.27118C6.51968 3.26455 6.52032 3.26335 6.5175 3.26678ZM4.97557 1.99301C7.17066 -0.664196 16.8293 -0.664458 19.0244 1.99301C19.4223 2.47475 19.6759 3.34071 19.8246 4.43575C23.1158 5.02967 24 6.33955 24 8.99992C24 11.7433 23.0598 13.0506 19.5094 13.6176C18.5377 16.8058 15.4848 19 12 19C8.51516 19 5.46228 16.8058 4.49058 13.6176C0.940216 13.0506 0 11.7433 0 8.99992C0 6.33957 0.884173 5.02969 4.17537 4.43576C4.32399 3.34068 4.57764 2.47472 4.97557 1.99301ZM4.01618 6.5089C3.62809 6.59837 3.31553 6.697 3.06348 6.80201C2.51426 7.03086 2.34242 7.2496 2.25001 7.42284C2.12217 7.66254 2 8.106 2 8.99992C2 9.89384 2.12217 10.3373 2.25001 10.577C2.34242 10.7502 2.51426 10.969 3.06348 11.1978C3.34479 11.315 3.70149 11.4243 4.15444 11.5217C4.03514 9.82657 3.96683 8.06774 4.01618 6.5089ZM19.8455 11.5217C20.2985 11.4243 20.6552 11.315 20.9365 11.1978C21.4857 10.969 21.6576 10.7502 21.75 10.577C21.8778 10.3373 22 9.89384 22 8.99992C22 8.106 21.8778 7.66254 21.75 7.42284C21.6576 7.2496 21.4857 7.03086 20.9365 6.80201C20.6845 6.69699 20.3719 6.59837 19.9838 6.50889C20.0331 8.06774 19.9648 9.82658 19.8455 11.5217Z" fill="#D0D5DD"/>
<path d="M12 19V23H15H9" stroke="#D0D5DD" stroke-width="2" stroke-linecap="round" stroke-linejoin="round"/>
</svg>
