<svg width="32" height="32" viewBox="0 0 32 32" fill="none" xmlns="http://www.w3.org/2000/svg">
<path d="M20.6665 17.5333H17.7732C15.3998 17.5333 13.4665 15.6133 13.4665 13.2266V10.3333C13.4665 9.78659 13.0265 9.33325 12.4665 9.33325H8.23984C5.15984 9.33325 2.6665 11.3333 2.6665 14.9066V23.7599C2.6665 27.3333 5.15984 29.3333 8.23984 29.3333H16.0932C19.1732 29.3333 21.6665 27.3333 21.6665 23.7599V18.5333C21.6665 17.9733 21.2132 17.5333 20.6665 17.5333Z" fill="#64748B"/>
<path d="M23.76 2.66675H21.1333H19.68H15.9067C12.8933 2.66675 10.4533 4.58675 10.3467 8.01342C10.4267 8.01342 10.4933 8.00008 10.5733 8.00008H14.3467H15.8H18.4267C21.5067 8.00008 24 10.0001 24 13.5734V16.2001V19.8134V22.4401C24 22.5201 23.9867 22.5867 23.9867 22.6534C26.96 22.5601 29.3333 20.5867 29.3333 17.1067V14.4801V10.8667V8.24008C29.3333 4.66675 26.84 2.66675 23.76 2.66675Z" fill="#64748B"/>
<path d="M15.973 9.53349C15.5597 9.12016 14.853 9.40016 14.853 9.97349V13.4668C14.853 14.9335 16.093 16.1335 17.613 16.1335C18.5597 16.1468 19.8797 16.1468 21.013 16.1468C21.5864 16.1468 21.8797 15.4802 21.4797 15.0802C20.0264 13.6268 17.4397 11.0268 15.973 9.53349Z" fill="#64748B"/>
</svg>
