<svg width="221" height="239" viewBox="0 0 221 239" fill="none" xmlns="http://www.w3.org/2000/svg">
<g id="_1421394342400">
<g id="Group">
<path id="Vector" d="M51.4734 37.4687L53.062 42.0059L131.27 150.502L133.169 150.802L162.344 84.5344L51.4734 37.4687Z" fill="#343434"/>
<path id="Vector_2" d="M51.4736 37.4686L61.0748 157.533L133.169 150.802L95.2088 98.1413L51.4736 37.4686Z" fill="#8C8C8C"/>
<path id="Vector_3" d="M140.032 160.322L139.953 161.528L167.812 200.176L169.741 201.538L169.249 94.047L140.032 160.322Z" fill="#3C3C3B"/>
<path id="Vector_4" d="M169.741 201.538L140.031 160.322L67.9483 167.068L169.741 201.538Z" fill="#8C8C8C"/>
<path id="Vector_5" d="M133.18 150.821L162.356 84.5531L95.2203 98.1602L133.18 150.821Z" fill="#141414"/>
<path id="Vector_6" d="M61.0878 157.551L133.182 150.82L95.2217 98.1592L61.0878 157.551Z" fill="#393939"/>
</g>
</g>
</svg>
