<svg width="101" height="101" viewBox="0 0 101 101" fill="none" xmlns="http://www.w3.org/2000/svg">
<g id="ethereum-eth-logo 2" clip-path="url(#clip0_15_136)">
<g id="Layer_x0020_1">
<g id="_1421394342400">
<g id="Group">
<path id="Vector" d="M31.807 18.3696L32.2128 20.0582L56.371 61.9014L57.0424 62.0785L69.9416 39.3232L31.807 18.3696Z" fill="#343434"/>
<path id="Vector_2" d="M31.8072 18.3696L30.8857 61.8721L57.0425 62.0784L45.3168 41.7689L31.8072 18.3696Z" fill="#8C8C8C"/>
<path id="Vector_3" d="M59.1624 65.7499L59.0903 66.1806L67.6958 81.0858L68.3396 81.6454L72.077 42.9936L59.1624 65.7499Z" fill="#3C3C3B"/>
<path id="Vector_4" d="M68.3395 81.6455L59.1622 65.75L33.0089 65.5496L68.3395 81.6455Z" fill="#8C8C8C"/>
<path id="Vector_5" d="M57.046 62.0857L69.9452 39.3304L45.3203 41.7762L57.046 62.0857Z" fill="#141414"/>
<path id="Vector_6" d="M30.8897 61.879L57.0465 62.0854L45.3208 41.7758L30.8897 61.879Z" fill="#393939"/>
</g>
</g>
</g>
</g>
<defs>
<clipPath id="clip0_15_136">
<rect width="73.467" height="73.072" fill="white" transform="translate(0 36.7335) rotate(-30)"/>
</clipPath>
</defs>
</svg>
