<svg width="89" height="89" viewBox="0 0 89 89" fill="none" xmlns="http://www.w3.org/2000/svg">
<g id="ethereum-eth-logo 3" clip-path="url(#clip0_15_146)">
<g id="Layer_x0020_1">
<g id="_1421394342400">
<g id="Group">
<path id="Vector" d="M60.4469 16.4343L59.3294 17.4719L37.7096 53.9777L37.8631 54.5678L60.832 54.641L60.4469 16.4343Z" fill="#343434"/>
<path id="Vector_2" d="M60.447 16.4343L26.758 34.4614L37.8632 54.5678L48.3569 36.8489L60.447 16.4343Z" fill="#8C8C8C"/>
<path id="Vector_3" d="M35.9663 57.7711L35.6056 57.9013L27.9043 70.9052L27.7533 71.639L58.9425 57.8557L35.9663 57.7711Z" fill="#3C3C3B"/>
<path id="Vector_4" d="M27.7532 71.6389L35.9662 57.771L24.8579 37.6697L27.7532 71.6389Z" fill="#8C8C8C"/>
<path id="Vector_5" d="M37.8592 54.5736L60.8281 54.6468L48.3529 36.8547L37.8592 54.5736Z" fill="#141414"/>
<path id="Vector_6" d="M26.7544 34.4674L37.8596 54.5738L48.3533 36.8549L26.7544 34.4674Z" fill="#393939"/>
</g>
</g>
</g>
</g>
<defs>
<clipPath id="clip0_15_146">
<rect width="64.5127" height="64.1658" fill="white" transform="translate(32.6971 -3.05176e-05) rotate(30.6353)"/>
</clipPath>
</defs>
</svg>
