<svg width="24" height="24" viewBox="0 0 24 24" fill="none" xmlns="http://www.w3.org/2000/svg">
<path d="M2 12C2 6.49 6.49 2 12 2C17.51 2 22 6.49 22 12C22 17.51 17.51 22 12 22C6.49 22 2 17.51 2 12Z" fill="#FCE34D"/>
<path d="M14.6952 14.1821L12.6752 12.5H11.3202L9.30023 14.1821C8.73523 14.6496 8.55023 15.3692 8.82523 16.02C9.10023 16.6663 9.77023 17.0833 10.5252 17.0833H13.4702C14.2302 17.0833 14.8952 16.6663 15.1702 16.02C15.4452 15.3692 15.2602 14.6496 14.6952 14.1821ZM12.9102 15.3142H11.0902C10.9002 15.3142 10.7502 15.1721 10.7502 15.0025C10.7502 14.8329 10.9052 14.6908 11.0902 14.6908H12.9102C13.1002 14.6908 13.2502 14.8329 13.2502 15.0025C13.2502 15.1721 13.0952 15.3142 12.9102 15.3142Z" fill="black"/>
<path d="M15.1746 8.98001C14.8996 8.33376 14.2296 7.91667 13.4746 7.91667H10.5246C9.76959 7.91667 9.09959 8.33376 8.82459 8.98001C8.55459 9.63084 8.73959 10.3504 9.30459 10.8179L11.3246 12.5H12.6796L14.6996 10.8179C15.2596 10.3504 15.4446 9.63084 15.1746 8.98001ZM12.9096 10.3138H11.0896C10.8996 10.3138 10.7496 10.1717 10.7496 10.0021C10.7496 9.83251 10.9046 9.69042 11.0896 9.69042H12.9096C13.0996 9.69042 13.2496 9.83251 13.2496 10.0021C13.2496 10.1717 13.0946 10.3138 12.9096 10.3138Z" fill="black"/>
</svg>
