<svg width="40" height="40" viewBox="0 0 40 40" fill="none" xmlns="http://www.w3.org/2000/svg">
<path d="M28 3.33325H23.6667C18.3333 3.33325 15 6.66658 15 11.9999V18.7499H22.4L18.95 15.2999C18.7 15.0499 18.5833 14.7333 18.5833 14.4166C18.5833 14.0999 18.7 13.7833 18.95 13.5333C19.4333 13.0499 20.2333 13.0499 20.7167 13.5333L26.3 19.1166C26.7833 19.5999 26.7833 20.3999 26.3 20.8833L20.7167 26.4666C20.2333 26.9499 19.4333 26.9499 18.95 26.4666C18.4667 25.9833 18.4667 25.1833 18.95 24.6999L22.4 21.2499H15V27.9999C15 33.3333 18.3333 36.6666 23.6667 36.6666H27.9833C33.3167 36.6666 36.65 33.3333 36.65 27.9999V11.9999C36.6667 6.66658 33.3333 3.33325 28 3.33325Z" fill="#64748B"/>
<path d="M4.58301 18.75C3.89967 18.75 3.33301 19.3167 3.33301 20C3.33301 20.6833 3.89967 21.25 4.58301 21.25H14.9997V18.75H4.58301Z" fill="#64748B"/>
</svg>
