<svg width="46" height="33" viewBox="0 0 46 33" fill="none" xmlns="http://www.w3.org/2000/svg">
<path d="M27.6393 8.1145H18.3386V24.8867H27.6393V8.1145Z" fill="#FF5F00"/>
<path d="M18.9271 16.4999C18.9257 14.8846 19.2904 13.2902 19.9938 11.8372C20.6972 10.3843 21.7207 9.11105 22.9869 8.11379C21.4189 6.87694 19.5357 6.10776 17.5526 5.89417C15.5695 5.68058 13.5665 6.03118 11.7726 6.90593C9.97873 7.78067 8.46626 9.14425 7.40811 10.8408C6.34996 12.5374 5.78882 14.4984 5.78882 16.4999C5.78882 18.5014 6.34996 20.4624 7.40811 22.159C8.46626 23.8556 9.97873 25.2191 11.7726 26.0939C13.5665 26.9686 15.5695 27.3192 17.5526 27.1056C19.5357 26.892 21.4189 26.1229 22.9869 24.886C21.7207 23.8887 20.6972 22.6155 19.9938 21.1625C19.2904 19.7096 18.9257 18.1152 18.9271 16.4999Z" fill="#EB001B"/>
<path d="M40.1865 16.4999C40.1866 18.5013 39.6255 20.4624 38.5674 22.159C37.5093 23.8555 35.9969 25.2191 34.203 26.0938C32.4091 26.9686 30.4062 27.3192 28.4231 27.1056C26.4401 26.892 24.5569 26.1229 22.9889 24.886C24.254 23.8877 25.2768 22.6142 25.98 21.1616C26.6833 19.7089 27.0487 18.1149 27.0487 16.4999C27.0487 14.8849 26.6833 13.2909 25.98 11.8382C25.2768 10.3856 24.254 9.11206 22.9889 8.11378C24.5569 6.87693 26.4401 6.10776 28.4231 5.89417C30.4062 5.68058 32.4091 6.0312 34.203 6.90595C35.9969 7.7807 37.5093 9.14428 38.5674 10.8408C39.6255 12.5374 40.1866 14.4985 40.1865 16.4999Z" fill="#F79E1B"/>
<path d="M39.1725 23.1118V22.7684H39.3104V22.6984H38.959V22.7684H39.0971V23.1118H39.1725ZM39.8547 23.1118V22.6978H39.747L39.6231 22.9825L39.4991 22.6978H39.3914V23.1118H39.4674V22.7995L39.5836 23.0687H39.6625L39.7787 22.7988V23.1118H39.8547Z" fill="#F79E1B"/>
</svg>
