<svg width="35" height="30" viewBox="0 0 35 30" fill="none" xmlns="http://www.w3.org/2000/svg">
<path d="M25.833 0.833252H9.16634C4.16634 0.833252 0.833008 3.33325 0.833008 9.16659V20.8333C0.833008 26.6666 4.16634 29.1666 9.16634 29.1666H25.833C30.833 29.1666 34.1663 26.6666 34.1663 20.8333V9.16659C34.1663 3.33325 30.833 0.833252 25.833 0.833252ZM26.6163 10.9833L21.3997 15.1499C20.2997 16.0333 18.8997 16.4666 17.4997 16.4666C16.0997 16.4666 14.683 16.0333 13.5997 15.1499L8.38301 10.9833C7.84968 10.5499 7.76634 9.74992 8.18301 9.21659C8.61634 8.68325 9.39968 8.58325 9.93301 9.01659L15.1497 13.1833C16.4163 14.1999 18.5663 14.1999 19.833 13.1833L25.0497 9.01659C25.583 8.58325 26.383 8.66659 26.7997 9.21659C27.233 9.74992 27.1497 10.5499 26.6163 10.9833Z" fill="#64748B"/>
</svg>
