<svg width="80" height="80" viewBox="0 0 80 80" fill="none" xmlns="http://www.w3.org/2000/svg">
<path d="M34.167 33.4333C34.167 35.2333 34.667 35.4999 35.8003 35.8999L37.5003 36.4999V30.8333H36.5003C35.2337 30.8333 34.167 31.9999 34.167 33.4333Z" fill="#FCE34D"/>
<path d="M42.5 49.1667H43.5C44.8 49.1667 45.8333 48 45.8333 46.5667C45.8333 44.7667 45.3333 44.5 44.2 44.1L42.5 43.5V49.1667Z" fill="#FCE34D"/>
<path d="M65.267 18.2667L58.4337 25.1001C57.9337 25.6001 57.3003 25.8334 56.667 25.8334C56.0337 25.8334 55.4003 25.6001 54.9003 25.1001C53.9337 24.1334 53.9337 22.5334 54.9003 21.5667L61.7337 14.7334C55.867 9.73342 48.3003 6.66675 40.0003 6.66675C21.6003 6.66675 6.66699 21.6001 6.66699 40.0001C6.66699 58.4001 21.6003 73.3334 40.0003 73.3334C58.4003 73.3334 73.3337 58.4001 73.3337 40.0001C73.3337 31.7001 70.267 24.1334 65.267 18.2667ZM45.8337 39.4001C47.967 40.1667 50.8337 41.7001 50.8337 46.6001C50.8337 50.7668 47.5337 54.2001 43.5003 54.2001H42.5003V55.0334C42.5003 56.4001 41.367 57.5334 40.0003 57.5334C38.6337 57.5334 37.5003 56.4001 37.5003 55.0334V54.2001H37.2337C32.8003 54.2001 29.167 50.4668 29.167 45.8667C29.167 44.4668 30.3003 43.3334 31.667 43.3334C33.0337 43.3334 34.167 44.4668 34.167 45.8334C34.167 47.6668 35.5337 49.1668 37.2337 49.1668H37.5003V41.7668L34.167 40.6001C32.0337 39.8334 29.167 38.3001 29.167 33.4001C29.167 29.2334 32.467 25.8001 36.5003 25.8001H37.5003V25.0001C37.5003 23.6334 38.6337 22.5001 40.0003 22.5001C41.367 22.5001 42.5003 23.6334 42.5003 25.0001V25.8334H42.767C47.2003 25.8334 50.8337 29.5667 50.8337 34.1667C50.8337 35.5334 49.7003 36.6667 48.3337 36.6667C46.967 36.6667 45.8337 35.5334 45.8337 34.1667C45.8337 32.3334 44.467 30.8334 42.767 30.8334H42.5003V38.2334L45.8337 39.4001Z" fill="#FCE34D"/>
<path d="M75.6333 5.70008C75.3667 5.10008 74.9 4.60008 74.2667 4.33341C73.9667 4.23341 73.6667 4.16675 73.3333 4.16675H60C58.6333 4.16675 57.5 5.30008 57.5 6.66675C57.5 8.03341 58.6333 9.16675 60 9.16675H67.3L61.7333 14.7334C63 15.8334 64.1667 17.0001 65.2667 18.2667L70.8333 12.7001V20.0001C70.8333 21.3667 71.9667 22.5001 73.3333 22.5001C74.7 22.5001 75.8333 21.3667 75.8333 20.0001V6.66675C75.8333 6.33341 75.7667 6.03341 75.6333 5.70008Z" fill="#FCE34D"/>
</svg>
