        <svg
                  width="25"
                  height="24"
                  viewBox="0 0 25 24"
                  fill="none"
                  xmlns="http://www.w3.org/2000/svg"
                >
                  <path
                    d="M2.625 12.61H19.625"
                    stroke="white"
                    strokeWidth="1.5"
                    strokeMiterlimit="10"
                    strokeLinecap="round"
                    strokeLinejoin="round"
                  />
                  <path
                    d="M19.625 10.28V17.43C19.595 20.28 18.815 21 15.845 21H6.40503C3.38503 21 2.625 20.2501 2.625 17.2701V10.28C2.625 7.58005 3.255 6.71005 5.625 6.57005C5.865 6.56005 6.12503 6.55005 6.40503 6.55005H15.845C18.865 6.55005 19.625 7.30005 19.625 10.28Z"
                    stroke="white"
                    strokeWidth="1.5"
                    strokeLinecap="round"
                    strokeLinejoin="round"
                  />
                  <path
                    d="M22.625 6.73V13.72C22.625 16.42 21.995 17.29 19.625 17.43V10.28C19.625 7.3 18.865 6.55 15.845 6.55H6.40503C6.12503 6.55 5.865 6.56 5.625 6.57C5.655 3.72 6.43503 3 9.40503 3H18.845C21.865 3 22.625 3.75 22.625 6.73Z"
                    stroke="white"
                    strokeWidth="1.5"
                    strokeLinecap="round"
                    strokeLinejoin="round"
                  />
                  <path
                    d="M5.875 17.8101H7.59497"
                    stroke="white"
                    strokeWidth="1.5"
                    strokeMiterlimit="10"
                    strokeLinecap="round"
                    strokeLinejoin="round"
                  />
                  <path
                    d="M9.73438 17.8101H13.1744"
                    stroke="white"
                    strokeWidth="1.5"
                    strokeMiterlimit="10"
                    strokeLinecap="round"
                    strokeLinejoin="round"
                  />
                </svg>