<svg fill="none" xmlns="http://www.w3.org/2000/svg" viewBox="0 0 136 42"><path d="M71.65 14.23c-.91 0-1.68-.32-2.28-.94a3.2 3.2 0 01-.92-2.3c0-.9.3-1.67.92-2.28.6-.63 1.37-.94 2.27-.94a3.19 3.19 0 013.2 3.23 3.2 3.2 0 01-3.2 3.23zm-27.03 0a3.17 3.17 0 01-2.29-.93 3.11 3.11 0 01-.94-2.3c0-.92.32-1.69.94-2.3a3.13 3.13 0 012.3-.93c.43 0 .86.08 1.27.26.4.17.73.4.98.7l.05.07-.67.66-.07-.08c-.39-.46-.9-.68-1.58-.68a2.23 2.23 0 00-2.23 2.3 2.23 2.23 0 002.23 2.3c.65 0 1.2-.21 1.61-.64.25-.25.41-.6.46-1.04h-2.17v-.93h3.1l.02.09c.02.15.04.31.04.46a2.8 2.8 0 01-.77 2.07c-.59.61-1.35.92-2.28.92zm35.93-.13h-.95l-2.94-4.68.03.84v3.84h-.96V7.9h1.09l.03.05 2.76 4.4-.02-.83V7.9h.96v6.2zm-16.1 0h-.97V8.83h-1.69V7.9h4.34v.93h-1.69v5.27zm-3.45 0h-.97V7.9H61v6.2zm-5.44 0h-.97V8.83h-1.68V7.9h4.33v.93h-1.68v5.27zm-3.27-.01h-3.71V7.9h3.71v.93h-2.74v1.7h2.48v.93h-2.48v1.7h2.74v.93zm17.79-1.44c.43.43.95.65 1.57.65a2.1 2.1 0 001.56-.65c.43-.42.64-.98.64-1.65 0-.67-.21-1.23-.63-1.65a2.15 2.15 0 00-1.57-.65c-.63 0-1.14.21-1.57.65-.42.42-.64.98-.64 1.65 0 .67.21 1.23.64 1.65z" fill="#fff"/><path fill-rule="evenodd" clip-rule="evenodd" d="M68.36 22.76A4.2 4.2 0 0064.08 27a4.21 4.21 0 004.28 4.25 4.2 4.2 0 004.28-4.25 4.2 4.2 0 00-4.28-4.25zm0 6.82c-1.3 0-2.41-1.07-2.41-2.58 0-1.53 1.11-2.58 2.4-2.58 1.3 0 2.41 1.05 2.41 2.58 0 1.52-1.11 2.58-2.4 2.58zm-9.34-6.82A4.2 4.2 0 0054.73 27a4.22 4.22 0 004.29 4.25 4.2 4.2 0 004.28-4.25 4.2 4.2 0 00-4.28-4.25zm0 6.82c-1.3 0-2.41-1.07-2.41-2.58 0-1.53 1.11-2.58 2.4-2.58 1.3 0 2.41 1.05 2.41 2.58 0 1.52-1.11 2.58-2.4 2.58zM47.9 24.06v1.8h4.34a3.8 3.8 0 01-.98 2.26 4.43 4.43 0 01-3.35 1.33 4.75 4.75 0 01-4.75-4.8 4.74 4.74 0 018.02-3.52l1.28-1.27a6.3 6.3 0 00-4.54-1.83 6.7 6.7 0 00-6.72 6.6 6.7 6.7 0 006.72 6.6c1.98 0 3.46-.64 4.63-1.85a5.97 5.97 0 001.57-4.22c0-.42-.03-.8-.1-1.12H47.9v.02zm45.46 1.4c-.36-.96-1.44-2.71-3.66-2.71-2.2 0-4.02 1.72-4.02 4.25 0 2.39 1.8 4.25 4.24 4.25a4.24 4.24 0 003.55-1.88l-1.45-.97a2.43 2.43 0 01-2.1 1.18c-.95 0-1.62-.44-2.07-1.3l5.71-2.35-.2-.47zm-5.82 1.42a2.34 2.34 0 012.23-2.48c.75 0 1.37.37 1.58.9l-3.81 1.58zM82.9 31h1.88V18.5H82.9V31zm-3.07-7.3h-.07a2.97 2.97 0 00-2.25-.95A4.24 4.24 0 0073.4 27a4.21 4.21 0 004.1 4.24c1.01 0 1.83-.46 2.25-.97h.07v.61c0 1.62-.87 2.5-2.28 2.5a2.36 2.36 0 01-2.15-1.51l-1.63.68a4.07 4.07 0 003.78 2.5c2.2 0 4.06-1.28 4.06-4.43V23h-1.77v.7h-.01zm-2.16 5.88c-1.29 0-2.37-1.08-2.37-2.57 0-1.5 1.08-2.59 2.38-2.59 1.28 0 2.27 1.1 2.27 2.6.01 1.48-1 2.56-2.28 2.56zm24.46-11.08h-4.48V31h1.88v-4.73h2.6c2.08 0 4.12-1.5 4.12-3.88s-2.03-3.89-4.12-3.89zm.06 6.02h-2.67v-4.29h2.67c1.4 0 2.2 1.16 2.2 2.15 0 .98-.8 2.14-2.2 2.14zm11.57-1.79c-1.36 0-2.76.6-3.35 1.91l1.67.7c.35-.7 1.01-.93 1.7-.93.97 0 1.95.58 1.98 1.6v.14a4.2 4.2 0 00-1.95-.48c-1.8 0-3.62.98-3.62 2.81 0 1.68 1.47 2.76 3.11 2.76 1.26 0 1.95-.57 2.39-1.22h.07v.96h1.8V26.2c0-2.23-1.66-3.47-3.8-3.47zm-.23 6.85c-.62 0-1.48-.3-1.48-1.07 0-.97 1.08-1.33 1.99-1.33.82 0 1.21.17 1.7.42a2.25 2.25 0 01-2.21 1.98zM124.15 23L122 28.42h-.07L119.7 23h-2.01l3.34 7.58-1.9 4.21h1.95L126.22 23h-2.07zm-16.87 8h1.88V18.5h-1.88V31z" fill="#fff"/><path fill-rule="evenodd" clip-rule="evenodd" d="M10.47 8.53c-.3.32-.46.8-.46 1.42v22.1c0 .63.17 1.1.47 1.4l.07.07 12.43-12.39v-.27L10.54 8.46l-.07.07z" fill="url(#paint0_linear)"/><path fill-rule="evenodd" clip-rule="evenodd" d="M27.12 25.28l-4.14-4.14v-.29l4.14-4.13.09.06 4.9 2.78c1.4.78 1.4 2.09 0 2.88l-4.9 2.78-.09.06z" fill="url(#paint1_linear)"/><path fill-rule="evenodd" clip-rule="evenodd" d="M27.21 25.22L22.97 21l-12.5 12.47c.45.49 1.22.54 2.08.06l14.66-8.3z" fill="url(#paint2_linear)"/><path fill-rule="evenodd" clip-rule="evenodd" d="M27.21 16.78l-14.66-8.3c-.86-.49-1.63-.42-2.08.07L22.97 21l4.24-4.22z" fill="url(#paint3_linear)"/><path opacity=".2" fill-rule="evenodd" clip-rule="evenodd" d="M27.12 25.13l-14.56 8.25c-.81.46-1.54.43-2 0l-.08.08.08.07c.46.42 1.19.46 2 0l14.66-8.3-.1-.1z" fill="#000"/><path opacity=".12" fill-rule="evenodd" clip-rule="evenodd" d="M32.12 22.3l-5.01 2.83.09.1 4.9-2.79c.7-.4 1.05-.92 1.05-1.44-.04.48-.4.93-1.03 1.3z" fill="#000"/><path opacity=".25" fill-rule="evenodd" clip-rule="evenodd" d="M12.55 8.62L32.11 19.7c.64.36 1 .82 1.05 1.3 0-.52-.34-1.04-1.05-1.44L12.55 8.48c-1.4-.8-2.54-.13-2.54 1.47v.14c0-1.6 1.14-2.26 2.54-1.47z" fill="#fff"/><defs><linearGradient id="paint0_linear" x1="21.87" y1="9.71" x2="1.97" y2="15.03" gradientUnits="userSpaceOnUse"><stop stop-color="#00A0FF"/><stop offset=".01" stop-color="#00A1FF"/><stop offset=".26" stop-color="#00BEFF"/><stop offset=".51" stop-color="#00D2FF"/><stop offset=".76" stop-color="#00DFFF"/><stop offset="1" stop-color="#00E3FF"/></linearGradient><linearGradient id="paint1_linear" x1="33.95" y1="21" x2="9.67" y2="21" gradientUnits="userSpaceOnUse"><stop stop-color="#FFE000"/><stop offset=".41" stop-color="#FFBD00"/><stop offset=".78" stop-color="orange"/><stop offset="1" stop-color="#FF9C00"/></linearGradient><linearGradient id="paint2_linear" x1="24.91" y1="23.3" x2="9" y2="50.16" gradientUnits="userSpaceOnUse"><stop stop-color="#FF3A44"/><stop offset="1" stop-color="#C31162"/></linearGradient><linearGradient id="paint3_linear" x1="7.32" y1="1.18" x2="14.41" y2="13.18" gradientUnits="userSpaceOnUse"><stop stop-color="#32A071"/><stop offset=".07" stop-color="#2DA771"/><stop offset=".48" stop-color="#15CF74"/><stop offset=".8" stop-color="#06E775"/><stop offset="1" stop-color="#00F076"/></linearGradient></defs></svg>