   <svg
        width="380"
        height="251"
        viewBox="0 0 380 251"
        fill="none"
        xmlns="http://www.w3.org/2000/svg"
      >
        <g opacity="0.58">
          <g clip-path="url(#clip0_202_419)">
            <path
              d="M10.3601 50.94H7.02007V47.6H3.91007V50.94H0.570068V54.05H3.91007V57.39H7.02007V54.05H10.3601V50.94Z"
              fill="#007700"
            />
          </g>
          <g clip-path="url(#clip1_202_419)">
            <path
              d="M278.47 160.88H275.13V157.54H272.02V160.88H268.68V163.99H272.02V167.33H275.13V163.99H278.47V160.88Z"
              fill="#007700"
            />
          </g>
          <g clip-path="url(#clip2_202_419)">
            <path
              d="M219.23 51.38H215.89V48.04H212.78V51.38H209.44V54.49H212.78V57.83H215.89V54.49H219.23V51.38Z"
              fill="#007700"
            />
          </g>
          <g clip-path="url(#clip3_202_419)">
            <path
              d="M141.5 43.59H138.16V40.25H135.05V43.59H131.71V46.7H135.05V50.04H138.16V46.7H141.5V43.59Z"
              fill="#007700"
            />
          </g>
          <g clip-path="url(#clip4_202_419)">
            <path
              d="M312.54 114.49H309.2V111.15H306.09V114.49H302.75V117.6H306.09V120.94H309.2V117.6H312.54V114.49Z"
              fill="#007700"
            />
          </g>
          <g clip-path="url(#clip5_202_419)">
            <path
              d="M360.35 89.48H357.01V86.14H353.9V89.48H350.56V92.59H353.9V95.93H357.01V92.59H360.35V89.48Z"
              fill="#007700"
            />
          </g>
          <g clip-path="url(#clip6_202_419)">
            <path
              d="M230.98 21.06H227.64V17.72H224.53V21.06H221.19V24.17H224.53V27.51H227.64V24.17H230.98V21.06Z"
              fill="#007700"
            />
          </g>
          <g clip-path="url(#clip7_202_419)">
            <path
              d="M242.29 4.25998H238.95V0.919983H235.84V4.25998H232.5V7.36998H235.84V10.71H238.95V7.36998H242.29V4.25998Z"
              fill="#007700"
            />
          </g>
          <g clip-path="url(#clip8_202_419)">
            <path
              d="M379.25 45.09H375.91V41.75H372.8V45.09H369.46V48.2H372.8V51.54H375.91V48.2H379.25V45.09Z"
              fill="#007700"
            />
          </g>
          <g clip-path="url(#clip9_202_419)">
            <path
              d="M356.28 243.81H352.94V240.47H349.83V243.81H346.49V246.92H349.83V250.26H352.94V246.92H356.28V243.81Z"
              fill="#007700"
            />
          </g>
          <g clip-path="url(#clip10_202_419)">
            <path
              d="M222.46 234.61H219.12V231.27H216.01V234.61H212.67V237.72H216.01V241.06H219.12V237.72H222.46V234.61Z"
              fill="#007700"
            />
          </g>
          <g clip-path="url(#clip11_202_419)">
            <path
              d="M276.26 117.58H272.92V114.24H269.81V117.58H266.47V120.69H269.81V124.03H272.92V120.69H276.26V117.58Z"
              fill="#007700"
            />
          </g>
          <g clip-path="url(#clip12_202_419)">
            <path
              d="M300.07 54.76H296.73V51.42H293.62V54.76H290.28V57.87H293.62V61.21H296.73V57.87H300.07V54.76Z"
              fill="#007700"
            />
          </g>
        </g>
        <defs>
          <clipPath id="clip0_202_419">
            <rect
              width="9.79"
              height="9.79"
              fill="white"
              transform="translate(0.570068 47.6)"
            />
          </clipPath>
          <clipPath id="clip1_202_419">
            <rect
              width="9.79"
              height="9.79"
              fill="white"
              transform="translate(268.68 157.54)"
            />
          </clipPath>
          <clipPath id="clip2_202_419">
            <rect
              width="9.79"
              height="9.79"
              fill="white"
              transform="translate(209.44 48.04)"
            />
          </clipPath>
          <clipPath id="clip3_202_419">
            <rect
              width="9.79"
              height="9.79"
              fill="white"
              transform="translate(131.71 40.25)"
            />
          </clipPath>
          <clipPath id="clip4_202_419">
            <rect
              width="9.79"
              height="9.79"
              fill="white"
              transform="translate(302.75 111.15)"
            />
          </clipPath>
          <clipPath id="clip5_202_419">
            <rect
              width="9.79"
              height="9.79"
              fill="white"
              transform="translate(350.56 86.14)"
            />
          </clipPath>
          <clipPath id="clip6_202_419">
            <rect
              width="9.79"
              height="9.79"
              fill="white"
              transform="translate(221.19 17.72)"
            />
          </clipPath>
          <clipPath id="clip7_202_419">
            <rect
              width="9.79"
              height="9.79"
              fill="white"
              transform="translate(232.5 0.919983)"
            />
          </clipPath>
          <clipPath id="clip8_202_419">
            <rect
              width="9.79"
              height="9.79"
              fill="white"
              transform="translate(369.46 41.75)"
            />
          </clipPath>
          <clipPath id="clip9_202_419">
            <rect
              width="9.79"
              height="9.79"
              fill="white"
              transform="translate(346.49 240.47)"
            />
          </clipPath>
          <clipPath id="clip10_202_419">
            <rect
              width="9.79"
              height="9.79"
              fill="white"
              transform="translate(212.67 231.27)"
            />
          </clipPath>
          <clipPath id="clip11_202_419">
            <rect
              width="9.79"
              height="9.79"
              fill="white"
              transform="translate(266.47 114.24)"
            />
          </clipPath>
          <clipPath id="clip12_202_419">
            <rect
              width="9.79"
              height="9.79"
              fill="white"
              transform="translate(290.28 51.42)"
            />
          </clipPath>
        </defs>
      </svg>