<svg width="40" height="40" viewBox="0 0 40 40" fill="none" xmlns="http://www.w3.org/2000/svg">
<path d="M19.9997 3.33325C15.633 3.33325 12.083 6.88325 12.083 11.2499C12.083 15.5333 15.433 18.9999 19.7997 19.1499C19.933 19.1333 20.0663 19.1333 20.1663 19.1499C20.1997 19.1499 20.2163 19.1499 20.2497 19.1499C20.2663 19.1499 20.2663 19.1499 20.283 19.1499C24.5497 18.9999 27.8997 15.5333 27.9163 11.2499C27.9163 6.88325 24.3663 3.33325 19.9997 3.33325Z" fill="#64748B"/>
<path d="M28.4666 23.5999C23.8166 20.4999 16.2333 20.4999 11.5499 23.5999C9.43327 24.9999 8.2666 26.9166 8.2666 28.9666C8.2666 31.0166 9.43327 32.9166 11.5333 34.3166C13.8666 35.8832 16.9333 36.6666 19.9999 36.6666C23.0666 36.6666 26.1333 35.8832 28.4666 34.3166C30.5666 32.8999 31.7333 30.9999 31.7333 28.9332C31.7166 26.8999 30.5666 24.9832 28.4666 23.5999ZM23.8833 27.5999L19.6833 31.7999C19.4833 31.9999 19.2166 32.0999 18.9499 32.0999C18.6833 32.0999 18.4166 31.9832 18.2166 31.7999L16.1166 29.6999C15.7166 29.2999 15.7166 28.6332 16.1166 28.2332C16.5166 27.8332 17.1833 27.8332 17.5833 28.2332L18.9499 29.5999L22.4166 26.1332C22.8166 25.7332 23.4833 25.7332 23.8833 26.1332C24.2999 26.5332 24.2999 27.1999 23.8833 27.5999Z" fill="#64748B"/>
</svg>
