<svg width="80" height="80" viewBox="0 0 80 80" fill="none" xmlns="http://www.w3.org/2000/svg">
<path d="M65 12.2334C65 12.2001 65 12.1667 64.9333 12.1334C64.2 11.2001 63.2333 10.7001 62.1 10.7001C60.3333 10.7001 58.2 11.8667 55.9 14.3334C53.1667 17.2667 48.9667 17.0334 46.5667 13.8334L43.2 9.36675C41.8667 7.56675 40.1 6.66675 38.3333 6.66675C36.5667 6.66675 34.8 7.56675 33.4667 9.36675L30.0667 13.8667C27.7 17.0334 23.5333 17.2667 20.8 14.3667L20.7667 14.3334C17 10.3001 13.6333 9.70008 11.7333 12.1334C11.6667 12.1667 11.6667 12.2001 11.6667 12.2334C10.4667 14.8001 10 18.4001 10 23.4667V56.5334C10 61.6001 10.4667 65.2001 11.6667 67.7668C11.6667 67.8001 11.7 67.8668 11.7333 67.9001C13.6667 70.3001 17 69.7001 20.7667 65.6668L20.8 65.6334C23.5333 62.7334 27.7 62.9668 30.0667 66.1334L33.4667 70.6334C34.8 72.4334 36.5667 73.3334 38.3333 73.3334C40.1 73.3334 41.8667 72.4334 43.2 70.6334L46.5667 66.1668C48.9667 62.9668 53.1667 62.7334 55.9 65.6668C58.2 68.1334 60.3333 69.3001 62.1 69.3001C63.2333 69.3001 64.2 68.8334 64.9333 67.9001C64.9667 67.8668 65 67.8001 65 67.7668C66.2 65.2001 66.6667 61.6001 66.6667 56.5334V23.4667C66.6667 18.4001 66.2 14.8001 65 12.2334ZM46.6667 48.3334H26.6667C25.3 48.3334 24.1667 47.2001 24.1667 45.8334C24.1667 44.4668 25.3 43.3334 26.6667 43.3334H46.6667C48.0333 43.3334 49.1667 44.4668 49.1667 45.8334C49.1667 47.2001 48.0333 48.3334 46.6667 48.3334ZM53.3333 36.6667H26.6667C25.3 36.6667 24.1667 35.5334 24.1667 34.1667C24.1667 32.8001 25.3 31.6667 26.6667 31.6667H53.3333C54.7 31.6667 55.8333 32.8001 55.8333 34.1667C55.8333 35.5334 54.7 36.6667 53.3333 36.6667Z" fill="#FCE34D"/>
</svg>
