<svg width="64" height="64" viewBox="0 0 64 64" fill="none" xmlns="http://www.w3.org/2000/svg">
<path d="M36.6131 9.36004L41.3064 18.7467C41.9464 20.0534 43.6531 21.3067 45.0931 21.5467L53.5998 22.96C59.0398 23.8667 60.3198 27.8134 56.3998 31.7067L49.7864 38.32C48.6664 39.44 48.0531 41.6 48.3998 43.1467L50.2931 51.3334C51.7864 57.8134 48.3464 60.32 42.6131 56.9334L34.6398 52.2134C33.1998 51.36 30.8264 51.36 29.3598 52.2134L21.3864 56.9334C15.6798 60.32 12.2131 57.7867 13.7064 51.3334L15.5998 43.1467C15.9464 41.6 15.3331 39.44 14.2131 38.32L7.59976 31.7067C3.70642 27.8134 4.95976 23.8667 10.3998 22.96L18.9064 21.5467C20.3198 21.3067 22.0264 20.0534 22.6664 18.7467L27.3598 9.36004C29.9198 4.26671 34.0798 4.26671 36.6131 9.36004Z" stroke="#64748B" stroke-width="3" stroke-linecap="round" stroke-linejoin="round"/>
</svg>
