<svg width="134" height="134" viewBox="0 0 134 134" fill="none" xmlns="http://www.w3.org/2000/svg">
<path d="M66.9987 0.333008C30.2654 0.333008 0.332031 30.2664 0.332031 66.9997C0.332031 103.733 30.2654 133.666 66.9987 133.666C103.732 133.666 133.665 103.733 133.665 66.9997C133.665 30.2664 103.732 0.333008 66.9987 0.333008ZM98.8654 51.6664L61.0654 89.4664C60.132 90.3997 58.8654 90.933 57.532 90.933C56.1987 90.933 54.932 90.3997 53.9987 89.4664L35.132 70.5997C33.1987 68.6664 33.1987 65.4664 35.132 63.533C37.0654 61.5997 40.2654 61.5997 42.1987 63.533L57.532 78.8664L91.7987 44.5997C93.732 42.6664 96.932 42.6664 98.8654 44.5997C100.799 46.533 100.799 49.6664 98.8654 51.6664Z" fill="#10B981"/>
</svg>
