<svg width="141" height="32" viewBox="0 0 141 32" fill="none" xmlns="http://www.w3.org/2000/svg" class="Header_component__icon__biGVA"><path fill-rule="evenodd" clip-rule="evenodd" d="M5.81814 19.8807C5.81814 20.1521 6.03837 20.3722 6.30994 20.3722H11.1445C11.4161 20.3722 11.6363 20.1521 11.6363 19.8807V17.4652H14.0536C14.3251 17.4652 14.5454 17.2451 14.5454 16.9737V15.0496C14.5454 14.7782 14.3251 14.5582 14.0536 14.5582H6.30994C6.03837 14.5582 5.81814 14.7782 5.81814 15.0496V19.8807ZM5.81814 9.21898C5.81814 8.9476 5.59792 8.72754 5.32635 8.72754H0.491792C0.220223 8.72754 0 8.9476 0 9.21898V14.0501C0 14.3215 0.220223 14.5415 0.491792 14.5415H2.41728C2.68885 14.5415 2.90907 14.3215 2.90907 14.0501V11.6345H5.32635C5.59792 11.6345 5.81814 11.4145 5.81814 11.1431V9.21898ZM8.72722 26.6609C8.72722 26.3895 8.50699 26.1695 8.23542 26.1695H6.30994C6.03837 26.1695 5.81814 26.3895 5.81814 26.6609V28.585C5.81814 28.8564 6.03837 29.0765 6.30994 29.0765H8.23542C8.50699 29.0765 8.72722 28.8564 8.72722 28.585V26.6609ZM43.1443 8.72754H38.3097C38.0382 8.72754 37.8179 8.9476 37.8179 9.21898V11.1431C37.8179 11.4145 38.0382 11.6345 38.3097 11.6345H40.727V14.0501C40.727 14.3215 40.9472 14.5415 41.2188 14.5415H43.1443C43.4159 14.5415 43.6361 14.3215 43.6361 14.0501V9.21898C43.6361 8.9476 43.4159 8.72754 43.1443 8.72754ZM37.3261 14.5415H29.5825C29.3109 14.5415 29.0907 14.7616 29.0907 15.033V16.9571C29.0907 17.2284 29.3109 17.4485 29.5825 17.4485H31.9998V19.8641C31.9998 20.1354 32.22 20.3555 32.4916 20.3555H37.3261C37.5977 20.3555 37.8179 20.1354 37.8179 19.8641V15.033C37.8179 14.7616 37.5977 14.5415 37.3261 14.5415ZM34.4171 29.0931H31.9998V26.6776C31.9998 26.4062 31.7796 26.1861 31.508 26.1861H29.0907V20.8636C29.0907 20.5922 28.8705 20.3722 28.5989 20.3722H26.1817V15.0496C26.1817 14.7782 25.9614 14.5582 25.6899 14.5582H17.9462C17.6747 14.5582 17.4544 14.7782 17.4544 15.0496V20.3722H15.0372C14.7655 20.3722 14.5454 20.5922 14.5454 20.8636V26.1861H12.1281C11.8565 26.1861 11.6363 26.4062 11.6363 26.6776V29.0931H9.21901C8.94744 29.0931 8.72722 29.3132 8.72722 29.5846V31.5087C8.72722 31.7801 8.94744 32.0001 9.21901 32.0001H14.0536C14.3251 32.0001 14.5454 31.7801 14.5454 31.5087V29.0931H16.9626C17.2342 29.0931 17.4544 28.8731 17.4544 28.6017V23.2791H26.1817V28.6017C26.1817 28.8731 26.4019 29.0931 26.6734 29.0931H29.0907V31.5087C29.0907 31.7801 29.3109 32.0001 29.5825 32.0001H34.4171C34.6886 32.0001 34.9089 31.7801 34.9089 31.5087V29.5846C34.9089 29.3132 34.6886 29.0931 34.4171 29.0931ZM37.3261 26.1695H35.4007C35.1291 26.1695 34.9089 26.3895 34.9089 26.6609V28.585C34.9089 28.8564 35.1291 29.0765 35.4007 29.0765H37.3261C37.5977 29.0765 37.8179 28.8564 37.8179 28.585V26.6609C37.8179 26.3895 37.5977 26.1695 37.3261 26.1695Z" fill="#FFF"></path><path fill-rule="evenodd" clip-rule="evenodd" d="M12.1275 8.72722H31.5075C31.779 8.72722 31.9992 8.507 31.9992 8.23543V6.30994C31.9992 6.03828 31.779 5.81815 31.5075 5.81815H29.0902V3.40086C29.0902 3.1293 28.87 2.90907 28.5984 2.90907H26.1811V0.491792C26.1811 0.220223 25.9609 0 25.6893 0H17.9457C17.6741 0 17.4539 0.220223 17.4539 0.491792V2.90907H15.0366C14.765 2.90907 14.5448 3.1293 14.5448 3.40086V5.81815H12.1275C11.856 5.81815 11.6357 6.03828 11.6357 6.30994V8.23543C11.6357 8.507 11.856 8.72722 12.1275 8.72722Z" fill="#1BEDBA"></path><path fill-rule="evenodd" clip-rule="evenodd" d="M93.8523 14.2522C92.3219 14.2522 90.9394 14.8818 89.9667 15.8914C89.0163 14.8779 87.6626 14.2444 86.1623 14.2444C85.3205 14.2444 84.4616 14.5526 83.7992 14.998V14.8504C83.7992 14.6375 83.6225 14.4756 83.4169 14.4756H81.2827C81.0785 14.4756 80.9004 14.6375 80.9004 14.8504V25.4826C80.9004 25.6955 81.0772 25.8574 81.2827 25.8574H83.4221C83.6264 25.8574 83.8044 25.6955 83.8044 25.4826V19.4455C83.8044 18.1446 84.8609 17.0918 86.1623 17.0918C87.4649 17.0918 88.5201 18.1459 88.5201 19.4455V25.4826C88.5201 25.6955 88.6968 25.8574 88.9024 25.8574H90.9918C90.997 25.8574 91.001 25.8574 91.0036 25.8574H91.0507C91.2549 25.8574 91.433 25.6955 91.433 25.4826V19.4494C91.433 18.155 92.5117 17.097 93.8523 17.097C95.1929 17.097 96.2717 18.155 96.2717 19.4494V25.4813C96.2717 25.6942 96.4484 25.8561 96.654 25.8561H98.801C99.0066 25.8561 99.1833 25.6942 99.1833 25.4813V19.4494C99.182 16.5746 96.7914 14.2522 93.8523 14.2522ZM109.858 19.9627C109.043 19.4677 107.997 19.23 107.085 19.0236L107.067 19.0197C106.405 18.8695 105.823 18.7363 105.404 18.5403C104.989 18.347 104.801 18.125 104.801 17.8193C104.801 17.5555 104.9 17.3217 105.136 17.1375C105.378 16.9481 105.779 16.8018 106.398 16.7653C107.453 16.7653 108.27 16.7901 108.823 16.8149C109.1 16.8267 109.311 16.8397 109.451 16.8489C109.522 16.8541 109.575 16.8567 109.611 16.8593C109.629 16.8606 109.642 16.8619 109.65 16.8619L109.659 16.8632H109.662L109.671 16.8645H109.68C109.844 16.8645 109.993 16.8332 110.095 16.7274C110.185 16.6333 110.204 16.5132 110.212 16.4544C110.212 16.4505 110.213 16.4466 110.213 16.444C110.217 16.4191 110.22 16.4008 110.223 16.3839L110.229 16.3617V15.0516C110.229 14.8922 110.218 14.7459 110.157 14.6336C110.081 14.4939 109.954 14.4494 109.852 14.4272L109.842 14.4259L109.833 14.4246H109.829L109.819 14.4233C109.81 14.422 109.797 14.4207 109.78 14.4194C109.744 14.4155 109.692 14.4103 109.623 14.4037C109.482 14.3907 109.273 14.3737 108.99 14.3567C108.425 14.3227 107.566 14.2888 106.39 14.2888H106.386H106.382C104.877 14.345 103.735 14.7629 102.967 15.4238C102.196 16.0861 101.816 16.9795 101.816 17.946C101.816 18.5821 101.963 19.1033 102.222 19.533C102.48 19.9614 102.842 20.2867 103.256 20.5414C104.072 21.0416 105.116 21.2833 106.026 21.4936L106.045 21.4975C106.708 21.6503 107.291 21.7861 107.71 21.9847C108.124 22.1806 108.316 22.4066 108.316 22.7214C108.316 22.9839 108.194 23.2177 107.9 23.3966C107.593 23.5821 107.097 23.7062 106.367 23.7062C105.537 23.7062 104.631 23.6174 103.929 23.5273C103.578 23.4829 103.281 23.4371 103.07 23.4032C102.965 23.3862 102.882 23.3718 102.825 23.3627C102.81 23.3601 102.796 23.3575 102.785 23.3562C102.776 23.3548 102.766 23.3535 102.76 23.3522L102.744 23.3496L102.739 23.3483L102.721 23.3444H102.702C102.553 23.3444 102.412 23.3718 102.312 23.4724C102.224 23.5599 102.205 23.6762 102.197 23.7297C102.196 23.7336 102.196 23.7376 102.196 23.7402C102.19 23.7689 102.186 23.7872 102.182 23.8055L102.177 23.8264L102.095 25.3049V25.3102C102.095 25.4068 102.109 25.5218 102.162 25.625C102.215 25.7347 102.312 25.8326 102.46 25.8705L102.465 25.8718L102.471 25.8731L102.477 25.8392C102.471 25.8731 102.471 25.8731 102.471 25.8731H102.472L102.476 25.8744C102.478 25.8757 102.484 25.8757 102.49 25.877C102.502 25.8797 102.52 25.8823 102.544 25.8875C102.591 25.8966 102.659 25.9084 102.749 25.9228C102.93 25.9515 103.193 25.9894 103.534 26.0286C104.212 26.1056 105.191 26.1814 106.395 26.1814H106.405C106.553 26.1827 107.756 26.1918 108.93 25.7516C109.519 25.5309 110.113 25.1926 110.561 24.6728C111.013 24.149 111.305 23.4502 111.305 22.5333C111.305 21.9037 111.157 21.3865 110.898 20.9607C110.636 20.5348 110.273 20.2135 109.858 19.9627ZM133.985 14.4821C132.79 14.4821 131.673 14.8178 130.735 15.399V10.5276C130.735 10.3147 130.558 10.1527 130.352 10.1527H128.21C128.006 10.1527 127.828 10.3147 127.828 10.5276V25.4852C127.828 25.6981 128.005 25.8601 128.21 25.8601H130.352C130.557 25.8601 130.735 25.6981 130.735 25.4852V24.9875C131.62 25.6772 132.793 26.1801 133.985 26.1801C137.318 26.1801 140.031 23.5677 140.031 20.3311C140.031 17.0944 137.318 14.4821 133.985 14.4821ZM133.985 23.3562C132.257 23.3562 130.855 22.0017 130.855 20.3311C130.855 18.6605 132.256 17.306 133.985 17.306C135.713 17.306 137.115 18.6605 137.115 20.3311C137.115 22.0017 135.715 23.3562 133.985 23.3562ZM124.533 14.4821H122.386C122.18 14.4821 122.003 14.6441 122.003 14.857V21.0403C122.003 22.3164 120.927 23.3627 119.584 23.3627C119.578 23.3627 119.572 23.3627 119.566 23.3627C119.559 23.3627 119.554 23.3627 119.547 23.3627C118.204 23.3627 117.128 22.3164 117.128 21.0403V14.857C117.128 14.6441 116.951 14.4821 116.746 14.4821H114.599C114.393 14.4821 114.216 14.6441 114.216 14.857V21.0403C114.216 23.8851 116.61 26.1788 119.547 26.1788C119.554 26.1788 119.559 26.1788 119.566 26.1788C119.572 26.1788 119.578 26.1788 119.584 26.1788C122.521 26.1788 124.915 23.8851 124.915 21.0403V14.857C124.915 14.6441 124.738 14.4821 124.533 14.4821ZM62.9433 19.9627C62.1277 19.4677 61.0817 19.23 60.1705 19.0236L60.1521 19.0197C59.4897 18.8695 58.9084 18.7363 58.4895 18.5403C58.0745 18.347 57.886 18.125 57.886 17.8193C57.886 17.5555 57.9855 17.3217 58.2211 17.1375C58.4633 16.9481 58.8639 16.8018 59.4831 16.7653C60.5383 16.7653 61.3553 16.7901 61.9077 16.8149C62.1853 16.8267 62.3961 16.8397 62.5361 16.8489C62.6068 16.8541 62.6605 16.8567 62.6959 16.8593C62.7142 16.8606 62.7273 16.8619 62.7351 16.8619L62.7443 16.8632H62.7469L62.7561 16.8645H62.7653C62.9289 16.8645 63.0781 16.8332 63.1803 16.7274C63.2706 16.6333 63.2889 16.5132 63.2968 16.4544C63.2968 16.4505 63.2981 16.4466 63.2981 16.444C63.302 16.4191 63.3046 16.4008 63.3086 16.3839L63.3138 16.3617V15.0516C63.3138 14.8922 63.3033 14.7459 63.2418 14.6336C63.1659 14.4939 63.0389 14.4494 62.9368 14.4272L62.9276 14.4259L62.9184 14.4246H62.9145L62.904 14.4233C62.8949 14.422 62.8818 14.4207 62.8647 14.4194C62.8294 14.4155 62.777 14.4103 62.7076 14.4037C62.5676 14.3907 62.3581 14.3737 62.0753 14.3567C61.5098 14.3227 60.6509 14.2888 59.4753 14.2888H59.4714H59.4674C57.9619 14.345 56.8203 14.7629 56.0518 15.4238C55.282 16.0861 54.9023 16.9795 54.9023 17.946C54.9023 18.5821 55.049 19.1033 55.3082 19.533C55.5661 19.9614 55.9287 20.2867 56.3424 20.5414C57.1581 21.0416 58.2028 21.2833 59.1127 21.4936L59.131 21.4975C59.7947 21.6503 60.3773 21.7861 60.7963 21.9847C61.21 22.1806 61.4024 22.4066 61.4024 22.7214C61.4024 22.9839 61.2806 23.2177 60.9861 23.3966C60.6797 23.5821 60.1836 23.7062 59.453 23.7062C58.623 23.7062 57.7171 23.6174 57.0154 23.5273C56.6645 23.4829 56.3673 23.4371 56.1565 23.4032C56.0518 23.3862 55.968 23.3718 55.9117 23.3627C55.896 23.3601 55.8829 23.3575 55.8711 23.3562C55.862 23.3548 55.8528 23.3535 55.8463 23.3522L55.8305 23.3496L55.8253 23.3483L55.807 23.3444H55.7873C55.6381 23.3444 55.4967 23.3718 55.3972 23.4724C55.3095 23.5599 55.2899 23.6762 55.282 23.7297C55.2807 23.7336 55.2807 23.7376 55.2807 23.7402C55.2755 23.7689 55.2715 23.7872 55.2676 23.8055L55.2624 23.8264L55.1773 25.3036V25.3089C55.1773 25.4055 55.1917 25.5205 55.244 25.6236C55.2977 25.7334 55.3946 25.8313 55.5425 25.8692L55.5478 25.8705L55.553 25.8718L55.5595 25.8379C55.553 25.8718 55.553 25.8718 55.553 25.8718H55.5543L55.5582 25.8731C55.5609 25.8744 55.5661 25.8744 55.5726 25.8757C55.5844 25.8783 55.6028 25.881 55.6263 25.8862C55.6734 25.8953 55.7415 25.9071 55.8319 25.9214C56.0125 25.9502 56.2757 25.9881 56.6161 26.0272C57.2942 26.1043 58.2735 26.1801 59.4779 26.1801H59.4871C59.635 26.1814 60.8381 26.1905 62.0125 25.7503C62.6016 25.5296 63.196 25.1913 63.6437 24.6715C64.0954 24.1477 64.3873 23.4489 64.3873 22.532C64.3873 21.9024 64.2394 21.3852 63.9802 20.9593C63.7209 20.5348 63.3583 20.2135 62.9433 19.9627ZM77.6095 14.4821H75.4625C75.2569 14.4821 75.0802 14.6441 75.0802 14.857V21.0403C75.0802 22.3164 74.0041 23.3627 72.6608 23.3627C72.6543 23.3627 72.6491 23.3627 72.6425 23.3627C72.636 23.3627 72.6307 23.3627 72.6242 23.3627C71.281 23.3627 70.2048 22.3164 70.2048 21.0403V14.857C70.2048 14.6441 70.0281 14.4821 69.8225 14.4821H67.6755C67.47 14.4821 67.2932 14.6441 67.2932 14.857V21.0403C67.2932 23.8851 69.6864 26.1788 72.6242 26.1788C72.6307 26.1788 72.636 26.1788 72.6425 26.1788C72.6491 26.1788 72.6543 26.1788 72.6608 26.1788C75.5973 26.1788 77.9918 23.8851 77.9918 21.0403V14.857C77.9918 14.6441 77.8151 14.4821 77.6095 14.4821Z" fill="#FFF"></path></svg>