              <svg width="105" height="105" viewBox="0 0 105 105" fill="none" xmlns="http://www.w3.org/2000/svg">
<path d="M102.94 52.7187C101.671 51.4499 99.5708 51.4499 98.3021 52.7187L96.2896 54.7312V52.4999C96.2896 28.3499 76.6458 8.70618 52.4958 8.70618C39.1521 8.70618 26.6833 14.6999 18.3271 25.1124C17.1896 26.5124 17.4083 28.6124 18.8521 29.7499C20.2521 30.8437 22.3083 30.6249 23.4458 29.2249C30.5771 20.3437 41.1646 15.2687 52.4958 15.2687C73.0146 15.2687 89.7271 31.9812 89.7271 52.4999V54.6874L87.7146 52.6749C86.4458 51.4062 84.3458 51.4062 83.0771 52.6749C81.8083 53.9437 81.8083 56.0437 83.0771 57.3124L90.6896 64.9249C90.9958 65.2312 91.3458 65.4499 91.7396 65.6249C92.1333 65.7999 92.5708 65.8874 93.0083 65.8874C93.4458 65.8874 93.8396 65.7999 94.2771 65.6249C94.6708 65.4499 95.0208 65.2312 95.3271 64.9249L102.94 57.3124C104.208 56.0874 104.208 53.9874 102.94 52.7187Z" fill="black"/>
<path d="M86.1484 75.2502C84.7484 74.1127 82.6484 74.3315 81.5547 75.7752C74.4234 84.6565 63.8359 89.7315 52.5047 89.7315C31.9859 89.7315 15.2734 73.019 15.2734 52.5002V50.3127L17.2859 52.3252C17.9422 52.9815 18.7734 53.2877 19.6047 53.2877C20.4359 53.2877 21.2672 52.9377 21.8797 52.2815C23.1484 51.0127 23.1484 48.9127 21.8797 47.644L14.3109 40.0315C14.0047 39.769 13.6109 39.5065 13.2172 39.3315C12.4297 38.9815 11.5109 38.9815 10.7234 39.3315C10.3297 39.5065 9.97969 39.769 9.67344 40.0315L2.06094 47.644C0.792188 48.9127 0.792188 51.0127 2.06094 52.2815C3.32969 53.5502 5.42969 53.5502 6.69844 52.2815L8.71094 50.269V52.5002C8.71094 76.6502 28.3547 96.294 52.5047 96.294C65.8484 96.294 78.3172 90.3002 86.6734 79.8877C87.8109 78.4877 87.5922 76.3877 86.1484 75.2502Z" fill="black"/>
<path d="M67.5938 50.925C68.775 49.175 69.4312 47.1187 69.4312 44.8438C69.4312 39.025 64.3125 33.9062 58.4937 33.9062H54.9062V29.5312C54.9062 27.7375 53.4188 26.25 51.625 26.25C49.8313 26.25 48.3438 27.7375 48.3438 29.5312V33.9062H39.375C37.5813 33.9062 36.0938 35.3938 36.0938 37.1875V52.5V67.8125C36.0938 69.6063 37.5813 71.0938 39.375 71.0938H48.3438V75.4688C48.3438 77.2625 49.8313 78.75 51.625 78.75C53.4188 78.75 54.9062 77.2625 54.9062 75.4688V71.0938H61.25C67.9 71.0938 73.2812 66.1937 73.2812 60.1562C73.2812 56.2625 71.0062 52.85 67.5938 50.925ZM42.6562 40.4688H58.4937C60.9 40.4688 62.8687 42.875 62.8687 44.8438C62.8687 47.25 60.9 49.2188 58.4937 49.2188H42.6562V40.4688ZM61.25 64.5312H42.6562V55.7812H58.4937H61.25C64.2687 55.7812 66.7188 57.75 66.7188 60.1562C66.7188 62.5625 64.2687 64.5312 61.25 64.5312Z" fill="black"/>
</svg>