<svg width="20" height="20" viewBox="0 0 20 20" fill="none" xmlns="http://www.w3.org/2000/svg">
<g clip-path="url(#clip0_62:520)">
<path d="M9.99988 19.9998C15.5227 19.9998 19.9998 15.5227 19.9998 9.99988C19.9998 4.4771 15.5227 0 9.99988 0C4.4771 0 0 4.4771 0 9.99988C0 15.5227 4.4771 19.9998 9.99988 19.9998Z" fill="#41B4E6"/>
<path d="M20 10.0002C20 9.75654 19.9908 9.5151 19.9737 9.27576L15.8292 5.13135L4.17081 9.71725L8.6314 14.1779L8.68991 14.3885L8.76565 14.3121L8.76597 14.3124L8.68991 14.3885L13.6242 19.3228C17.3554 17.8712 20 14.2447 20 10.0002Z" fill="#0091C8"/>
<path d="M9.02884 11.4571L13.548 14.8691L15.8292 5.13135L4.17075 9.71725L7.71829 10.8923L14.1926 6.54947L9.02884 11.4571Z" fill="white"/>
<path d="M7.71827 10.8921L8.68987 14.3884L9.02882 11.457L14.1926 6.54932L7.71827 10.8921Z" fill="#D2D2D7"/>
<path d="M10.4976 12.5659L8.68994 14.3884L9.02889 11.457L10.4976 12.5659Z" fill="#B9B9BE"/>
</g>
<defs>
<clipPath id="clip0_62:520">
<rect width="20" height="20" fill="white"/>
</clipPath>
</defs>
</svg>
