<svg width="80" height="80" viewBox="0 0 80 80" fill="none" xmlns="http://www.w3.org/2000/svg">
<path d="M39.9996 15.5C24.0663 15.5 11.0996 28.4667 11.0996 44.4C11.0996 60.3333 24.0663 73.3333 39.9996 73.3333C55.933 73.3333 68.8996 60.3667 68.8996 44.4333C68.8996 28.5 55.933 15.5 39.9996 15.5ZM42.4996 43.3333C42.4996 44.7 41.3663 45.8333 39.9996 45.8333C38.6329 45.8333 37.4996 44.7 37.4996 43.3333V26.6667C37.4996 25.3 38.6329 24.1667 39.9996 24.1667C41.3663 24.1667 42.4996 25.3 42.4996 26.6667V43.3333Z" fill="#323A46"/>
<path d="M49.6344 11.5001H30.3678C29.0344 11.5001 27.9678 10.4334 27.9678 9.10008C27.9678 7.76675 29.0344 6.66675 30.3678 6.66675H49.6344C50.9678 6.66675 52.0344 7.73341 52.0344 9.06675C52.0344 10.4001 50.9678 11.5001 49.6344 11.5001Z" fill="#323A46"/>
</svg>
