<svg width="1738" height="446" viewBox="0 0 1738 446" fill="none" xmlns="http://www.w3.org/2000/svg">
<path d="M491.07 289.326C489.752 289.326 488.631 288.862 487.709 287.936C486.786 287.01 486.324 285.885 486.324 284.561V164.854H449.745C448.427 164.854 447.307 164.39 446.384 163.464C445.461 162.538 445 161.413 445 160.089V145.399C445 143.943 445.395 142.752 446.186 141.825C447.109 140.899 448.295 140.436 449.745 140.436H550.585C552.035 140.436 553.221 140.899 554.144 141.825C555.067 142.752 555.528 143.943 555.528 145.399V160.089C555.528 161.413 555.067 162.538 554.144 163.464C553.221 164.39 552.035 164.854 550.585 164.854H514.204V284.561C514.204 285.885 513.742 287.01 512.82 287.936C511.897 288.862 510.711 289.326 509.261 289.326H491.07Z" fill="#FFF"/>
<path d="M562.663 289.326C561.345 289.326 560.225 288.862 559.302 287.936C558.379 287.01 557.918 285.885 557.918 284.561V191.058C557.918 189.735 558.379 188.61 559.302 187.684C560.225 186.625 561.345 186.095 562.663 186.095H578.679C580.129 186.095 581.315 186.559 582.238 187.485C583.161 188.411 583.622 189.603 583.622 191.058V199.198C586.786 194.963 590.74 191.72 595.485 189.47C600.363 187.22 605.899 186.095 612.094 186.095H620.201C621.651 186.095 622.771 186.559 623.562 187.485C624.485 188.279 624.946 189.404 624.946 190.86V205.153C624.946 206.477 624.485 207.602 623.562 208.528C622.771 209.455 621.651 209.918 620.201 209.918H604.779C598.583 209.918 593.706 211.704 590.147 215.278C586.588 218.851 584.808 223.748 584.808 229.968V284.561C584.808 285.885 584.347 287.01 583.424 287.936C582.502 288.862 581.315 289.326 579.865 289.326H562.663Z" fill="#FFF"/>
<path d="M666.702 291.311C659.979 291.311 653.784 289.987 648.116 287.34C642.579 284.561 638.164 280.855 634.868 276.223C631.705 271.591 630.123 266.496 630.123 260.937C630.123 251.938 633.748 244.659 640.998 239.1C648.248 233.542 658.2 229.77 670.854 227.785L697.942 223.814V219.645C697.942 213.822 696.492 209.455 693.592 206.543C690.693 203.631 686.013 202.175 679.554 202.175C675.204 202.175 671.645 203.036 668.877 204.756C666.241 206.344 664.131 207.933 662.55 209.521C660.968 211.241 659.913 212.366 659.386 212.896C658.859 214.484 657.87 215.278 656.42 215.278H641.195C640.009 215.278 638.955 214.881 638.032 214.087C637.241 213.293 636.845 212.234 636.845 210.91C636.977 207.602 638.559 203.83 641.591 199.595C644.754 195.36 649.566 191.72 656.025 188.676C662.484 185.632 670.393 184.11 679.752 184.11C695.306 184.11 706.642 187.617 713.76 194.632C720.878 201.646 724.438 210.844 724.438 222.226V284.561C724.438 285.885 723.976 287.01 723.053 287.936C722.263 288.862 721.142 289.326 719.692 289.326H703.676C702.358 289.326 701.238 288.862 700.315 287.936C699.392 287.01 698.931 285.885 698.931 284.561V276.819C696.031 281.054 691.879 284.561 686.474 287.34C681.202 289.987 674.611 291.311 666.702 291.311ZM673.425 272.451C680.674 272.451 686.606 270.069 691.22 265.305C695.833 260.54 698.14 253.592 698.14 244.46V240.291L678.368 243.468C670.722 244.659 664.922 246.578 660.968 249.225C657.145 251.872 655.234 255.114 655.234 258.952C655.234 263.187 657.013 266.496 660.572 268.878C664.131 271.26 668.416 272.451 673.425 272.451Z" fill="#FFF"/>
<path d="M785.987 291.311C772.674 291.311 762.458 287.01 755.34 278.407C748.222 269.805 744.399 258.357 743.872 244.063L743.674 237.512L743.872 231.159C744.267 217.263 748.024 205.947 755.142 197.212C762.392 188.478 772.674 184.11 785.987 184.11C798.773 184.11 808.923 188.478 816.437 197.212V153.141C816.437 151.685 816.898 150.56 817.821 149.766C818.743 148.84 819.864 148.377 821.182 148.377H837.989C839.439 148.377 840.559 148.84 841.35 149.766C842.273 150.56 842.734 151.685 842.734 153.141V284.561C842.734 285.885 842.273 287.01 841.35 287.936C840.559 288.862 839.439 289.326 837.989 289.326H822.368C821.05 289.326 819.93 288.862 819.007 287.936C818.084 287.01 817.623 285.885 817.623 284.561V277.216C810.109 286.613 799.564 291.311 785.987 291.311ZM793.303 270.069C800.948 270.069 806.616 267.621 810.307 262.724C813.998 257.827 816.041 251.805 816.437 244.659C816.568 243.071 816.634 240.49 816.634 236.916C816.634 233.475 816.568 230.961 816.437 229.373C816.173 222.755 814.064 217.131 810.109 212.498C806.287 207.734 800.685 205.352 793.303 205.352C779.067 205.352 771.487 214.153 770.565 231.755L770.367 237.711L770.565 243.666C771.487 261.268 779.067 270.069 793.303 270.069Z" fill="#FFF"/>
<path d="M911.4 291.311C896.768 291.311 885.103 287.076 876.403 278.606C867.835 270.003 863.287 257.96 862.76 242.475L862.562 237.512L862.76 232.549C863.419 217.461 868.033 205.616 876.601 197.014C885.3 188.411 896.9 184.11 911.4 184.11C926.954 184.11 938.95 188.875 947.386 198.404C955.954 207.933 960.238 220.638 960.238 236.519V240.688C960.238 242.012 959.777 243.137 958.854 244.063C957.931 244.99 956.745 245.453 955.295 245.453H889.65V247.041C889.914 254.32 891.891 260.474 895.582 265.503C899.405 270.4 904.612 272.848 911.202 272.848C918.98 272.848 925.241 269.805 929.986 263.717C931.173 262.261 932.095 261.334 932.754 260.937C933.545 260.54 934.666 260.342 936.116 260.342H953.12C954.306 260.342 955.295 260.739 956.086 261.533C957.009 262.195 957.47 263.055 957.47 264.114C957.47 267.29 955.559 271.062 951.736 275.429C948.045 279.664 942.707 283.37 935.72 286.546C928.734 289.723 920.627 291.311 911.4 291.311ZM933.348 228.777V228.182C933.348 220.373 931.37 214.087 927.416 209.322C923.593 204.558 918.255 202.175 911.4 202.175C904.546 202.175 899.207 204.558 895.384 209.322C891.562 214.087 889.65 220.373 889.65 228.182V228.777H933.348Z" fill="#FFF"/>
<path d="M983.994 289.326C982.676 289.326 981.556 288.862 980.633 287.936C979.71 287.01 979.249 285.885 979.249 284.561V191.058C979.249 189.735 979.71 188.61 980.633 187.684C981.556 186.625 982.676 186.095 983.994 186.095H1000.01C1001.46 186.095 1002.65 186.559 1003.57 187.485C1004.49 188.411 1004.95 189.603 1004.95 191.058V199.198C1008.12 194.963 1012.07 191.72 1016.82 189.47C1021.69 187.22 1027.23 186.095 1033.43 186.095H1041.53C1042.98 186.095 1044.1 186.559 1044.89 187.485C1045.82 188.279 1046.28 189.404 1046.28 190.86V205.153C1046.28 206.477 1045.82 207.602 1044.89 208.528C1044.1 209.455 1042.98 209.918 1041.53 209.918H1026.11C1019.91 209.918 1015.04 211.704 1011.48 215.278C1007.92 218.851 1006.14 223.748 1006.14 229.968V284.561C1006.14 285.885 1005.68 287.01 1004.76 287.936C1003.83 288.862 1002.65 289.326 1001.2 289.326H983.994Z" fill="#FFF"/>
<path d="M1090.76 289.326C1088.79 289.326 1087.21 288.796 1086.02 287.737C1084.83 286.679 1084.11 285.223 1083.84 283.37L1056.95 145.757L1056.76 144.169C1056.76 142.978 1057.15 141.985 1057.94 141.191C1058.86 140.397 1059.85 140 1060.91 140H1078.31C1081.6 140 1083.45 141.323 1083.84 143.97L1103.62 244.262L1121.41 186.095C1122.73 182.787 1124.9 181.132 1127.94 181.132H1138.61C1141.91 181.132 1144.02 182.787 1144.94 186.095L1162.93 244.063L1180.93 144.169C1181.19 142.713 1181.72 141.721 1182.51 141.191C1183.43 140.529 1184.75 140.199 1186.46 140.199H1203.86C1204.92 140.199 1205.84 140.596 1206.63 141.39C1207.42 142.184 1207.82 143.176 1207.82 144.367C1207.82 145.029 1207.82 144.676 1207.62 145.956L1182.51 283.37C1181.85 287.34 1179.54 289.326 1175.59 289.326H1162.34C1160.5 289.326 1158.98 288.862 1157.79 287.936C1156.61 287.01 1155.82 285.818 1155.42 284.363L1133.28 218.057L1111.13 284.363C1109.81 287.671 1107.44 289.326 1104.01 289.326H1090.76Z" fill="#FFF"/>
<path d="M1250.71 291.311C1243.99 291.311 1237.79 289.987 1232.12 287.34C1226.59 284.561 1222.17 280.855 1218.87 276.223C1215.71 271.591 1214.13 266.496 1214.13 260.937C1214.13 251.938 1217.75 244.659 1225 239.1C1232.25 233.542 1242.21 229.77 1254.86 227.785L1281.95 223.814V219.645C1281.95 213.822 1280.5 209.455 1277.6 206.543C1274.7 203.631 1270.02 202.175 1263.56 202.175C1259.21 202.175 1255.65 203.036 1252.88 204.756C1250.25 206.344 1248.14 207.933 1246.56 209.521C1244.97 211.241 1243.92 212.366 1243.39 212.896C1242.86 214.484 1241.88 215.278 1240.43 215.278H1225.2C1224.02 215.278 1222.96 214.881 1222.04 214.087C1221.25 213.293 1220.85 212.234 1220.85 210.91C1220.98 207.602 1222.57 203.83 1225.6 199.595C1228.76 195.36 1233.57 191.72 1240.03 188.676C1246.49 185.632 1254.4 184.11 1263.76 184.11C1279.31 184.11 1290.65 187.617 1297.77 194.632C1304.88 201.646 1308.44 210.844 1308.44 222.226V284.561C1308.44 285.885 1307.98 287.01 1307.06 287.936C1306.27 288.862 1305.15 289.326 1303.7 289.326H1287.68C1286.36 289.326 1285.24 288.862 1284.32 287.936C1283.4 287.01 1282.94 285.885 1282.94 284.561V276.819C1280.04 281.054 1275.89 284.561 1270.48 287.34C1265.21 289.987 1258.62 291.311 1250.71 291.311ZM1257.43 272.451C1264.68 272.451 1270.61 270.069 1275.23 265.305C1279.84 260.54 1282.15 253.592 1282.15 244.46V240.291L1262.37 243.468C1254.73 244.659 1248.93 246.578 1244.97 249.225C1241.15 251.872 1239.24 255.114 1239.24 258.952C1239.24 263.187 1241.02 266.496 1244.58 268.878C1248.14 271.26 1252.42 272.451 1257.43 272.451Z" fill="#FFF"/>
<path d="M1378.3 333C1366.57 333 1357.08 331.015 1349.83 327.044C1342.58 323.206 1337.43 318.773 1334.4 313.744C1331.37 308.714 1329.86 304.413 1329.86 300.84C1329.86 299.649 1330.32 298.59 1331.24 297.663C1332.29 296.737 1333.41 296.274 1334.6 296.274H1351.8C1352.99 296.274 1353.98 296.539 1354.77 297.068C1355.69 297.73 1356.42 298.855 1356.94 300.443C1358.26 304.016 1360.37 306.994 1363.27 309.376C1366.3 311.891 1370.98 313.148 1377.31 313.148C1385.22 313.148 1391.02 311.361 1394.71 307.788C1398.53 304.215 1400.44 298.061 1400.44 289.326V275.826C1393.19 284.429 1383.04 288.73 1369.99 288.73C1356.28 288.73 1345.94 284.495 1338.95 276.025C1332.1 267.555 1328.41 256.173 1327.88 241.879L1327.68 236.519L1327.88 231.159C1328.41 217.131 1332.16 205.815 1339.15 197.212C1346.13 188.478 1356.42 184.11 1369.99 184.11C1376.98 184.11 1383.11 185.434 1388.38 188.081C1393.65 190.727 1398.07 194.367 1401.63 198.999V191.058C1401.63 189.603 1402.09 188.411 1403.01 187.485C1403.94 186.559 1405.06 186.095 1406.37 186.095H1422.39C1423.71 186.095 1424.83 186.625 1425.75 187.684C1426.67 188.61 1427.14 189.735 1427.14 191.058L1427.33 286.745C1427.33 301.435 1423.25 312.817 1415.07 320.89C1406.9 328.963 1394.64 333 1378.3 333ZM1377.31 267.687C1384.82 267.687 1390.42 265.305 1394.12 260.54C1397.94 255.776 1400.05 249.953 1400.44 243.071C1400.57 242.012 1400.64 239.828 1400.64 236.519C1400.64 233.343 1400.57 231.226 1400.44 230.167C1400.05 223.152 1397.94 217.263 1394.12 212.498C1390.42 207.734 1384.82 205.352 1377.31 205.352C1363.07 205.352 1355.56 214.153 1354.77 231.755L1354.57 236.519C1354.57 245.916 1356.22 253.46 1359.51 259.151C1362.94 264.842 1368.87 267.687 1377.31 267.687Z" fill="#FFF"/>
<path d="M1497.17 291.311C1481.75 291.311 1469.82 287.34 1461.38 279.4C1452.95 271.326 1448.4 260.342 1447.74 246.445L1447.54 237.711L1447.74 228.976C1448.4 215.212 1453.01 204.293 1461.58 196.22C1470.15 188.147 1482.01 184.11 1497.17 184.11C1512.33 184.11 1524.19 188.147 1532.76 196.22C1541.33 204.293 1545.94 215.212 1546.6 228.976C1546.73 230.564 1546.8 233.475 1546.8 237.711C1546.8 241.946 1546.73 244.857 1546.6 246.445C1545.94 260.342 1541.4 271.326 1532.96 279.4C1524.52 287.34 1512.59 291.311 1497.17 291.311ZM1497.17 271.657C1504.16 271.657 1509.56 269.474 1513.39 265.106C1517.21 260.606 1519.32 254.055 1519.71 245.453C1519.84 244.129 1519.91 241.549 1519.91 237.711C1519.91 233.872 1519.84 231.292 1519.71 229.968C1519.32 221.366 1517.21 214.881 1513.39 210.513C1509.56 206.014 1504.16 203.764 1497.17 203.764C1490.19 203.764 1484.78 206.014 1480.96 210.513C1477.14 214.881 1475.03 221.366 1474.63 229.968L1474.43 237.711L1474.63 245.453C1475.03 254.055 1477.14 260.606 1480.96 265.106C1484.78 269.474 1490.19 271.657 1497.17 271.657Z" fill="#FFF"/>
<path d="M1571.48 289.326C1570.16 289.326 1569.04 288.862 1568.11 287.936C1567.19 287.01 1566.73 285.885 1566.73 284.561V190.86C1566.73 189.536 1567.19 188.411 1568.11 187.485C1569.04 186.559 1570.16 186.095 1571.48 186.095H1587.69C1589.01 186.095 1590.13 186.559 1591.05 187.485C1591.97 188.411 1592.44 189.536 1592.44 190.86V198.999C1600.21 189.073 1611.22 184.11 1625.46 184.11C1637.58 184.11 1647.2 188.147 1654.32 196.22C1661.44 204.161 1665 215.013 1665 228.777V284.561C1665 285.885 1664.54 287.01 1663.62 287.936C1662.83 288.862 1661.7 289.326 1660.25 289.326H1642.85C1641.54 289.326 1640.42 288.862 1639.49 287.936C1638.57 287.01 1638.11 285.885 1638.11 284.561V229.968C1638.11 222.16 1636.2 216.138 1632.38 211.903C1628.68 207.535 1623.28 205.352 1616.16 205.352C1609.18 205.352 1603.64 207.535 1599.55 211.903C1595.6 216.27 1593.62 222.292 1593.62 229.968V284.561C1593.62 285.885 1593.16 287.01 1592.24 287.936C1591.45 288.862 1590.33 289.326 1588.88 289.326H1571.48Z" fill="#FFF"/>
<path fill-rule="evenodd" clip-rule="evenodd" d="M292.399 262.897L248.024 237.411C244.915 235.625 246.182 230.875 249.768 230.875L362.47 230.888C368.195 230.888 372.783 235.703 372.088 241.386C363.75 309.596 309.607 363.737 241.389 372.086C235.705 372.782 230.889 368.193 230.889 362.466V311.73C230.889 306.583 234.818 302.345 239.85 301.267C262.307 296.456 281.271 282.21 292.399 262.897ZM215.11 362.467C215.11 368.194 210.296 372.783 204.612 372.088C136.403 363.751 82.2577 309.61 73.9129 241.388C73.2176 235.704 77.806 230.889 83.5325 230.889H134.274C139.419 230.889 143.657 234.816 144.736 239.847C149.537 262.254 163.72 281.183 182.974 292.319L208.569 247.997C210.36 244.896 215.1 246.166 215.1 249.747L215.11 362.467ZM83.5528 215.09C77.8187 215.101 73.218 210.283 73.9148 204.591C82.2634 136.392 136.402 82.2615 204.611 73.9136C210.295 73.2179 215.111 77.8065 215.111 83.5332V134.272C215.111 139.418 211.183 143.656 206.152 144.733C183.742 149.532 164.811 163.712 153.673 182.968L197.605 208.335C200.703 210.124 199.439 214.859 195.862 214.866L83.5528 215.09ZM230.891 83.5329C230.89 77.8063 235.705 73.217 241.389 73.9118C309.597 82.2486 363.742 136.389 372.087 204.611C372.782 210.295 368.194 215.111 362.468 215.111H311.726C306.581 215.111 302.342 211.184 301.264 206.152C296.463 183.742 282.28 164.802 263.026 153.665L237.441 197.985C235.651 201.086 230.91 199.817 230.91 196.236L230.891 83.5329Z" fill="url(#paint0_linear)"/>
<g style="mix-blend-mode:darken" filter="url(#filter0_i)">
<path d="M365.45 231.34C337.224 272.144 290.916 299.486 238.111 301.78C238.672 301.567 239.254 301.395 239.852 301.267C262.309 296.456 281.272 282.21 292.401 262.897L248.026 237.411C244.917 235.625 246.184 230.875 249.769 230.875L362.471 230.888C363.51 230.888 364.511 231.046 365.45 231.34Z" fill="url(#paint1_linear)"/>
</g>
<g style="mix-blend-mode:darken" opacity="0.6" filter="url(#filter1_i)">
<path d="M144.197 238.041C144.421 238.623 144.603 239.226 144.736 239.847C149.537 262.254 163.72 281.183 182.974 292.319L208.569 247.997C210.36 244.896 215.1 246.166 215.1 249.747L215.11 362.467C215.11 365.651 213.622 368.483 211.323 370.251C172.073 339.029 146.312 291.574 144.197 238.041Z" fill="url(#paint2_linear)"/>
</g>
<g style="mix-blend-mode:darken" filter="url(#filter2_i)">
<path d="M233.871 76.4451C273.523 107.136 299.652 154.456 301.802 207.951C301.578 207.371 301.398 206.77 301.266 206.152C296.465 183.742 282.281 164.802 263.027 153.665L237.442 197.985C235.652 201.086 230.912 199.817 230.911 196.236L230.892 83.5329C230.892 80.7391 232.038 78.216 233.871 76.4451Z" fill="url(#paint3_linear)"/>
</g>
<g style="mix-blend-mode:darken" opacity="0.6" filter="url(#filter3_i)">
<path d="M75.757 211.312C77.5288 213.61 80.3658 215.096 83.5528 215.09L195.862 214.866C199.439 214.859 200.703 210.124 197.606 208.335L153.673 182.968C164.811 163.712 183.742 149.532 206.152 144.733C206.77 144.601 207.372 144.421 207.951 144.197C154.427 146.315 106.978 172.07 75.757 211.312Z" fill="url(#paint4_linear)"/>
</g>
<defs>
<filter id="filter0_i" x="238.111" y="230.875" width="127.339" height="73.9048" filterUnits="userSpaceOnUse" color-interpolation-filters="sRGB">
<feFlood flood-opacity="0" result="BackgroundImageFix"/>
<feBlend mode="normal" in="SourceGraphic" in2="BackgroundImageFix" result="shape"/>
<feColorMatrix in="SourceAlpha" type="matrix" values="0 0 0 0 0 0 0 0 0 0 0 0 0 0 0 0 0 0 127 0" result="hardAlpha"/>
<feOffset dy="3"/>
<feGaussianBlur stdDeviation="6"/>
<feComposite in2="hardAlpha" operator="arithmetic" k2="-1" k3="1"/>
<feColorMatrix type="matrix" values="0 0 0 0 0.340545 0 0 0 0 0.375502 0 0 0 0 0.44336 0 0 0 0.08 0"/>
<feBlend mode="normal" in2="shape" result="effect1_innerShadow"/>
</filter>
<filter id="filter1_i" x="144.197" y="238.041" width="70.9134" height="135.211" filterUnits="userSpaceOnUse" color-interpolation-filters="sRGB">
<feFlood flood-opacity="0" result="BackgroundImageFix"/>
<feBlend mode="normal" in="SourceGraphic" in2="BackgroundImageFix" result="shape"/>
<feColorMatrix in="SourceAlpha" type="matrix" values="0 0 0 0 0 0 0 0 0 0 0 0 0 0 0 0 0 0 127 0" result="hardAlpha"/>
<feOffset dy="3"/>
<feGaussianBlur stdDeviation="6"/>
<feComposite in2="hardAlpha" operator="arithmetic" k2="-1" k3="1"/>
<feColorMatrix type="matrix" values="0 0 0 0 0.340545 0 0 0 0 0.375502 0 0 0 0 0.44336 0 0 0 0.08 0"/>
<feBlend mode="normal" in2="shape" result="effect1_innerShadow"/>
</filter>
<filter id="filter2_i" x="230.892" y="76.4451" width="70.9095" height="134.505" filterUnits="userSpaceOnUse" color-interpolation-filters="sRGB">
<feFlood flood-opacity="0" result="BackgroundImageFix"/>
<feBlend mode="normal" in="SourceGraphic" in2="BackgroundImageFix" result="shape"/>
<feColorMatrix in="SourceAlpha" type="matrix" values="0 0 0 0 0 0 0 0 0 0 0 0 0 0 0 0 0 0 127 0" result="hardAlpha"/>
<feOffset dy="3"/>
<feGaussianBlur stdDeviation="6"/>
<feComposite in2="hardAlpha" operator="arithmetic" k2="-1" k3="1"/>
<feColorMatrix type="matrix" values="0 0 0 0 0.340545 0 0 0 0 0.375502 0 0 0 0 0.44336 0 0 0 0.08 0"/>
<feBlend mode="normal" in2="shape" result="effect1_innerShadow"/>
</filter>
<filter id="filter3_i" x="75.757" y="144.197" width="132.194" height="73.8925" filterUnits="userSpaceOnUse" color-interpolation-filters="sRGB">
<feFlood flood-opacity="0" result="BackgroundImageFix"/>
<feBlend mode="normal" in="SourceGraphic" in2="BackgroundImageFix" result="shape"/>
<feColorMatrix in="SourceAlpha" type="matrix" values="0 0 0 0 0 0 0 0 0 0 0 0 0 0 0 0 0 0 127 0" result="hardAlpha"/>
<feOffset dy="3"/>
<feGaussianBlur stdDeviation="6"/>
<feComposite in2="hardAlpha" operator="arithmetic" k2="-1" k3="1"/>
<feColorMatrix type="matrix" values="0 0 0 0 0.340545 0 0 0 0 0.375502 0 0 0 0 0.44336 0 0 0 0.08 0"/>
<feBlend mode="normal" in2="shape" result="effect1_innerShadow"/>
</filter>
<linearGradient id="paint0_linear" x1="73.843" y1="223" x2="372.157" y2="222.585" gradientUnits="userSpaceOnUse">
<stop stop-color="#03DCB5"/>
<stop offset="1" stop-color="#3B63F1"/>
</linearGradient>
<linearGradient id="paint1_linear" x1="293.391" y1="201.937" x2="80.2141" y2="80.1966" gradientUnits="userSpaceOnUse">
<stop stop-color="#2A5392" stop-opacity="0.29"/>
<stop offset="1" stop-color="#5194C5" stop-opacity="0.32"/>
</linearGradient>
<linearGradient id="paint2_linear" x1="147.865" y1="231.433" x2="243.114" y2="378.388" gradientUnits="userSpaceOnUse">
<stop stop-color="#2A5392" stop-opacity="0.29"/>
<stop offset="1" stop-color="#5194C5" stop-opacity="0.57"/>
</linearGradient>
<linearGradient id="paint3_linear" x1="126.701" y1="39.8662" x2="-34.7981" y2="152.687" gradientUnits="userSpaceOnUse">
<stop stop-color="#2A5392" stop-opacity="0.29"/>
<stop offset="1" stop-color="#5194C5" stop-opacity="0.32"/>
</linearGradient>
<linearGradient id="paint4_linear" x1="198.238" y1="152.764" x2="51.0907" y2="258.637" gradientUnits="userSpaceOnUse">
<stop stop-color="#2A5392" stop-opacity="0.54"/>
<stop offset="1" stop-color="#5194C5" stop-opacity="0.32"/>
<stop offset="1" stop-color="#5194C5" stop-opacity="0.32"/>
</linearGradient>
</defs>
</svg>
