<svg width="105" height="22" viewBox="0 0 105 22" fill="none" xmlns="http://www.w3.org/2000/svg"><path d="M26.9217 9.16357H9.34888V12.7008H26.9217V9.16357Z" fill="#F37032"></path><path d="M0.00512695 0V21.831H36.2964V0H0.00512695ZM32.7564 18.3273H3.54511V3.53726H32.7564V18.3273Z" fill="#F37032"></path><path d="M54.3506 3.09521H56.9031L51.6334 18.1175H49.0397L43.7905 3.09521H46.3225L49.4617 12.4353C49.6263 12.8806 49.8013 13.456 49.9866 14.1615C50.1718 14.8602 50.2919 15.3809 50.3468 15.7234C50.436 15.2027 50.5732 14.5999 50.7585 13.9149C50.9438 13.2299 51.0947 12.723 51.2114 12.3942L54.3506 3.09521Z" fill="#fff"></path><path d="M67.4014 18.1175H58.8895V3.09521H67.4014V5.17079H61.3494V9.2603H67.0206V11.3153H61.3494V16.0316H67.4014V18.1175Z" fill="#fff"></path><path d="M81.749 18.1175H78.9186L75.1516 11.9729L71.3537 18.1175H68.7188L73.7106 10.3289L69.0379 3.09521H71.7757L75.2545 8.77736L78.7333 3.09521H81.3888L76.6851 10.37L81.749 18.1175Z" fill="#fff"></path><path d="M92.2885 18.1175H83.7766V3.09521H92.2885V5.17079H86.2365V9.2603H91.9077V11.3153H86.2365V16.0316H92.2885V18.1175Z" fill="#fff"></path><path d="M95.5512 18.1175V3.09521H98.0111V16.0111H104.382V18.1175H95.5512Z" fill="#fff"></path></svg>