<svg width="46" height="45" viewBox="0 0 46 45" fill="none" xmlns="http://www.w3.org/2000/svg">
<g clip-path="url(#clip0_326:485)">
<path d="M16.9999 28.9643L19.2857 16.1072H22.8571L20.6428 28.9643H16.9999Z" fill="#3C58BF"/>
<path d="M16.9999 28.9643L19.9285 16.1072H22.8571L20.6428 28.9643H16.9999Z" fill="#293688"/>
<path d="M33.5715 16.2499C32.8572 15.9642 31.7143 15.6785 30.2857 15.6785C26.7143 15.6785 24.1429 17.4642 24.1429 20.0356C24.1429 21.9642 25.9286 22.9642 27.3572 23.607C28.7857 24.2499 29.2143 24.6785 29.2143 25.2499C29.2143 26.107 28.0715 26.5356 27.0715 26.5356C25.6429 26.5356 24.8572 26.3213 23.6429 25.8213L23.1429 25.607L22.6429 28.5356C23.5 28.8928 25.0715 29.2499 26.7143 29.2499C30.5 29.2499 33 27.4642 33 24.7499C33 23.2499 32.0715 22.107 29.9286 21.1785C28.6429 20.5356 27.8572 20.1785 27.8572 19.5356C27.8572 18.9642 28.5 18.3928 29.9286 18.3928C31.1429 18.3928 32 18.607 32.6429 18.8928L33 19.0356L33.5715 16.2499Z" fill="#3C58BF"/>
<path d="M33.5715 16.2499C32.8572 15.9642 31.7143 15.6785 30.2857 15.6785C26.7143 15.6785 24.7857 17.4642 24.7857 20.0356C24.7857 21.9642 25.9286 22.9642 27.3572 23.607C28.7857 24.2499 29.2143 24.6785 29.2143 25.2499C29.2143 26.107 28.0715 26.5356 27.0715 26.5356C25.6429 26.5356 24.8572 26.3213 23.6429 25.8213L23.1429 25.607L22.6429 28.5356C23.5 28.8928 25.0715 29.2499 26.7143 29.2499C30.5 29.2499 33 27.4642 33 24.7499C33 23.2499 32.0715 22.107 29.9286 21.1785C28.6429 20.5356 27.8572 20.1785 27.8572 19.5356C27.8572 18.9642 28.5 18.3928 29.9286 18.3928C31.1429 18.3928 32 18.607 32.6429 18.8928L33 19.0356L33.5715 16.2499Z" fill="#293688"/>
<path d="M39.7143 16.1072C38.8572 16.1072 38.2143 16.1786 37.8572 17.0358L32.5001 28.9643H36.3572L37.0715 26.8215H41.6429L42.0715 28.9643H45.5001L42.5001 16.1072H39.7143ZM38.0715 24.6786C38.2858 24.0357 39.5001 20.8929 39.5001 20.8929C39.5001 20.8929 39.7858 20.1072 40.0001 19.6072L40.2143 20.8215C40.2143 20.8215 40.9286 24.0358 41.0715 24.75H38.0715V24.6786Z" fill="#3C58BF"/>
<path d="M40.5715 16.1072C39.7143 16.1072 39.0715 16.1786 38.7143 17.0358L32.5001 28.9643H36.3572L37.0715 26.8215H41.6429L42.0715 28.9643H45.5001L42.5001 16.1072H40.5715ZM38.0715 24.6786C38.3572 23.9643 39.5001 20.8929 39.5001 20.8929C39.5001 20.8929 39.7858 20.1072 40.0001 19.6072L40.2143 20.8215C40.2143 20.8215 40.9286 24.0358 41.0715 24.75H38.0715V24.6786Z" fill="#293688"/>
<path d="M10.4286 25.1073L10.0715 23.2501C9.42861 21.1073 7.35719 18.7501 5.07147 17.6073L8.28576 29.0358H12.1429L17.9286 16.1787H14.0715L10.4286 25.1073Z" fill="#3C58BF"/>
<path d="M10.4286 25.1073L10.0715 23.2501C9.42861 21.1073 7.35719 18.7501 5.07147 17.6073L8.28576 29.0358H12.1429L17.9286 16.1787H14.7858L10.4286 25.1073Z" fill="#293688"/>
<path d="M0.5 16.1072L1.14286 16.25C5.71429 17.3215 8.85714 20.0357 10.0714 23.25L8.78572 17.1786C8.57143 16.3215 7.92857 16.1072 7.14286 16.1072H0.5Z" fill="#FFBC00"/>
<path d="M0.5 16.1072C5.07143 17.1786 8.85714 19.9643 10.0714 23.1786L8.85714 18.1072C8.64286 17.25 7.92857 16.75 7.14286 16.75L0.5 16.1072Z" fill="#F7981D"/>
<path d="M0.5 16.1072C5.07143 17.1786 8.85714 19.9643 10.0714 23.1786L9.21429 20.3929C9 19.5357 8.71429 18.6786 7.71429 18.3215L0.5 16.1072Z" fill="#ED7C00"/>
<path d="M14 24.6787L11.5715 22.2502L10.4286 24.9645L10.1429 23.1787C9.50003 21.0359 7.4286 18.6787 5.14288 17.5359L8.35717 28.9645H12.2143L14 24.6787Z" fill="#051244"/>
<path d="M20.6429 28.9644L17.5714 25.8215L17 28.9644H20.6429Z" fill="#051244"/>
<path d="M28.8572 24.5359C29.1429 24.8216 29.2857 25.0359 29.2143 25.3216C29.2143 26.1787 28.0715 26.6073 27.0715 26.6073C25.6429 26.6073 24.8572 26.393 23.6429 25.893L23.1429 25.6787L22.6429 28.6073C23.5 28.9645 25.0715 29.3216 26.7143 29.3216C29 29.3216 30.8572 28.6787 31.9286 27.5359L28.8572 24.5359Z" fill="#051244"/>
<path d="M33 28.9646H36.3571L37.0714 26.8217H41.6429L42.0714 28.9646H45.5L44.2857 23.7503L40 19.6074L40.2143 20.7503C40.2143 20.7503 40.9286 23.9646 41.0714 24.6788H38.0714C38.3571 23.9646 39.5 20.8931 39.5 20.8931C39.5 20.8931 39.7857 20.1074 40 19.6074" fill="#051244"/>
</g>
<defs>
<clipPath id="clip0_326:485">
<rect width="45" height="45" fill="white" transform="translate(0.5)"/>
</clipPath>
</defs>
</svg>
