<svg width="80" height="80" viewBox="0 0 80 80" fill="none" xmlns="http://www.w3.org/2000/svg">
<path d="M39.7977 7.36667L31.7644 26.0667H23.7311C22.3977 26.0667 21.0977 26.1667 19.8311 26.4333L23.1644 18.4333L23.2977 18.1333L23.4977 17.6C23.5977 17.3667 23.6644 17.1667 23.7644 17C27.6311 8.03334 31.9644 5.23334 39.7977 7.36667Z" fill="#FCE34D"/>
<path d="M62.4318 26.9668L62.3651 26.9335C60.3651 26.3668 58.3318 26.0668 56.2651 26.0668H35.3984L42.8984 8.63348L42.9984 8.40015C43.4651 8.56681 43.9651 8.80015 44.4651 8.96681L51.8318 12.0668C55.9318 13.7668 58.7984 15.5335 60.5651 17.6668C60.8651 18.0668 61.1318 18.4335 61.3984 18.8668C61.6984 19.3335 61.9318 19.8001 62.0651 20.3001C62.1984 20.6001 62.2984 20.8668 62.3651 21.1668C62.8651 22.8668 62.8984 24.8001 62.4318 26.9668Z" fill="#FCE34D"/>
<path d="M60.9668 31.7333C59.4668 31.3 57.9001 31.0667 56.2668 31.0667H23.7335C21.4668 31.0667 19.3335 31.5 17.3335 32.3667C11.5335 34.8667 7.4668 40.6333 7.4668 47.3333V53.8333C7.4668 54.6333 7.53346 55.4 7.63346 56.2C8.3668 66.8 14.0335 72.4667 24.6335 73.1667C25.4001 73.2667 26.1668 73.3333 27.0001 73.3333H53.0001C65.3335 73.3333 71.8335 67.4666 72.4668 55.8C72.5001 55.1667 72.5335 54.5 72.5335 53.8333V47.3333C72.5335 39.9667 67.6335 33.7667 60.9668 31.7333ZM48.3335 53.9667H42.5001V60C42.5001 61.3667 41.3668 62.5 40.0001 62.5C38.6335 62.5 37.5001 61.3667 37.5001 60V53.9667H31.6668C30.3001 53.9667 29.1668 52.8666 29.1668 51.4667C29.1668 50.1 30.3001 48.9667 31.6668 48.9667H37.5001V43.3333C37.5001 41.9667 38.6335 40.8333 40.0001 40.8333C41.3668 40.8333 42.5001 41.9667 42.5001 43.3333V48.9667H48.3335C49.7001 48.9667 50.8335 50.1 50.8335 51.4667C50.8335 52.8666 49.7001 53.9667 48.3335 53.9667Z" fill="#FCE34D"/>
</svg>
