<svg width="20" height="20" viewBox="0 0 20 20" fill="none" xmlns="http://www.w3.org/2000/svg">
<path d="M20 0H0V20H20V0Z" fill="#1BD741"/>
<path d="M3.00591 17.0019L3.98557 13.5225C3.35559 12.4523 3.0239 11.2346 3.0239 9.98367C3.0239 6.13205 6.15742 2.99854 10.009 2.99854C13.8606 2.99854 16.9941 6.13205 16.9941 9.98367C16.9941 13.8353 13.8606 16.9688 10.009 16.9688C8.8089 16.9688 7.63373 16.6616 6.59412 16.0783L3.00591 17.0019ZM6.77757 14.8075L6.99138 14.938C7.89779 15.4914 8.9413 15.7839 10.009 15.7839C13.2073 15.7839 15.8092 13.1819 15.8092 9.98367C15.8092 6.78542 13.2073 4.18344 10.009 4.18344C6.81079 4.18344 4.20881 6.78542 4.20881 9.98367C4.20881 11.0981 4.52554 12.1802 5.12466 13.1132L5.26865 13.3374L4.7045 15.3411L6.77757 14.8075Z" fill="white"/>
<path d="M8.04678 6.73256L7.59353 6.70785C7.45116 6.70008 7.31152 6.74766 7.20391 6.84113C6.98418 7.03195 6.63283 7.40085 6.52492 7.88157C6.36399 8.59835 6.61269 9.47606 7.25636 10.3538C7.90003 11.2315 9.09955 12.6358 11.2207 13.2356C11.9042 13.4289 12.4419 13.2986 12.8567 13.0332C13.1853 12.823 13.4118 12.4857 13.4934 12.1043L13.5658 11.7663C13.5888 11.6589 13.5342 11.5499 13.4344 11.5039L11.9026 10.7978C11.8032 10.752 11.6852 10.781 11.6184 10.8676L11.017 11.6472C10.9716 11.7061 10.8938 11.7295 10.8236 11.7048C10.4118 11.5601 9.03227 10.9823 8.27534 9.52425C8.24251 9.46101 8.25067 9.38426 8.29723 9.33032L8.87196 8.66545C8.93068 8.59756 8.94551 8.50211 8.91023 8.41961L8.24993 6.87479C8.21477 6.79255 8.136 6.73743 8.04678 6.73256Z" fill="white"/>
</svg>
